<svg width="330" height="314" viewBox="0 0 330 314" fill="none" xmlns="http://www.w3.org/2000/svg">
<g opacity="0.1">
<path d="M179.776 123.355C177.422 123.355 175.287 122.96 173.37 122.168C171.474 121.355 169.839 120.22 168.464 118.762C167.11 117.303 166.068 115.574 165.339 113.574C164.61 111.574 164.245 109.387 164.245 107.012V105.699C164.245 102.949 164.651 100.501 165.464 98.3555C166.276 96.1888 167.381 94.3555 168.776 92.8555C170.172 91.3555 171.756 90.2201 173.526 89.4492C175.297 88.6784 177.131 88.293 179.026 88.293C181.443 88.293 183.526 88.7096 185.276 89.543C187.047 90.3763 188.495 91.543 189.62 93.043C190.745 94.5221 191.578 96.2721 192.12 98.293C192.662 100.293 192.933 102.48 192.933 104.855V107.449H167.683V102.73H187.151V102.293C187.068 100.793 186.756 99.3346 186.214 97.918C185.693 96.5013 184.86 95.3346 183.714 94.418C182.568 93.5013 181.006 93.043 179.026 93.043C177.714 93.043 176.506 93.3242 175.401 93.8867C174.297 94.4284 173.349 95.2409 172.558 96.3242C171.766 97.4076 171.151 98.7305 170.714 100.293C170.276 101.855 170.058 103.658 170.058 105.699V107.012C170.058 108.616 170.276 110.126 170.714 111.543C171.172 112.939 171.828 114.168 172.683 115.23C173.558 116.293 174.61 117.126 175.839 117.73C177.089 118.335 178.506 118.637 180.089 118.637C182.131 118.637 183.86 118.22 185.276 117.387C186.693 116.553 187.933 115.439 188.995 114.043L192.495 116.824C191.766 117.928 190.839 118.98 189.714 119.98C188.589 120.98 187.203 121.793 185.558 122.418C183.933 123.043 182.006 123.355 179.776 123.355ZM219.62 116.949V99.543C219.62 98.2096 219.349 97.0534 218.808 96.0742C218.287 95.0742 217.495 94.3034 216.433 93.7617C215.37 93.2201 214.058 92.9492 212.495 92.9492C211.037 92.9492 209.756 93.1992 208.651 93.6992C207.568 94.1992 206.714 94.8555 206.089 95.668C205.485 96.4805 205.183 97.3555 205.183 98.293H199.401C199.401 97.0846 199.714 95.8867 200.339 94.6992C200.964 93.5117 201.86 92.4388 203.026 91.4805C204.214 90.5013 205.631 89.7305 207.276 89.168C208.943 88.5846 210.797 88.293 212.839 88.293C215.297 88.293 217.464 88.7096 219.339 89.543C221.235 90.3763 222.714 91.6367 223.776 93.3242C224.86 94.9909 225.401 97.0846 225.401 99.6055V115.355C225.401 116.48 225.495 117.678 225.683 118.949C225.891 120.22 226.193 121.314 226.589 122.23V122.73H220.558C220.266 122.064 220.037 121.178 219.87 120.074C219.703 118.949 219.62 117.908 219.62 116.949ZM220.62 102.23L220.683 106.293H214.839C213.193 106.293 211.724 106.428 210.433 106.699C209.141 106.949 208.058 107.335 207.183 107.855C206.308 108.376 205.641 109.033 205.183 109.824C204.724 110.595 204.495 111.501 204.495 112.543C204.495 113.605 204.735 114.574 205.214 115.449C205.693 116.324 206.412 117.022 207.37 117.543C208.349 118.043 209.547 118.293 210.964 118.293C212.735 118.293 214.297 117.918 215.651 117.168C217.006 116.418 218.078 115.501 218.87 114.418C219.683 113.335 220.12 112.283 220.183 111.262L222.651 114.043C222.506 114.918 222.11 115.887 221.464 116.949C220.818 118.012 219.953 119.033 218.87 120.012C217.808 120.97 216.537 121.772 215.058 122.418C213.599 123.043 211.953 123.355 210.12 123.355C207.828 123.355 205.818 122.908 204.089 122.012C202.381 121.116 201.047 119.918 200.089 118.418C199.151 116.897 198.683 115.199 198.683 113.324C198.683 111.512 199.037 109.918 199.745 108.543C200.453 107.147 201.474 105.991 202.808 105.074C204.141 104.137 205.745 103.428 207.62 102.949C209.495 102.47 211.589 102.23 213.901 102.23H220.62ZM240.776 74.7305V122.73H234.964V74.7305H240.776ZM271.714 96.1367V122.73H265.933V88.918H271.401L271.714 96.1367ZM270.339 104.543L267.933 104.449C267.953 102.137 268.297 100.001 268.964 98.043C269.631 96.0638 270.568 94.3451 271.776 92.8867C272.985 91.4284 274.422 90.3034 276.089 89.5117C277.776 88.6992 279.641 88.293 281.683 88.293C283.349 88.293 284.849 88.5221 286.183 88.9805C287.516 89.418 288.651 90.1263 289.589 91.1055C290.547 92.0846 291.276 93.3555 291.776 94.918C292.276 96.4596 292.526 98.3451 292.526 100.574V122.73H286.714V100.512C286.714 98.7409 286.453 97.3242 285.933 96.2617C285.412 95.1784 284.651 94.3971 283.651 93.918C282.651 93.418 281.422 93.168 279.964 93.168C278.526 93.168 277.214 93.4701 276.026 94.0742C274.86 94.6784 273.849 95.5117 272.995 96.5742C272.162 97.6367 271.506 98.8555 271.026 100.23C270.568 101.585 270.339 103.022 270.339 104.543ZM307.12 74.7305V122.73H301.308V74.7305H307.12ZM327.776 88.918L313.026 104.699L304.776 113.262L304.308 107.105L310.214 100.043L320.714 88.918H327.776ZM322.495 122.73L310.433 106.605L313.433 101.449L329.308 122.73H322.495Z" fill="#37817B"/>
<path d="M254.377 95.177C258.431 95.177 261.717 91.1012 261.717 86.0735C261.717 81.0458 258.431 76.97 254.377 76.97C250.323 76.97 247.037 81.0458 247.037 86.0735C247.037 91.1012 250.323 95.177 254.377 95.177Z" fill="#2C7BE5"/>
<path d="M90.5742 146.979C90.5742 146.979 90.5744 238.58 90.5742 279.981C90.574 321.383 150.062 314.893 150.062 276.512C150.062 238.132 150.062 237.746 150.062 207.06C150.062 176.373 206.127 166.74 206.127 207.06C206.127 247.379 206.127 203.142 206.127 229.349C206.127 255.555 254.377 256.269 254.377 211.318C254.377 166.366 254.377 166.878 254.377 99.9475" stroke="#2C7BE5" stroke-width="10"/>
<path d="M54.2131 11.3753L63.0999 23.6408C64.1976 25.1559 63.8542 27.2669 62.3329 28.356C60.8114 29.4452 58.6884 29.0998 57.5906 27.5846L48.7039 15.3192C47.6062 13.804 47.9495 11.693 49.4709 10.6039C50.9922 9.51496 53.1154 9.86032 54.2131 11.3753Z" fill="#2C7BE5" stroke="#2C7BE5" stroke-width="12"/>
<path d="M134.626 14.9947L126.533 27.7763C125.532 29.3584 123.432 29.8355 121.844 28.8423C120.257 27.8491 119.782 25.7617 120.784 24.1795L128.876 11.3979C129.878 9.81562 131.977 9.33754 133.565 10.3305C135.152 11.3237 135.628 13.4123 134.626 14.9947Z" fill="#2C7BE5" stroke="#2C7BE5" stroke-width="12"/>
<path d="M50.4892 21.1147C50.4892 21.1147 14.9909 28.2009 20.2962 51.1565C25.6015 74.112 37.0715 143.028 83.5557 147.657C89.6981 148.269 93.2289 148.276 99.3704 147.657C145.588 142.999 154.029 75.9774 161.349 51.1565C168.669 26.3355 130.688 21.1147 130.688 21.1147" stroke="#2C7BE5" stroke-width="12"/>
<rect x="35.0469" y="90.9346" width="111.056" height="8.48928" fill="#2C7BE5"/>
<rect x="35.0469" y="90.9346" width="111.056" height="8.48928" stroke="#2C7BE5" stroke-width="1.5"/>
</g>
<path d="M23.1959 37.8435C23.1959 39.2569 22.8625 40.5902 22.1959 41.8435C21.5292 43.0969 20.4625 44.1235 18.9959 44.9235C17.5292 45.6969 15.6492 46.0835 13.3559 46.0835H8.31586V57.3635H3.75586V29.5635H13.3559C15.4892 29.5635 17.2892 29.9369 18.7559 30.6835C20.2492 31.4035 21.3559 32.3902 22.0759 33.6435C22.8225 34.8969 23.1959 36.2969 23.1959 37.8435ZM13.3559 42.3635C15.0892 42.3635 16.3825 41.9769 17.2359 41.2035C18.0892 40.4035 18.5159 39.2835 18.5159 37.8435C18.5159 34.8035 16.7959 33.2835 13.3559 33.2835H8.31586V42.3635H13.3559Z" fill="#2C7BE5"/>
<path d="M25.5159 57.4835L34.1559 71.3635H29.0359L22.7559 61.2835L16.8759 71.3635H11.7959L20.4359 57.4835L11.7559 43.5635H16.8759L23.1959 53.7235L29.1159 43.5635H34.1959L25.5159 57.4835Z" fill="#2C7BE5"/>
</svg>
