<svg width="24" height="24" viewBox="0 0 24 24" fill="none" xmlns="http://www.w3.org/2000/svg">
<path d="M20.8426 17.1447C20.5099 17.9133 20.1161 18.6208 19.6598 19.2713C19.0378 20.158 18.5286 20.7719 18.1361 21.1127C17.5277 21.6722 16.8759 21.9587 16.1779 21.975C15.6768 21.975 15.0725 21.8324 14.3691 21.5432C13.6633 21.2553 13.0148 21.1127 12.4217 21.1127C11.7998 21.1127 11.1327 21.2553 10.4193 21.5432C9.70469 21.8324 9.12904 21.9832 8.68892 21.9981C8.01957 22.0266 7.35239 21.7319 6.68644 21.1127C6.26139 20.742 5.72974 20.1064 5.09285 19.2061C4.40951 18.2446 3.84772 17.1297 3.4076 15.8587C2.93624 14.4857 2.69995 13.1563 2.69995 11.8692C2.69995 10.3948 3.01853 9.12321 3.65665 8.0576C4.15815 7.20166 4.82533 6.52647 5.66035 6.03081C6.49537 5.53514 7.39761 5.28256 8.36925 5.2664C8.9009 5.2664 9.59809 5.43085 10.4645 5.75405C11.3284 6.07834 11.8832 6.24279 12.1264 6.24279C12.3082 6.24279 12.9245 6.0505 13.9692 5.66714C14.9571 5.31162 15.7909 5.16441 16.474 5.2224C18.3249 5.37178 19.7155 6.10142 20.6402 7.41595C18.9849 8.41896 18.166 9.82379 18.1823 11.626C18.1972 13.0297 18.7065 14.1979 19.7073 15.1254C20.1609 15.5558 20.6674 15.8885 21.231 16.1248C21.1087 16.4793 20.9797 16.8188 20.8426 17.1447ZM16.5975 0.440125C16.5975 1.54038 16.1956 2.56768 15.3944 3.51854C14.4275 4.64892 13.258 5.30211 11.9898 5.19904C11.9736 5.06705 11.9642 4.92812 11.9642 4.78214C11.9642 3.7259 12.424 2.59552 13.2406 1.67127C13.6483 1.20331 14.1667 0.814209 14.7955 0.503814C15.4229 0.19805 16.0163 0.0289566 16.5744 0C16.5907 0.147086 16.5975 0.294182 16.5975 0.440111V0.440125Z" fill="black"/>
</svg>
