<svg width="24" height="24" viewBox="0 0 24 24" fill="none" xmlns="http://www.w3.org/2000/svg">
<g clip-path="url(#clip0_207_4493)">
<path d="M21.3333 4H2.66665C2.31302 4 1.97389 4.14048 1.72384 4.39052C1.47379 4.64057 1.33331 4.97971 1.33331 5.33333V18.6667C1.33331 19.0203 1.47379 19.3594 1.72384 19.6095C1.97389 19.8595 2.31302 20 2.66665 20H12.6666L13.0466 19.5333L13.6666 18.7733L13.6066 18.6667H2.66665V5.33333H21.3333V11.04C21.8399 11.3678 22.2901 11.7752 22.6666 12.2467V5.33333C22.6666 4.97971 22.5262 4.64057 22.2761 4.39052C22.0261 4.14048 21.6869 4 21.3333 4Z" fill="#6D6B6B"/>
<path d="M4.66669 8H16V9.06667H4.66669V8Z" fill="#6D6B6B"/>
<path d="M4.66669 10.6667H12V11.7334H4.66669V10.6667Z" fill="#6D6B6B"/>
<path d="M4.66669 15.3333H11.3334V16.3999H4.66669V15.3333Z" fill="#6D6B6B"/>
<path d="M18.3067 11.4867C17.4536 11.4799 16.6183 11.7307 15.9099 12.2062C15.2016 12.6816 14.6531 13.3598 14.3363 14.1519C14.0194 14.944 13.9489 15.8133 14.1339 16.6461C14.319 17.4789 14.7509 18.2366 15.3734 18.82L14.08 20.4L14.68 22.8067L17.12 19.8334C17.8924 20.0617 18.7143 20.0617 19.4867 19.8334L21.9267 22.8067L22.5267 20.4L21.2334 18.82C21.8558 18.2366 22.2878 17.4789 22.4728 16.6461C22.6578 15.8133 22.5873 14.944 22.2704 14.1519C21.9536 13.3598 21.4051 12.6816 20.6968 12.2062C19.9884 11.7307 19.1531 11.4799 18.3 11.4867H18.3067ZM18.3067 18.6067C17.7402 18.5988 17.1886 18.4236 16.7214 18.1031C16.2542 17.7827 15.8921 17.3312 15.6808 16.8055C15.4694 16.2798 15.4182 15.7034 15.5335 15.1487C15.6489 14.594 15.9256 14.0858 16.329 13.6879C16.7324 13.2901 17.2444 13.0203 17.8007 12.9127C18.3569 12.805 18.9326 12.8642 19.4553 13.0828C19.978 13.3014 20.4244 13.6697 20.7384 14.1413C21.0524 14.6129 21.22 15.1668 21.22 15.7334C21.213 16.5002 20.9025 17.233 20.3565 17.7715C19.8106 18.31 19.0735 18.6103 18.3067 18.6067Z" fill="#6D6B6B"/>
</g>
<defs>
<clipPath id="clip0_207_4493">
<rect width="24" height="24" fill="white"/>
</clipPath>
</defs>
</svg>
