<svg width="21" height="21" viewBox="0 0 21 21" fill="none" xmlns="http://www.w3.org/2000/svg">
<path d="M12.9349 19.4587H7.9349C3.4099 19.4587 1.47656 17.5253 1.47656 13.0003V8.00033C1.47656 3.47533 3.4099 1.54199 7.9349 1.54199H12.1016C12.4432 1.54199 12.7266 1.82533 12.7266 2.16699C12.7266 2.50866 12.4432 2.79199 12.1016 2.79199H7.9349C4.09323 2.79199 2.72656 4.15866 2.72656 8.00033V13.0003C2.72656 16.842 4.09323 18.2087 7.9349 18.2087H12.9349C16.7766 18.2087 18.1432 16.842 18.1432 13.0003V8.83366C18.1432 8.49199 18.4266 8.20866 18.7682 8.20866C19.1099 8.20866 19.3932 8.49199 19.3932 8.83366V13.0003C19.3932 17.5253 17.4599 19.4587 12.9349 19.4587Z" fill="#1C1F23"/>
<path d="M18.7682 9.45865H15.4349C12.5849 9.45865 11.4766 8.35032 11.4766 5.50032V2.16698C11.4766 1.91698 11.6266 1.68365 11.8599 1.59198C12.0932 1.49198 12.3599 1.55032 12.5432 1.72532L19.2099 8.39198C19.3849 8.56698 19.4432 8.84198 19.3432 9.07532C19.2432 9.30865 19.0182 9.45865 18.7682 9.45865ZM12.7266 3.67532V5.50032C12.7266 7.65032 13.2849 8.20865 15.4349 8.20865H17.2599L12.7266 3.67532Z" fill="#1C1F23"/>
<path d="M11.2681 11.9585H6.26807C5.9264 11.9585 5.64307 11.6752 5.64307 11.3335C5.64307 10.9918 5.9264 10.7085 6.26807 10.7085H11.2681C11.6097 10.7085 11.8931 10.9918 11.8931 11.3335C11.8931 11.6752 11.6097 11.9585 11.2681 11.9585Z" fill="#1C1F23"/>
<path d="M9.6014 15.292H6.26807C5.9264 15.292 5.64307 15.0087 5.64307 14.667C5.64307 14.3253 5.9264 14.042 6.26807 14.042H9.6014C9.94307 14.042 10.2264 14.3253 10.2264 14.667C10.2264 15.0087 9.94307 15.292 9.6014 15.292Z" fill="#1C1F23"/>
</svg>
