<svg width="24" height="24" viewBox="0 0 24 24" fill="none" xmlns="http://www.w3.org/2000/svg">
<path d="M14.53 9.47017L9.47001 14.5302C8.82001 13.8802 8.42001 12.9902 8.42001 12.0002C8.42001 10.0202 10.02 8.42017 12 8.42017C12.99 8.42017 13.88 8.82017 14.53 9.47017Z" stroke="#6D6B6B" stroke-width="1.5" stroke-linecap="round" stroke-linejoin="round"/>
<path d="M17.82 5.77022C16.07 4.45022 14.07 3.73022 12 3.73022C8.47 3.73022 5.18 5.81022 2.89 9.41022C1.99 10.8202 1.99 13.1902 2.89 14.6002C3.68 15.8402 4.6 16.9102 5.6 17.7702" stroke="#6D6B6B" stroke-width="1.5" stroke-linecap="round" stroke-linejoin="round"/>
<path d="M8.42001 19.5302C9.56001 20.0102 10.77 20.2702 12 20.2702C15.53 20.2702 18.82 18.1902 21.11 14.5902C22.01 13.1802 22.01 10.8102 21.11 9.40018C20.78 8.88018 20.42 8.39018 20.05 7.93018" stroke="#6D6B6B" stroke-width="1.5" stroke-linecap="round" stroke-linejoin="round"/>
<path d="M15.51 12.7002C15.25 14.1102 14.1 15.2602 12.69 15.5202" stroke="#6D6B6B" stroke-width="1.5" stroke-linecap="round" stroke-linejoin="round"/>
<path d="M9.47 14.5303L2 22.0003" stroke="#6D6B6B" stroke-width="1.5" stroke-linecap="round" stroke-linejoin="round"/>
<path d="M22 2.00024L14.53 9.47024" stroke="#6D6B6B" stroke-width="1.5" stroke-linecap="round" stroke-linejoin="round"/>
</svg>
