<svg width="24" height="25" viewBox="0 0 24 25" fill="none" xmlns="http://www.w3.org/2000/svg">
<path d="M6.5 22.5V15.5" stroke="#B3B3B3" stroke-width="1.5" stroke-miterlimit="10" stroke-linecap="round" stroke-linejoin="round"/>
<path d="M6.5 5.5V2.5" stroke="#B3B3B3" stroke-width="1.5" stroke-miterlimit="10" stroke-linecap="round" stroke-linejoin="round"/>
<path d="M17.5 22.5V19.5" stroke="#B3B3B3" stroke-width="1.5" stroke-miterlimit="10" stroke-linecap="round" stroke-linejoin="round"/>
<path d="M17.5 9.5V2.5" stroke="#B3B3B3" stroke-width="1.5" stroke-miterlimit="10" stroke-linecap="round" stroke-linejoin="round"/>
<path d="M9.5 7.5V13.5C9.5 14.6 9 15.5 7.5 15.5H5.5C4 15.5 3.5 14.6 3.5 13.5V7.5C3.5 6.4 4 5.5 5.5 5.5H7.5C9 5.5 9.5 6.4 9.5 7.5Z" stroke="#B3B3B3" stroke-width="1.5" stroke-miterlimit="10" stroke-linecap="round" stroke-linejoin="round"/>
<path d="M20.5 11.5V17.5C20.5 18.6 20 19.5 18.5 19.5H16.5C15 19.5 14.5 18.6 14.5 17.5V11.5C14.5 10.4 15 9.5 16.5 9.5H18.5C20 9.5 20.5 10.4 20.5 11.5Z" stroke="#B3B3B3" stroke-width="1.5" stroke-miterlimit="10" stroke-linecap="round" stroke-linejoin="round"/>
</svg>
