<svg width="82" height="93" viewBox="0 0 82 93" fill="none" xmlns="http://www.w3.org/2000/svg">
<path d="M66.8748 34.4937C66.8748 32.329 65.1029 30.5679 62.9247 30.5679C60.7466 30.5679 58.9747 32.329 58.9747 34.4937C58.9747 36.0896 59.9383 37.4651 61.3171 38.0783V53.3352C61.3171 55.3191 59.6956 56.9332 57.7023 56.9332C55.7091 56.9332 54.0876 55.3191 54.0876 53.3352V48.2757C54.0876 44.356 50.8905 41.1669 46.9606 41.1669C43.0308 41.1669 39.8337 44.356 39.8337 48.2757V54.6591C39.8337 56.9343 37.9745 58.7853 35.6891 58.7853C33.4037 58.7853 31.5445 56.9343 31.5445 54.6591V32.7392C36.5644 32.1237 40.8736 28.5068 42.3291 23.6652L45.8347 12.0034C47.2634 7.25069 43.8788 2.23796 38.9513 1.73746C38.4245 0.707303 37.3529 0 36.1183 0H34.4555C32.7018 0 31.2752 1.4264 31.2752 3.17949V3.23539C31.2752 4.98848 32.7018 6.41488 34.4555 6.41488H36.1183C37.2386 6.41488 38.2246 5.83224 38.7913 4.95483C41.6663 5.35002 43.594 8.28919 42.7556 11.0781L39.25 22.74C38.0317 26.7926 34.202 29.623 29.9369 29.623C25.6717 29.623 21.842 26.7926 20.6239 22.74L17.1182 11.0781C16.286 8.30959 18.1801 5.38579 21.0294 4.96252C21.5863 5.88682 22.5998 6.50656 23.7556 6.50656H25.4184C27.172 6.50656 28.5987 5.08016 28.5987 3.32707V3.27116C28.5987 1.51807 27.172 0.0916752 25.4184 0.0916752H23.7556C22.5601 0.0916752 21.5171 0.754863 20.9739 1.73229C16.0224 2.20405 12.6046 7.23121 14.0392 12.0034L17.5448 23.6652C19.0002 28.5066 23.3094 32.1236 28.3294 32.7392V54.659C28.3294 58.7067 31.631 62 35.6892 62C39.7474 62 43.0489 58.7068 43.0489 54.659V48.2756C43.0489 46.1284 44.8038 44.3817 46.9606 44.3817C49.1175 44.3817 50.8723 46.1285 50.8723 48.2756V53.3351C50.8723 57.0917 53.9363 60.1478 57.7023 60.1478C61.4684 60.1478 64.5322 57.0917 64.5322 53.3351V38.0785C65.9112 37.4652 66.8748 36.0896 66.8748 34.4937ZM37.9736 3.23539C37.9736 4.25813 37.1413 5.09009 36.1183 5.09009H34.4555C33.4325 5.09009 32.6002 4.25813 32.6002 3.23539V3.17949C32.6002 2.15675 33.4325 1.32479 34.4555 1.32479H36.1183C37.1413 1.32479 37.9736 2.15675 37.9736 3.17949V3.23539ZM21.9003 3.27103C21.9003 2.2483 22.7326 1.41633 23.7556 1.41633H25.4184C26.4414 1.41633 27.2737 2.2483 27.2737 3.27103V3.32694C27.2737 4.34967 26.4414 5.18164 25.4184 5.18164H23.7556C22.7326 5.18164 21.9003 4.34967 21.9003 3.32694V3.27103ZM62.9247 37.0948C61.4773 37.0948 60.2998 35.9279 60.2998 34.4937C60.2998 33.0595 61.4773 31.8926 62.9247 31.8926C64.3722 31.8926 65.5498 33.0595 65.5498 34.4937C65.5498 35.9279 64.372 37.0948 62.9247 37.0948Z" fill="#2C7BE5"/>
<path d="M57.4745 13.8323C57.9606 13.8323 58.3547 13.4378 58.3547 12.9512C58.3547 12.4646 57.9606 12.0701 57.4745 12.0701C56.9884 12.0701 56.5943 12.4646 56.5943 12.9512C56.5943 13.4378 56.9884 13.8323 57.4745 13.8323Z" fill="#6FE7DD"/>
<path d="M66.0119 21.4246C64.5415 20.1866 62.6078 19.6648 60.7056 19.9928C59.7077 20.165 58.9835 21.0191 58.9835 22.0237V22.5062L58.1371 21.7574V15.6103C58.137 15.4346 58.0672 15.266 57.9429 15.1418C57.8187 15.0176 57.6501 14.9478 57.4744 14.9478C57.3874 14.9477 57.3012 14.9649 57.2208 14.9981C57.1404 15.0314 57.0674 15.0802 57.0059 15.1418C56.9443 15.2033 56.8955 15.2763 56.8622 15.3567C56.8289 15.4371 56.8118 15.5233 56.8118 15.6103V21.7573L55.9655 22.5061V22.0237C55.9655 21.0191 55.2414 20.165 54.2434 19.9928C50.3786 19.3256 46.6586 22.3556 46.6586 26.3036V31.7034C46.6586 32.9716 47.8481 33.9488 49.0926 33.7343C52.6558 33.1199 55.9655 31.2891 55.9655 27.1631V24.2753L57.4744 22.9403L58.9835 24.2754V26.0541C58.9835 26.2298 59.0534 26.3983 59.1776 26.5226C59.3019 26.6468 59.4704 26.7166 59.6461 26.7166C59.7332 26.7166 59.8193 26.6995 59.8997 26.6662C59.9801 26.6329 60.0532 26.5841 60.1147 26.5226C60.1762 26.4611 60.2251 26.3881 60.2584 26.3077C60.2917 26.2273 60.3088 26.1411 60.3088 26.0541V25.448L62.4108 27.3076C62.6701 27.5369 63.0691 27.5524 63.3222 27.3164C63.39 27.2535 63.4439 27.1771 63.4804 27.0921C63.5169 27.0071 63.5352 26.9155 63.5341 26.823C63.5331 26.7305 63.5126 26.6393 63.4741 26.5552C63.4356 26.4711 63.3799 26.396 63.3106 26.3347L60.3087 23.6789V22.0238C60.3087 21.6657 60.5703 21.3605 60.9307 21.2982C64.002 20.769 66.9648 23.1628 66.9648 26.3036V30.9558C66.9648 31.1315 67.0347 31.3001 67.1589 31.4243C67.2832 31.5485 67.4517 31.6183 67.6275 31.6183C67.7145 31.6184 67.8006 31.6012 67.881 31.5679C67.9614 31.5347 68.0345 31.4859 68.096 31.4243C68.1576 31.3628 68.2064 31.2898 68.2397 31.2094C68.273 31.129 68.2901 31.0428 68.2901 30.9558V26.3036C68.2905 24.422 67.46 22.6437 66.0119 21.4246ZM54.64 23.6786L51.6379 26.3346C51.0108 26.8895 51.8889 27.8814 52.5165 27.3266L54.64 25.4479V27.1629C54.64 30.6258 51.7863 31.9253 48.8673 32.4287C48.4202 32.505 47.984 32.1635 47.984 31.7031V26.3033C47.984 23.1642 50.9479 20.7687 54.0181 21.298C54.3785 21.3602 54.6402 21.6653 54.6402 22.0236V23.6786H54.64Z" fill="#37817B"/>
<path d="M6.12 86.14C5.82667 86.14 5.6 86.06 5.44 85.9C5.28 85.7267 5.2 85.4867 5.2 85.18V72.72C5.2 72.4 5.28 72.16 5.44 72C5.6 71.84 5.82667 71.76 6.12 71.76C6.42667 71.76 6.66 71.84 6.82 72C6.98 72.16 7.06 72.4 7.06 72.72V78.06H15.22V72.72C15.22 72.4 15.3 72.16 15.46 72C15.62 71.84 15.8533 71.76 16.16 71.76C16.4533 71.76 16.68 71.84 16.84 72C17 72.16 17.08 72.4 17.08 72.72V85.18C17.08 85.4867 17 85.7267 16.84 85.9C16.68 86.06 16.4533 86.14 16.16 86.14C15.8533 86.14 15.62 86.06 15.46 85.9C15.3 85.7267 15.22 85.4867 15.22 85.18V79.64H7.06V85.18C7.06 85.4867 6.98 85.7267 6.82 85.9C6.67333 86.06 6.44 86.14 6.12 86.14ZM24.7334 86.18C23.6801 86.18 22.7734 85.98 22.0134 85.58C21.2668 85.1667 20.6868 84.5867 20.2734 83.84C19.8601 83.08 19.6534 82.1867 19.6534 81.16C19.6534 80.1467 19.8534 79.26 20.2534 78.5C20.6668 77.74 21.2268 77.1467 21.9334 76.72C22.6534 76.2933 23.4734 76.08 24.3934 76.08C25.0468 76.08 25.6334 76.1933 26.1534 76.42C26.6868 76.6333 27.1401 76.9467 27.5134 77.36C27.8868 77.7733 28.1668 78.28 28.3534 78.88C28.5534 79.4667 28.6534 80.1333 28.6534 80.88C28.6534 81.0933 28.5868 81.26 28.4534 81.38C28.3334 81.4867 28.1534 81.54 27.9134 81.54H21.0734V80.38H27.4534L27.1134 80.66C27.1134 79.9667 27.0068 79.38 26.7934 78.9C26.5934 78.4067 26.2934 78.0333 25.8934 77.78C25.5068 77.5267 25.0201 77.4 24.4334 77.4C23.7934 77.4 23.2468 77.5533 22.7934 77.86C22.3401 78.1533 21.9934 78.5733 21.7534 79.12C21.5134 79.6533 21.3934 80.2733 21.3934 80.98V81.1C21.3934 82.3 21.6801 83.2067 22.2534 83.82C22.8268 84.4333 23.6534 84.74 24.7334 84.74C25.1601 84.74 25.5934 84.6867 26.0334 84.58C26.4868 84.4733 26.9201 84.28 27.3334 84C27.5334 83.88 27.7134 83.8267 27.8734 83.84C28.0468 83.84 28.1868 83.8933 28.2934 84C28.4001 84.0933 28.4668 84.2133 28.4934 84.36C28.5201 84.4933 28.5001 84.64 28.4334 84.8C28.3668 84.96 28.2401 85.1 28.0534 85.22C27.6134 85.5267 27.0868 85.7667 26.4734 85.94C25.8734 86.1 25.2934 86.18 24.7334 86.18ZM34.017 86.18C33.3504 86.18 32.7437 86.0467 32.197 85.78C31.6637 85.5133 31.2437 85.1533 30.937 84.7C30.6437 84.2467 30.497 83.74 30.497 83.18C30.497 82.46 30.677 81.8933 31.037 81.48C31.397 81.0667 32.0037 80.7733 32.857 80.6C33.7104 80.4133 34.857 80.32 36.297 80.32H37.237V81.48H36.337C35.3104 81.48 34.497 81.5267 33.897 81.62C33.3104 81.7133 32.897 81.88 32.657 82.12C32.417 82.3467 32.297 82.6667 32.297 83.08C32.297 83.6 32.477 84.0267 32.837 84.36C33.2104 84.6933 33.717 84.86 34.357 84.86C34.8637 84.86 35.3104 84.74 35.697 84.5C36.0837 84.2467 36.3904 83.9133 36.617 83.5C36.8437 83.0733 36.957 82.5867 36.957 82.04V79.74C36.957 78.9533 36.797 78.3867 36.477 78.04C36.157 77.68 35.617 77.5 34.857 77.5C34.417 77.5 33.9637 77.56 33.497 77.68C33.0304 77.8 32.5437 77.9867 32.037 78.24C31.837 78.3333 31.6637 78.3667 31.517 78.34C31.3704 78.3 31.2504 78.22 31.157 78.1C31.077 77.9667 31.0304 77.8267 31.017 77.68C31.017 77.52 31.0504 77.3667 31.117 77.22C31.197 77.0733 31.3304 76.9667 31.517 76.9C32.1037 76.6067 32.6837 76.4 33.257 76.28C33.8437 76.1467 34.3904 76.08 34.897 76.08C35.7637 76.08 36.477 76.22 37.037 76.5C37.597 76.7667 38.017 77.1867 38.297 77.76C38.577 78.32 38.717 79.04 38.717 79.92V85.2C38.717 85.5067 38.6437 85.74 38.497 85.9C38.3504 86.06 38.137 86.14 37.857 86.14C37.5904 86.14 37.377 86.06 37.217 85.9C37.0704 85.74 36.997 85.5067 36.997 85.2V83.78H37.177C37.0704 84.2733 36.8704 84.7 36.577 85.06C36.2837 85.42 35.917 85.7 35.477 85.9C35.0504 86.0867 34.5637 86.18 34.017 86.18ZM44.6411 86.18C43.6411 86.18 42.8811 85.8867 42.3611 85.3C41.8411 84.7 41.5811 83.84 41.5811 82.72V72.68C41.5811 72.3733 41.6611 72.1467 41.8211 72C41.9811 71.84 42.2011 71.76 42.4811 71.76C42.7744 71.76 43.0011 71.84 43.1611 72C43.3211 72.1467 43.4011 72.3733 43.4011 72.68V82.58C43.4011 83.2733 43.5411 83.7933 43.8211 84.14C44.1144 84.4733 44.5278 84.64 45.0611 84.64C45.1811 84.64 45.2878 84.64 45.3811 84.64C45.4744 84.6267 45.5678 84.6133 45.6611 84.6C45.8078 84.5867 45.9144 84.6267 45.9811 84.72C46.0478 84.8133 46.0811 85 46.0811 85.28C46.0811 85.5333 46.0211 85.7333 45.9011 85.88C45.7944 86.0133 45.6144 86.1 45.3611 86.14C45.2411 86.1533 45.1211 86.16 45.0011 86.16C44.8811 86.1733 44.7611 86.18 44.6411 86.18ZM50.6567 86.18C49.6567 86.18 48.8967 85.8867 48.3767 85.3C47.8567 84.7 47.5967 83.84 47.5967 82.72V72.68C47.5967 72.3733 47.6767 72.1467 47.8367 72C47.9967 71.84 48.2167 71.76 48.4967 71.76C48.7901 71.76 49.0167 71.84 49.1767 72C49.3367 72.1467 49.4167 72.3733 49.4167 72.68V82.58C49.4167 83.2733 49.5567 83.7933 49.8367 84.14C50.1301 84.4733 50.5434 84.64 51.0767 84.64C51.1967 84.64 51.3034 84.64 51.3967 84.64C51.4901 84.6267 51.5834 84.6133 51.6767 84.6C51.8234 84.5867 51.9301 84.6267 51.9967 84.72C52.0634 84.8133 52.0967 85 52.0967 85.28C52.0967 85.5333 52.0367 85.7333 51.9167 85.88C51.8101 86.0133 51.6301 86.1 51.3767 86.14C51.2567 86.1533 51.1367 86.16 51.0167 86.16C50.8967 86.1733 50.7767 86.18 50.6567 86.18ZM54.5123 86.1C54.2323 86.1 54.0123 86.0133 53.8523 85.84C53.6923 85.6667 53.6123 85.4267 53.6123 85.12V77.14C53.6123 76.82 53.6923 76.58 53.8523 76.42C54.0123 76.2467 54.2323 76.16 54.5123 76.16C54.8057 76.16 55.0323 76.2467 55.1923 76.42C55.3523 76.58 55.4323 76.82 55.4323 77.14V85.12C55.4323 85.4267 55.3523 85.6667 55.1923 85.84C55.0457 86.0133 54.819 86.1 54.5123 86.1ZM54.5123 74C54.1523 74 53.8657 73.9067 53.6523 73.72C53.4523 73.52 53.3523 73.26 53.3523 72.94C53.3523 72.5933 53.4523 72.3333 53.6523 72.16C53.8657 71.9733 54.1523 71.88 54.5123 71.88C54.899 71.88 55.1857 71.9733 55.3723 72.16C55.5723 72.3333 55.6723 72.5933 55.6723 72.94C55.6723 73.26 55.5723 73.52 55.3723 73.72C55.1857 73.9067 54.899 74 54.5123 74ZM59.2584 86.14C58.9784 86.14 58.7584 86.06 58.5984 85.9C58.4384 85.74 58.3584 85.5067 58.3584 85.2V77.04C58.3584 76.7333 58.4384 76.5067 58.5984 76.36C58.7584 76.2 58.9784 76.12 59.2584 76.12C59.5384 76.12 59.7518 76.2 59.8984 76.36C60.0584 76.5067 60.1384 76.7333 60.1384 77.04V78.68L59.9184 78.38C60.1984 77.62 60.6518 77.0467 61.2784 76.66C61.9184 76.2733 62.6451 76.08 63.4584 76.08C64.2451 76.08 64.8918 76.22 65.3984 76.5C65.9051 76.78 66.2851 77.2067 66.5384 77.78C66.7918 78.3533 66.9184 79.08 66.9184 79.96V85.2C66.9184 85.5067 66.8384 85.74 66.6784 85.9C66.5318 86.06 66.3118 86.14 66.0184 86.14C65.7251 86.14 65.4984 86.06 65.3384 85.9C65.1784 85.74 65.0984 85.5067 65.0984 85.2V80.06C65.0984 79.1933 64.9318 78.56 64.5984 78.16C64.2651 77.76 63.7318 77.56 62.9984 77.56C62.1451 77.56 61.4584 77.8267 60.9384 78.36C60.4318 78.88 60.1784 79.5867 60.1784 80.48V85.2C60.1784 85.8267 59.8718 86.14 59.2584 86.14ZM70.7038 86.14C70.4238 86.14 70.2038 86.06 70.0438 85.9C69.8838 85.74 69.8038 85.5067 69.8038 85.2V72.68C69.8038 72.3733 69.8838 72.1467 70.0438 72C70.2038 71.84 70.4238 71.76 70.7038 71.76C70.9971 71.76 71.2238 71.84 71.3838 72C71.5438 72.1467 71.6238 72.3733 71.6238 72.68V80.56H71.6638L75.5838 76.74C75.7838 76.54 75.9638 76.3867 76.1238 76.28C76.2838 76.1733 76.4904 76.12 76.7438 76.12C76.9971 76.12 77.1904 76.1867 77.3238 76.32C77.4571 76.44 77.5238 76.6 77.5238 76.8C77.5238 76.9867 77.4304 77.1733 77.2438 77.36L73.0838 81.4V80.5L77.6238 84.88C77.8104 85.0667 77.8971 85.26 77.8838 85.46C77.8838 85.66 77.8104 85.8267 77.6638 85.96C77.5304 86.08 77.3504 86.14 77.1238 86.14C76.8571 86.14 76.6371 86.0867 76.4638 85.98C76.3038 85.8733 76.1171 85.7067 75.9038 85.48L71.6638 81.48H71.6238V85.2C71.6238 85.8267 71.3171 86.14 70.7038 86.14Z" fill="#1C1F23"/>
</svg>
