<svg width="24" height="24" viewBox="0 0 24 24" fill="none" xmlns="http://www.w3.org/2000/svg">
<path d="M6.18 22.7499C6.08 22.7499 5.97 22.7399 5.88 22.7299L3.71 22.4299C2.67 22.2899 1.73 21.3599 1.57 20.2999L1.27 18.1099C1.17 17.4099 1.47 16.4999 1.97 15.9899L6.36 11.5999C5.65 8.75992 6.47 5.75992 8.56 3.68992C11.8 0.459923 17.07 0.449923 20.32 3.68992C21.89 5.25992 22.75 7.34992 22.75 9.56992C22.75 11.7899 21.89 13.8799 20.32 15.4499C18.22 17.5299 15.23 18.3499 12.41 17.6299L8.01 22.0199C7.59 22.4599 6.84 22.7499 6.18 22.7499ZM14.43 2.75992C12.68 2.75992 10.94 3.41992 9.61 4.74992C7.81 6.53992 7.16 9.15992 7.91 11.5999C7.99 11.8699 7.92 12.1499 7.72 12.3499L3.02 17.0499C2.85 17.2199 2.71 17.6599 2.74 17.8899L3.04 20.0799C3.1 20.4599 3.51 20.8899 3.89 20.9399L6.07 21.2399C6.31 21.2799 6.75 21.1399 6.92 20.9699L11.64 16.2599C11.84 16.0599 12.13 15.9999 12.39 16.0799C14.8 16.8399 17.43 16.1899 19.23 14.3899C20.51 13.1099 21.22 11.3899 21.22 9.56992C21.22 7.73992 20.51 6.02992 19.23 4.74992C17.93 3.42992 16.18 2.75992 14.43 2.75992Z" fill="#C4C4C4"/>
<path d="M9.19 20.5399C9 20.5399 8.81 20.4699 8.66 20.3199L6.36 18.0199C6.07 17.7299 6.07 17.2499 6.36 16.9599C6.65 16.6699 7.13 16.6699 7.42 16.9599L9.72 19.2599C10.01 19.5499 10.01 20.0299 9.72 20.3199C9.57 20.4699 9.38 20.5399 9.19 20.5399Z" fill="#C4C4C4"/>
<path d="M14.5 11.75C13.26 11.75 12.25 10.74 12.25 9.5C12.25 8.26 13.26 7.25 14.5 7.25C15.74 7.25 16.75 8.26 16.75 9.5C16.75 10.74 15.74 11.75 14.5 11.75ZM14.5 8.75C14.09 8.75 13.75 9.09 13.75 9.5C13.75 9.91 14.09 10.25 14.5 10.25C14.91 10.25 15.25 9.91 15.25 9.5C15.25 9.09 14.91 8.75 14.5 8.75Z" fill="#C4C4C4"/>
</svg>
