<svg width="32" height="33" viewBox="0 0 32 33" fill="none" xmlns="http://www.w3.org/2000/svg">
<path d="M11.3337 25.8334H10.667C5.33366 25.8334 2.66699 24.5 2.66699 17.8334V11.1667C2.66699 5.83335 5.33366 3.16669 10.667 3.16669H21.3337C26.667 3.16669 29.3337 5.83335 29.3337 11.1667V17.8334C29.3337 23.1667 26.667 25.8334 21.3337 25.8334H20.667C20.2537 25.8334 19.8537 26.0334 19.6003 26.3667L17.6003 29.0334C16.7203 30.2067 15.2803 30.2067 14.4003 29.0334L12.4003 26.3667C12.187 26.0734 11.6937 25.8334 11.3337 25.8334Z" stroke="#2C7BE5" stroke-width="1.5" stroke-miterlimit="10" stroke-linecap="round" stroke-linejoin="round"/>
<path d="M21.3283 15.1667H21.3403" stroke="#2C7BE5" stroke-width="2" stroke-linecap="round" stroke-linejoin="round"/>
<path d="M15.9943 15.1667H16.0063" stroke="#2C7BE5" stroke-width="2" stroke-linecap="round" stroke-linejoin="round"/>
<path d="M10.6593 15.1667H10.6713" stroke="#2C7BE5" stroke-width="2" stroke-linecap="round" stroke-linejoin="round"/>
</svg>
