<svg width="238" height="186" viewBox="0 0 238 186" fill="none" xmlns="http://www.w3.org/2000/svg">
<path d="M212.132 36.6606H219.569C220.834 36.6605 222.047 36.1599 222.941 35.2688C223.836 34.3777 224.338 33.1692 224.338 31.909V25.3004C224.338 24.0402 223.836 22.8317 222.941 21.9407C222.047 21.0496 220.834 20.549 219.569 20.549H23.6997C23.0734 20.549 22.4533 20.6719 21.8747 20.9107C21.2961 21.1494 20.7703 21.4994 20.3275 21.9406C19.8847 22.3818 19.5334 22.9056 19.2937 23.4821C19.054 24.0586 18.9307 24.6764 18.9307 25.3004V31.909C18.9307 33.1692 19.4331 34.3778 20.3275 35.2689C21.2218 36.16 22.4348 36.6606 23.6997 36.6606H30.936C31.5623 36.6606 32.1824 36.7835 32.761 37.0223C33.3396 37.2611 33.8654 37.6111 34.3082 38.0523C34.751 38.4935 35.1023 39.0173 35.342 39.5938C35.5816 40.1703 35.705 40.7882 35.705 41.4121V48.0206C35.705 48.6445 35.5816 49.2624 35.342 49.8389C35.1023 50.4154 34.751 50.9392 34.3082 51.3804C33.8654 51.8216 33.3396 52.1716 32.761 52.4104C32.1824 52.6492 31.5623 52.7721 30.936 52.7721H30.9185C29.6537 52.7721 28.4407 53.2728 27.5463 54.1639C26.652 55.055 26.1495 56.2635 26.1495 57.5237V64.1321C26.1495 65.3923 26.652 66.6009 27.5463 67.492C28.4407 68.3831 29.6537 68.8837 30.9185 68.8837H31.9655C33.2303 68.8837 34.4433 69.3843 35.3376 70.2754C36.232 71.1664 36.7344 72.3749 36.7344 73.6351V80.2437C36.7342 81.334 36.3578 82.391 35.6683 83.2376C34.9788 84.0842 34.0181 84.6688 32.9473 84.8934H23.6997C23.3697 84.8936 23.0407 84.9277 22.7178 84.9953H14.7832C13.5184 84.9953 12.3054 85.4958 11.411 86.3869C10.5167 87.278 10.0142 88.4865 10.0142 89.7467V96.3553C10.0142 97.6154 10.5166 98.824 11.411 99.7151C12.3053 100.606 13.5184 101.107 14.7832 101.107H31.9178C32.9886 101.331 33.9493 101.916 34.6389 102.763C35.3284 103.609 35.7048 104.666 35.705 105.756V112.365C35.705 112.989 35.5816 113.607 35.342 114.183C35.1023 114.76 34.751 115.284 34.3082 115.725C33.8654 116.166 33.3396 116.516 32.761 116.755C32.1824 116.994 31.5623 117.117 30.936 117.117H30.9185C30.2922 117.117 29.6721 117.239 29.0935 117.478C28.5149 117.717 27.9892 118.067 27.5464 118.508C27.1035 118.949 26.7522 119.473 26.5126 120.05C26.2729 120.626 26.1495 121.244 26.1495 121.868V128.477C26.1495 129.101 26.2729 129.718 26.5126 130.295C26.7522 130.871 27.1035 131.395 27.5464 131.836C27.9892 132.278 28.5149 132.628 29.0935 132.866C29.6721 133.105 30.2923 133.228 30.9185 133.228H31.9655C33.2303 133.228 34.4433 133.729 35.3377 134.62C36.232 135.511 36.7344 136.719 36.7344 137.98V144.588C36.7344 145.848 36.232 147.057 35.3377 147.948C34.4433 148.839 33.2303 149.34 31.9655 149.34H22.0755C21.4492 149.34 20.8291 149.463 20.2505 149.701C19.6719 149.94 19.1461 150.29 18.7033 150.731C18.2605 151.172 17.9092 151.696 17.6695 152.273C17.4298 152.849 17.3065 153.467 17.3065 154.091V160.7C17.3065 161.324 17.4298 161.942 17.6695 162.518C17.9092 163.094 18.2605 163.618 18.7033 164.059C19.1461 164.501 19.6719 164.851 20.2505 165.089C20.8291 165.328 21.4492 165.451 22.0755 165.451H209.474C210.101 165.451 210.721 165.328 211.299 165.089C211.878 164.851 212.404 164.501 212.846 164.059C213.289 163.618 213.641 163.094 213.88 162.518C214.12 161.942 214.243 161.324 214.243 160.7V154.091C214.243 153.467 214.12 152.849 213.88 152.273C213.641 151.696 213.289 151.172 212.846 150.731C212.404 150.29 211.878 149.94 211.299 149.701C210.721 149.463 210.101 149.34 209.474 149.34H205.339C204.075 149.34 202.861 148.839 201.967 147.948C201.073 147.057 200.57 145.848 200.57 144.588V137.98C200.57 136.719 201.073 135.511 201.967 134.62C202.861 133.729 204.075 133.228 205.339 133.228H215.089C215.715 133.228 216.336 133.105 216.914 132.866C217.493 132.628 218.018 132.278 218.461 131.836C218.904 131.395 219.255 130.871 219.495 130.295C219.735 129.718 219.858 129.101 219.858 128.477V121.868C219.858 121.244 219.735 120.626 219.495 120.05C219.255 119.473 218.904 118.949 218.461 118.508C218.018 118.067 217.493 117.717 216.914 117.478C216.336 117.239 215.715 117.117 215.089 117.117H212.132C210.867 117.117 209.654 116.616 208.759 115.725C207.865 114.834 207.363 113.625 207.363 112.365V105.756C207.363 104.496 207.865 103.288 208.759 102.397C209.654 101.505 210.867 101.005 212.132 101.005H223.215C223.842 101.005 224.462 100.882 225.04 100.643C225.619 100.404 226.145 100.054 226.587 99.6132C227.03 99.172 227.382 98.6482 227.621 98.0717C227.861 97.4953 227.984 96.8774 227.984 96.2534V89.6448C227.984 89.0209 227.861 88.403 227.621 87.8265C227.382 87.2501 227.03 86.7263 226.587 86.2851C226.145 85.8439 225.619 85.4939 225.04 85.2551C224.462 85.0163 223.842 84.8934 223.215 84.8934H206.383C205.118 84.8934 203.905 84.3928 203.01 83.5017C202.116 82.6106 201.613 81.4021 201.613 80.1419V73.5333C201.614 72.443 201.99 71.386 202.68 70.5394C203.369 69.6929 204.33 69.1083 205.401 68.8837H215.089C215.715 68.8837 216.336 68.7608 216.914 68.522C217.493 68.2832 218.018 67.9332 218.461 67.492C218.904 67.0508 219.255 66.527 219.495 65.9505C219.735 65.374 219.858 64.7561 219.858 64.1321V57.5237C219.858 56.8997 219.735 56.2819 219.495 55.7054C219.255 55.1289 218.904 54.6051 218.461 54.1639C218.018 53.7226 217.493 53.3726 216.914 53.1338C216.336 52.8951 215.715 52.7721 215.089 52.7721H212.132C210.867 52.7721 209.654 52.2715 208.759 51.3804C207.865 50.4893 207.363 49.2808 207.363 48.0206V41.4122C207.363 40.152 207.865 38.9434 208.759 38.0523C209.654 37.1612 210.867 36.6606 212.132 36.6606Z" fill="#E8F1FC"/>
<path d="M176.19 33.8242H94.217C93.0088 33.8242 92.0293 34.8001 92.0293 36.0039V158.303C92.0293 159.507 93.0088 160.483 94.217 160.483H176.19C177.398 160.483 178.378 159.507 178.378 158.303V36.0039C178.378 34.8001 177.398 33.8242 176.19 33.8242Z" fill="#37817B"/>
<path d="M150.395 127.33V145.689H103.413C102.909 145.689 102.424 145.489 102.067 145.134C101.71 144.778 101.51 144.296 101.51 143.793V41.0695C101.51 40.5665 101.71 40.0841 102.067 39.7284C102.424 39.3727 102.909 39.1729 103.413 39.1729H166.994C167.499 39.1729 167.983 39.3727 168.34 39.7284C168.697 40.0841 168.898 40.5665 168.898 41.0695V127.33H150.395Z" fill="#2C7BE5"/>
<path d="M150.395 145.689V127.329H168.898L150.395 145.689Z" fill="#DBE8EC"/>
<path d="M74.8219 56.7849H51.4249C50.8208 56.7849 50.3311 57.2729 50.3311 57.8748V70.9978C50.3311 71.5997 50.8208 72.0876 51.4249 72.0876H74.8219C75.426 72.0876 75.9158 71.5997 75.9158 70.9978V57.8748C75.9158 57.2729 75.426 56.7849 74.8219 56.7849Z" fill="#A4C7F4"/>
<path d="M66.5221 54.6608H59.7247C59.1206 54.6608 58.6309 55.1487 58.6309 55.7506V58.5781C58.6309 59.18 59.1206 59.6679 59.7247 59.6679H66.5221C67.1262 59.6679 67.616 59.18 67.616 58.5781V55.7506C67.616 55.1487 67.1262 54.6608 66.5221 54.6608Z" fill="#37817B"/>
<path d="M209.774 97.9916H186.377C185.772 97.9916 185.283 98.4795 185.283 99.0814V112.204C185.283 112.806 185.772 113.294 186.377 113.294H209.774C210.378 113.294 210.867 112.806 210.867 112.204V99.0814C210.867 98.4795 210.378 97.9916 209.774 97.9916Z" fill="#A4C7F4"/>
<path d="M201.474 95.8673H194.676C194.072 95.8673 193.583 96.3552 193.583 96.9572V99.7846C193.583 100.387 194.072 100.874 194.676 100.874H201.474C202.078 100.874 202.568 100.387 202.568 99.7846V96.9572C202.568 96.3552 202.078 95.8673 201.474 95.8673Z" fill="#37817B"/>
<path d="M36.5925 87.7204H58.4191C59.3481 87.7207 60.2673 87.9095 61.1207 88.2752C61.9741 88.6409 62.7438 89.1759 63.383 89.8475C64.0222 90.5192 64.5174 91.3135 64.8386 92.182C65.1597 93.0505 65.3 93.9751 65.251 94.8994C64.5618 108.07 62.3722 122.21 62.3722 122.21C62.3722 122.21 43.1912 124.5 40.7288 124.5H38.9898C38.185 124.5 37.3906 124.318 36.6663 123.969C35.942 123.619 35.3065 123.11 34.8076 122.481C34.3087 121.852 33.9593 121.118 33.7857 120.335C33.612 119.552 33.6186 118.74 33.8049 117.96L39.5784 93.7883C39.7647 93.0082 39.7713 92.1962 39.5976 91.4132C39.424 90.6302 39.0746 89.8966 38.5757 89.2674C38.0768 88.6381 37.4414 88.1296 36.7171 87.78C35.9928 87.4305 35.1984 87.2488 34.3936 87.2488L36.5925 87.7204Z" fill="#A4C7F4"/>
<path d="M38.1543 124.547H59.5308L57.4124 134.03L64.3986 103.702C64.5779 102.924 64.5787 102.115 64.4011 101.337C64.2235 100.558 63.8721 99.83 63.3729 99.2056C62.8738 98.5811 62.2397 98.0769 61.5179 97.7303C60.7962 97.3837 60.0053 97.2037 59.2041 97.2037H55.8006C54.6043 97.2037 53.4427 97.6048 52.5029 98.3423C51.5631 99.0798 50.8997 100.111 50.6193 101.27L45.91 120.434C45.6297 121.593 44.9663 122.624 44.0265 123.361C43.0866 124.099 41.9251 124.5 40.7288 124.5L38.1543 124.547Z" fill="#A4C7F4"/>
<path d="M27.1323 97.6697L29.2954 91.0129C29.6281 89.9238 30.3032 88.9701 31.2212 88.2924C32.1392 87.6147 33.2515 87.2488 34.3941 87.2488C35.1989 87.2488 35.9933 87.4304 36.7176 87.78C37.4419 88.1296 38.0774 88.6381 38.5763 89.2674C39.0752 89.8966 39.4245 90.6302 39.5982 91.4132C39.7718 92.1962 39.7653 93.0082 39.5789 93.7883L38.6519 97.6697H27.1323Z" fill="#2C7CE5"/>
<path d="M59.205 97.2037C60.0062 97.2037 60.7971 97.3837 61.5189 97.7303C62.2406 98.0769 62.8747 98.5811 63.3739 99.2056C63.873 99.83 64.2245 100.558 64.4021 101.337C64.5797 102.115 64.5788 102.924 64.3996 103.702L52.8167 153.985C52.6375 154.763 52.6366 155.572 52.8142 156.35C52.9918 157.128 53.3432 157.857 53.8424 158.481C54.3416 159.106 54.9756 159.61 55.6974 159.957C56.4192 160.303 57.2101 160.483 58.0113 160.483H60.0876L89.0287 153.985L100.612 103.702C100.791 102.924 100.792 102.115 100.614 101.337C100.437 100.559 100.085 99.83 99.5859 99.2056C99.0867 98.5812 98.4527 98.0769 97.7309 97.7303C97.0091 97.3838 96.2182 97.2038 95.417 97.2038H92.0136L59.205 97.2037Z" fill="#2C7BE5"/>
<path d="M94.2226 160.483H96.2989C97.455 160.483 98.5797 160.109 99.5035 159.416C100.427 158.724 101.1 157.751 101.42 156.644L103.837 148.291C104.157 147.184 104.829 146.211 105.753 145.518C106.677 144.826 107.802 144.451 108.958 144.451H109.541H72.7457C71.5897 144.451 70.465 144.826 69.5412 145.518C68.6175 146.211 67.9448 147.184 67.6246 148.291L65.2081 156.644C64.8879 157.751 64.2152 158.724 63.2914 159.416C62.3677 160.109 61.243 160.483 60.0869 160.483H94.2226Z" fill="#A4C7F4"/>
<path d="M72.7451 144.451H73.328C74.134 144.451 74.9295 144.633 75.6547 144.984C76.3798 145.334 77.0157 145.844 77.5145 146.475C78.0133 147.106 78.362 147.841 78.5344 148.626C78.7067 149.41 78.6983 150.223 78.5096 151.004L77.632 154.636H113.844L114.722 151.004C114.91 150.223 114.919 149.41 114.746 148.626C114.574 147.841 114.225 147.106 113.727 146.475C113.228 145.844 112.592 145.334 111.867 144.984C111.142 144.633 110.346 144.451 109.54 144.451H108.957H72.7451Z" fill="#A4C7F4"/>
<path d="M61.3809 135.68L86.7707 135.68" stroke="#F4F6F8" stroke-width="1.31552" stroke-miterlimit="10"/>
<path d="M63.1235 129.63L88.5134 129.63" stroke="#F4F6F8" stroke-width="1.31552" stroke-miterlimit="10"/>
<path d="M64.9053 123.525L90.2951 123.525" stroke="#F4F6F8" stroke-width="1.31552" stroke-miterlimit="10"/>
<path d="M66.6875 117.419H92.0773" stroke="#F4F6F8" stroke-width="1.31552" stroke-miterlimit="10"/>
<path d="M68.4697 111.314L93.8596 111.314" stroke="#F4F6F8" stroke-width="1.31552" stroke-miterlimit="10"/>
<path d="M70.2515 105.208H95.6413" stroke="#F4F6F8" stroke-width="1.31552" stroke-miterlimit="10"/>
<path d="M39.2988 117.071H51.8308" stroke="#3D8F88" stroke-width="1.31552" stroke-miterlimit="10"/>
<path d="M40.1582 111.021H52.6901" stroke="#3D8F88" stroke-width="1.31552" stroke-miterlimit="10"/>
<path d="M41.0381 104.916L53.57 104.916" stroke="#3D8F88" stroke-width="1.31552" stroke-miterlimit="10"/>
<path d="M41.9185 98.8104H54.4504" stroke="#3D8F88" stroke-width="1.31552" stroke-miterlimit="10"/>
<path d="M135.203 82.1929H125.527C125.34 82.1929 125.157 82.1439 124.995 82.0509C124.833 81.9578 124.699 81.824 124.605 81.6628C124.512 81.5016 124.463 81.3188 124.463 81.1327C124.463 80.9466 124.512 80.7638 124.605 80.6026L129.444 72.2535L134.282 63.9044C134.375 63.7432 134.509 63.6094 134.671 63.5163C134.833 63.4233 135.016 63.3743 135.203 63.3743C135.39 63.3743 135.573 63.4233 135.735 63.5163C135.897 63.6094 136.031 63.7432 136.125 63.9044L140.963 72.2535L145.801 80.6026C145.894 80.7638 145.943 80.9466 145.943 81.1327C145.943 81.3188 145.894 81.5016 145.801 81.6628C145.707 81.824 145.573 81.9578 145.411 82.0509C145.25 82.1439 145.066 82.1929 144.879 82.1929H135.203Z" fill="#DBE8EC"/>
<path d="M135.737 67.0404H134.672V76.0077H135.737V67.0404Z" fill="#409CB5"/>
<path d="M136.471 79.2326C136.541 78.5352 136.03 77.9139 135.33 77.8448C134.629 77.7758 134.006 78.2851 133.937 78.9825C133.867 79.6799 134.379 80.3012 135.079 80.3703C135.779 80.4393 136.402 79.93 136.471 79.2326Z" fill="#409CB5"/>
<path d="M111.561 90.754H158.847" stroke="white" stroke-width="0.986641" stroke-miterlimit="10"/>
<path d="M111.561 99.3152H158.847" stroke="white" stroke-width="0.986641" stroke-miterlimit="10"/>
<path d="M111.561 107.876H158.847" stroke="white" stroke-width="0.986641" stroke-miterlimit="10"/>
<path d="M111.561 116.438H158.847" stroke="white" stroke-width="0.986641" stroke-miterlimit="10"/>
<path d="M111.561 54.813H158.847" stroke="white" stroke-width="0.986641" stroke-miterlimit="10"/>
<path d="M156.659 25.517H113.748C112.54 25.517 111.561 26.4928 111.561 27.6967V40.8624C111.561 42.0662 112.54 43.0421 113.748 43.0421H156.659C157.867 43.0421 158.847 42.0662 158.847 40.8624V27.6967C158.847 26.4928 157.867 25.517 156.659 25.517Z" fill="#94D1CC"/>
<path d="M73.855 80.7665H84.9103" stroke="#B9D4DB" stroke-width="0.986641" stroke-miterlimit="10" stroke-linecap="round"/>
<path d="M73.855 83.9413H84.9103" stroke="#B9D4DB" stroke-width="0.986641" stroke-miterlimit="10" stroke-linecap="round"/>
<path d="M73.855 87.1161H84.9103" stroke="#B9D4DB" stroke-width="0.986641" stroke-miterlimit="10" stroke-linecap="round"/>
<path d="M185.716 27.5295H196.771" stroke="#B9D4DB" stroke-width="0.986641" stroke-miterlimit="10" stroke-linecap="round"/>
<path d="M185.716 30.7043H196.771" stroke="#B9D4DB" stroke-width="0.986641" stroke-miterlimit="10" stroke-linecap="round"/>
<path d="M185.716 33.8791H196.771" stroke="#B9D4DB" stroke-width="0.986641" stroke-miterlimit="10" stroke-linecap="round"/>
<path d="M185.716 141.489H196.771" stroke="#B9D4DB" stroke-width="0.986641" stroke-miterlimit="10" stroke-linecap="round"/>
<path d="M185.716 144.664H196.771" stroke="#B9D4DB" stroke-width="0.986641" stroke-miterlimit="10" stroke-linecap="round"/>
<path d="M185.716 147.839H196.771" stroke="#B9D4DB" stroke-width="0.986641" stroke-miterlimit="10" stroke-linecap="round"/>
<path d="M33.1971 161.665C35.8069 161.665 37.9225 159.558 37.9225 156.957C37.9225 154.357 35.8069 152.249 33.1971 152.249C30.5873 152.249 28.4717 154.357 28.4717 156.957C28.4717 159.558 30.5873 161.665 33.1971 161.665Z" fill="#B7E1DD"/>
<path d="M26.8965 148.151C28.2497 148.151 29.3467 147.058 29.3467 145.71C29.3467 144.362 28.2497 143.269 26.8965 143.269C25.5433 143.269 24.4463 144.362 24.4463 145.71C24.4463 147.058 25.5433 148.151 26.8965 148.151Z" fill="#B7E1DD"/>
<path d="M42.9251 151.639C44.8583 151.639 46.4254 150.077 46.4254 148.151C46.4254 146.225 44.8583 144.664 42.9251 144.664C40.9919 144.664 39.4248 146.225 39.4248 148.151C39.4248 150.077 40.9919 151.639 42.9251 151.639Z" fill="#B7E1DD"/>
<path d="M197.608 79.3248C200.713 79.3248 203.23 76.8168 203.23 73.723C203.23 70.6293 200.713 68.1213 197.608 68.1213C194.503 68.1213 191.985 70.6293 191.985 73.723C191.985 76.8168 194.503 79.3248 197.608 79.3248Z" fill="#B7E1DD"/>
<path d="M186.864 72.651C188.481 72.651 189.792 71.3447 189.792 69.7332C189.792 68.1217 188.481 66.8153 186.864 66.8153C185.246 66.8153 183.935 68.1217 183.935 69.7332C183.935 71.3447 185.246 72.651 186.864 72.651Z" fill="#B7E1DD"/>
<path d="M189.554 61.4976C190.487 61.4976 191.243 60.7441 191.243 59.8145C191.243 58.885 190.487 58.1314 189.554 58.1314C188.621 58.1314 187.864 58.885 187.864 59.8145C187.864 60.7441 188.621 61.4976 189.554 61.4976Z" fill="#B7E1DD"/>
<path d="M198.905 65.0401C201.142 65.0401 202.955 63.2336 202.955 61.0053C202.955 58.777 201.142 56.9705 198.905 56.9705C196.669 56.9705 194.855 58.777 194.855 61.0053C194.855 63.2336 196.669 65.0401 198.905 65.0401Z" fill="#B7E1DD"/>
<path d="M67.4954 46.7932C70.6005 46.7932 73.1177 44.2852 73.1177 41.1914C73.1177 38.0977 70.6005 35.5897 67.4954 35.5897C64.3902 35.5897 61.873 38.0977 61.873 41.1914C61.873 44.2852 64.3902 46.7932 67.4954 46.7932Z" fill="#B7E1DD"/>
<path d="M67.7235 32.688C69.3409 32.688 70.6521 31.3816 70.6521 29.7701C70.6521 28.1586 69.3409 26.8522 67.7235 26.8522C66.1061 26.8522 64.7949 28.1586 64.7949 29.7701C64.7949 31.3816 66.1061 32.688 67.7235 32.688Z" fill="#B7E1DD"/>
<path d="M87.2295 34.0003C88.6294 34.0003 89.7642 32.8697 89.7642 31.4749C89.7642 30.0802 88.6294 28.9495 87.2295 28.9495C85.8296 28.9495 84.6948 30.0802 84.6948 31.4749C84.6948 32.8697 85.8296 34.0003 87.2295 34.0003Z" fill="#B7E1DD"/>
<path d="M78.0083 30.704C78.9414 30.704 79.6978 29.9505 79.6978 29.0209C79.6978 28.0914 78.9414 27.3378 78.0083 27.3378C77.0752 27.3378 76.3188 28.0914 76.3188 29.0209C76.3188 29.9505 77.0752 30.704 78.0083 30.704Z" fill="#B7E1DD"/>
<path d="M79.9715 42.2427C82.208 42.2427 84.0211 40.4363 84.0211 38.2079C84.0211 35.9796 82.208 34.1732 79.9715 34.1732C77.7349 34.1732 75.9219 35.9796 75.9219 38.2079C75.9219 40.4363 77.7349 42.2427 79.9715 42.2427Z" fill="#B7E1DD"/>
</svg>
