<svg width="25" height="25" viewBox="0 0 25 25" fill="none" xmlns="http://www.w3.org/2000/svg">
<path d="M12.5 6.94V10.27" stroke="#292D32" stroke-width="1.5" stroke-miterlimit="10" stroke-linecap="round"/>
<path d="M12.5199 2.5C8.8399 2.5 5.8599 5.48 5.8599 9.16V11.26C5.8599 11.94 5.5799 12.96 5.2299 13.54L3.9599 15.66C3.1799 16.97 3.7199 18.43 5.1599 18.91C9.9399 20.5 15.1099 20.5 19.8899 18.91C21.2399 18.46 21.8199 16.88 21.0899 15.66L19.8199 13.54C19.4699 12.96 19.1899 11.93 19.1899 11.26V9.16C19.1799 5.5 16.1799 2.5 12.5199 2.5Z" stroke="#292D32" stroke-width="1.5" stroke-miterlimit="10" stroke-linecap="round"/>
<path d="M15.8299 19.32C15.8299 21.15 14.3299 22.65 12.4999 22.65C11.5899 22.65 10.7499 22.27 10.1499 21.67C9.54992 21.07 9.16992 20.23 9.16992 19.32" stroke="#292D32" stroke-width="1.5" stroke-miterlimit="10"/>
</svg>
