<svg width="349" height="260" viewBox="0 0 349 260" fill="none" xmlns="http://www.w3.org/2000/svg">
<path d="M349 228.484H0V228.659H349V228.484Z" fill="#EBEBEB"/>
<path d="M314.03 239.713H290.913V239.888H314.03V239.713Z" fill="#EBEBEB"/>
<path d="M231.192 241.611H225.126V241.786H231.192V241.611Z" fill="#EBEBEB"/>
<path d="M290.214 233.237H256.941V233.411H290.214V233.237Z" fill="#EBEBEB"/>
<path d="M53.1456 234.409H36.6169V234.584H53.1456V234.409Z" fill="#EBEBEB"/>
<path d="M77.4012 234.409H59.3579V234.584H77.4012V234.409Z" fill="#EBEBEB"/>
<path d="M136.885 237.354H91.7661V237.529H136.885V237.354Z" fill="#EBEBEB"/>
<path d="M308.104 18.1448H197.841V228.484H308.104V18.1448Z" fill="#EBEBEB"/>
<path d="M299.903 25.0048H206.043V228.484H299.903V25.0048Z" fill="#F5F5F5"/>
<path d="M266.175 41.8795H239.784V49.1722H266.175V41.8795Z" fill="white"/>
<path d="M278.062 114.326H292.378C292.971 114.326 293.539 114.561 293.958 114.98C294.377 115.399 294.612 115.967 294.612 116.559C294.612 117.151 294.377 117.719 293.958 118.138C293.539 118.557 292.971 118.792 292.378 118.792H278.062C277.47 118.792 276.902 118.557 276.483 118.138C276.064 117.719 275.829 117.151 275.829 116.559C275.829 115.967 276.064 115.399 276.483 114.98C276.902 114.561 277.47 114.326 278.062 114.326Z" fill="white"/>
<path d="M122.457 40.5256H49.1255V99.6146H122.457V40.5256Z" fill="#EBEBEB"/>
<path d="M118.513 95.6786V44.4616L53.055 44.4616V95.6786H118.513Z" fill="#FAFAFA"/>
<path d="M110.884 70.7435V68.2939H60.6911V70.7435H110.884Z" fill="#E0E0E0"/>
<path d="M110.884 76.3195V73.8699H60.6911V76.3195H110.884Z" fill="#E0E0E0"/>
<path d="M110.884 81.8886V79.439H60.6911V81.8886H110.884Z" fill="#E0E0E0"/>
<path d="M98.2996 87.4646V85.0151H73.2763V87.4646H98.2996Z" fill="#E0E0E0"/>
<path d="M60.726 44.4616C60.7261 45.4674 60.5271 46.4633 60.1407 47.3919C59.7542 48.3206 59.1879 49.1636 58.4743 49.8726C57.7607 50.5815 56.9139 51.1424 55.9826 51.5228C55.0513 51.9033 54.054 52.0958 53.048 52.0894C51.66 52.0928 50.2979 51.7137 49.1113 50.9937V40.5256H59.5813C60.3149 41.7086 60.7108 43.0697 60.726 44.4616Z" fill="#EBEBEB"/>
<path d="M122.457 40.5256V50.9937C120.998 51.8713 119.287 52.2355 117.597 52.0284C115.906 51.8214 114.334 51.0548 113.13 49.851C111.926 48.6471 111.159 47.075 110.952 45.3851C110.745 43.6952 111.109 41.9845 111.987 40.5256H122.457Z" fill="#EBEBEB"/>
<path d="M60.7261 95.6856C60.7286 97.0701 60.352 98.4288 59.6372 99.6146H49.1672V89.1465C50.3253 88.4532 51.6464 88.0792 52.9961 88.0627C54.3458 88.0461 55.6757 88.3874 56.8504 89.052C58.0252 89.7166 59.0028 90.6806 59.6836 91.8459C60.3644 93.0112 60.7241 94.3361 60.7261 95.6856Z" fill="#EBEBEB"/>
<path d="M122.457 89.1395V99.6076H111.987C111.267 98.4238 110.888 97.0641 110.891 95.6786C110.893 94.3272 111.253 93.0004 111.934 91.8334C112.616 90.6665 113.595 89.7011 114.771 89.0357C115.947 88.3703 117.279 88.0286 118.631 88.0456C119.982 88.0627 121.305 88.4377 122.464 89.1325L122.457 89.1395Z" fill="#EBEBEB"/>
<path d="M92.2048 57.9817C92.7798 54.4397 90.3741 51.1023 86.8316 50.5274C83.289 49.9525 79.951 52.3577 79.3759 55.8997C78.8009 59.4416 81.2066 62.779 84.7491 63.3539C88.2917 63.9289 91.6297 61.5236 92.2048 57.9817Z" fill="#E0E0E0"/>
<path d="M181.717 144.565H36.6169V149.785H181.717V144.565Z" fill="#EBEBEB"/>
<path d="M180.461 149.785H133.318V228.484H180.461V149.785Z" fill="#F5F5F5"/>
<path d="M85.5538 149.785H38.4109V228.484H85.5538V149.785Z" fill="#F5F5F5"/>
<path d="M40.0233 149.785H38.4109V228.484H40.0233V149.785Z" fill="#EBEBEB"/>
<path d="M134.93 149.785H133.318V228.484H134.93V149.785Z" fill="#EBEBEB"/>
<path d="M63.1689 131.982H54.4998L55.1978 144.565H62.4709L63.1689 131.982Z" fill="#F0F0F0"/>
<path d="M138.435 139.107H93.1414V144.565H138.435V139.107Z" fill="#F0F0F0"/>
<path d="M138.441 139.749H117.557V143.93H138.441V139.749Z" fill="#FAFAFA"/>
<path d="M174.5 260C249.244 260 309.836 256.463 309.836 252.1C309.836 247.737 249.244 244.2 174.5 244.2C99.7567 244.2 39.165 247.737 39.165 252.1C39.165 256.463 99.7567 260 174.5 260Z" fill="#F5F5F5"/>
<path d="M237.816 203.235C250.028 203.235 259.928 193.337 259.928 181.126C259.928 168.916 250.028 159.018 237.816 159.018C225.603 159.018 215.703 168.916 215.703 181.126C215.703 193.337 225.603 203.235 237.816 203.235Z" fill="white"/>
<path d="M237.816 203.507C233.388 203.508 229.06 202.197 225.377 199.739C221.695 197.28 218.825 193.785 217.13 189.696C215.434 185.606 214.99 181.106 215.853 176.764C216.716 172.422 218.847 168.434 221.978 165.303C225.108 162.172 229.097 160.04 233.439 159.176C237.781 158.312 242.283 158.755 246.373 160.448C250.464 162.142 253.961 165.011 256.421 168.691C258.881 172.372 260.194 176.699 260.194 181.126C260.188 187.059 257.829 192.747 253.634 196.943C249.438 201.139 243.75 203.5 237.816 203.507ZM237.816 159.297C233.496 159.297 229.273 160.578 225.681 162.977C222.089 165.377 219.29 168.788 217.637 172.778C215.984 176.769 215.552 181.16 216.395 185.396C217.239 189.632 219.32 193.523 222.375 196.576C225.43 199.63 229.322 201.709 233.559 202.551C237.796 203.393 242.188 202.959 246.178 201.305C250.169 199.652 253.58 196.852 255.979 193.26C258.378 189.668 259.657 185.445 259.656 181.126C259.651 175.337 257.348 169.787 253.253 165.694C249.158 161.601 243.606 159.3 237.816 159.297Z" fill="#407BFF"/>
<path d="M241.375 168.592H234.256V193.66H241.375V168.592Z" fill="#407BFF"/>
<path d="M250.352 184.692V177.574H225.28V184.692H250.352Z" fill="#407BFF"/>
<path d="M88.0249 14.0063L87.5503 13.4969C90.7814 10.443 94.8814 8.46779 99.2837 7.84412L99.3814 8.54199C95.121 9.14273 91.1526 11.0522 88.0249 14.0063Z" fill="#407BFF"/>
<path d="M82.8598 21.6341L82.2107 21.3829C82.9153 19.6051 83.8543 17.9293 85.0027 16.4001L85.5611 16.8188C84.4537 18.2987 83.5455 19.9177 82.8598 21.6341Z" fill="#407BFF"/>
<path d="M102.334 48.3697C112.912 48.3697 121.487 39.7961 121.487 29.22C121.487 18.644 112.912 10.0704 102.334 10.0704C91.7561 10.0704 83.1809 18.644 83.1809 29.22C83.1809 39.7961 91.7561 48.3697 102.334 48.3697Z" fill="#407BFF"/>
<path d="M113.774 20.5943C113.036 19.8286 112.153 19.2177 111.177 18.7972C110.2 18.3768 109.15 18.1552 108.086 18.1454C107.023 18.1357 105.969 18.338 104.985 18.7405C104 19.143 103.106 19.7376 102.355 20.4896C101.604 19.7378 100.71 19.1433 99.7269 18.7409C98.7433 18.3385 97.6894 18.1362 96.6267 18.146C95.564 18.1557 94.514 18.3773 93.5379 18.7977C92.5619 19.2181 91.6796 19.8288 90.9425 20.5943C89.4981 22.1565 88.7199 24.2202 88.7733 26.347C88.8268 28.4738 89.7076 30.4959 91.2287 31.9836L100.303 41.056C100.575 41.3282 100.898 41.5441 101.254 41.6914C101.61 41.8387 101.991 41.9146 102.376 41.9146C102.761 41.9146 103.142 41.8387 103.498 41.6914C103.853 41.5441 104.177 41.3282 104.449 41.056L113.523 31.9836C115.039 30.4913 115.914 28.4667 115.961 26.3399C116.007 24.2132 115.223 22.152 113.774 20.5943Z" fill="white"/>
<path d="M102.334 37.5875C102.193 37.5827 102.057 37.5354 101.944 37.452C101.831 37.3686 101.745 37.2528 101.699 37.1199L97.6574 25.3049L95.9682 30.2458C95.9202 30.3832 95.8305 30.502 95.7116 30.5859C95.5927 30.6697 95.4506 30.7143 95.3051 30.7134H88.5415C88.3564 30.7134 88.1788 30.6399 88.0479 30.509C87.917 30.3781 87.8435 30.2006 87.8435 30.0156C87.8435 29.8305 87.917 29.653 88.0479 29.5221C88.1788 29.3912 88.3564 29.3177 88.5415 29.3177H94.8235L97.0152 22.9182C97.0627 22.781 97.1517 22.6621 97.27 22.578C97.3882 22.4938 97.5297 22.4485 97.6748 22.4485C97.82 22.4485 97.9615 22.4938 98.0797 22.578C98.1979 22.6621 98.287 22.781 98.3344 22.9182L102.446 34.9425L106.438 25.5422C106.489 25.4224 106.572 25.319 106.678 25.2438C106.784 25.1686 106.909 25.1245 107.039 25.1165C107.169 25.109 107.299 25.1384 107.414 25.2013C107.529 25.2642 107.624 25.3582 107.688 25.4724L109.796 29.3107H116.154C116.34 29.3107 116.517 29.3842 116.648 29.5151C116.779 29.646 116.852 29.8235 116.852 30.0086C116.852 30.1937 116.779 30.3712 116.648 30.502C116.517 30.6329 116.34 30.7064 116.154 30.7064H109.391C109.266 30.7075 109.143 30.675 109.035 30.6124C108.927 30.5498 108.838 30.4594 108.777 30.3505L107.122 27.3915L102.976 37.1618C102.923 37.2879 102.833 37.3956 102.719 37.4713C102.605 37.547 102.471 37.5874 102.334 37.5875Z" fill="#407BFF"/>
<path d="M208.604 227.647H135.754C134.567 227.66 133.39 227.426 132.298 226.96C131.207 226.494 130.224 225.806 129.412 224.939C128.601 224.073 127.979 223.047 127.585 221.927C127.192 220.807 127.036 219.618 127.127 218.435L138.902 43.9661C139.108 41.4744 140.233 39.1482 142.058 37.4393C143.883 35.7305 146.279 34.761 148.779 34.7192H221.643C222.833 34.7056 224.013 34.9405 225.107 35.4087C226.202 35.8769 227.186 36.5682 227.998 37.4384C228.81 38.3087 229.432 39.3387 229.823 40.4627C230.214 41.5867 230.366 42.7799 230.27 43.9661L218.474 218.435C218.262 220.919 217.135 223.237 215.312 224.939C213.488 226.641 211.098 227.606 208.604 227.647Z" fill="#263238"/>
<path d="M224.756 105.77H222.92C222.588 105.774 222.258 105.709 221.953 105.578C221.647 105.447 221.372 105.254 221.145 105.011C220.919 104.768 220.745 104.48 220.636 104.166C220.527 103.852 220.485 103.519 220.512 103.188L222.767 69.8363C222.819 69.1389 223.132 68.4864 223.642 68.0083C224.153 67.5301 224.824 67.261 225.524 67.2542H227.36C227.692 67.2502 228.022 67.3156 228.327 67.4463C228.633 67.577 228.908 67.77 229.134 68.0131C229.361 68.2562 229.535 68.5439 229.644 68.8579C229.753 69.1718 229.795 69.5051 229.768 69.8363L227.513 103.188C227.461 103.885 227.148 104.538 226.638 105.016C226.127 105.494 225.456 105.763 224.756 105.77Z" fill="#263238"/>
<path d="M137.841 83.5216H136.012C135.742 83.5252 135.473 83.4726 135.224 83.367C134.975 83.2615 134.75 83.1054 134.565 82.9086C134.379 82.7118 134.236 82.4785 134.145 82.2237C134.055 81.9688 134.018 81.6978 134.037 81.428L134.854 69.3827C134.905 68.8172 135.164 68.2907 135.58 67.9043C135.996 67.5178 136.54 67.2987 137.108 67.289H138.944C139.214 67.2875 139.481 67.3415 139.729 67.4478C139.977 67.5541 140.2 67.7104 140.385 67.9069C140.569 68.1034 140.711 68.3359 140.802 68.5898C140.893 68.8437 140.931 69.1136 140.912 69.3827L140.096 81.428C140.046 81.994 139.787 82.5214 139.371 82.9081C138.954 83.2949 138.409 83.5134 137.841 83.5216Z" fill="#407BFF"/>
<path d="M136.389 105.03H134.553C134.283 105.033 134.016 104.979 133.767 104.873C133.519 104.767 133.295 104.611 133.11 104.415C132.926 104.218 132.783 103.985 132.693 103.731C132.603 103.476 132.566 103.206 132.585 102.937L133.402 90.8912C133.453 90.3257 133.712 89.7992 134.128 89.4128C134.544 89.0264 135.088 88.8073 135.656 88.7976H137.506C137.776 88.796 138.043 88.8501 138.291 88.9564C138.539 89.0627 138.762 89.219 138.947 89.4154C139.131 89.6119 139.274 89.8444 139.364 90.0983C139.455 90.3522 139.493 90.6222 139.474 90.8912L138.658 102.937C138.607 103.505 138.347 104.034 137.928 104.421C137.508 104.808 136.96 105.025 136.389 105.03Z" fill="#407BFF"/>
<path d="M207.062 227.647H134.212C133.025 227.66 131.848 227.426 130.756 226.96C129.664 226.494 128.681 225.806 127.87 224.939C127.059 224.073 126.436 223.047 126.043 221.927C125.649 220.808 125.493 219.618 125.584 218.435L137.367 43.9661C137.579 41.4735 138.712 39.1493 140.544 37.4453C142.376 35.7414 144.776 34.7797 147.278 34.7472H220.1C221.288 34.7339 222.466 34.968 223.558 35.4345C224.65 35.901 225.633 36.5898 226.445 37.457C227.256 38.3241 227.878 39.3507 228.271 40.4713C228.664 41.592 228.82 42.7821 228.728 43.9661L216.939 218.435C216.726 220.921 215.598 223.239 213.774 224.941C211.949 226.643 209.557 227.607 207.062 227.647Z" fill="#37817B"/>
<path opacity="0.3" d="M126.352 216.481L137.855 46.2272H227.939L216.436 216.481H126.352Z" fill="white"/>
<path opacity="0.1" d="M161.915 216.481L194.065 46.2272H214.244L182.094 216.481H161.915Z" fill="white"/>
<path opacity="0.1" d="M146.671 216.481L178.821 46.2272H189.046L156.897 216.481H146.671Z" fill="white"/>
<path d="M174.598 39.0251H192.166C192.313 39.0226 192.459 39.0509 192.594 39.1083C192.729 39.1656 192.85 39.2506 192.95 39.3579C193.05 39.4651 193.127 39.5922 193.174 39.7308C193.222 39.8694 193.24 40.0166 193.227 40.1627C193.203 40.4701 193.066 40.7576 192.841 40.9692C192.617 41.1807 192.321 41.3012 192.013 41.3072H174.444C174.297 41.3087 174.152 41.2795 174.017 41.2213C173.882 41.1632 173.76 41.0775 173.66 40.9698C173.56 40.862 173.484 40.7345 173.436 40.5955C173.389 40.4565 173.371 40.3091 173.383 40.1627C173.408 39.8559 173.546 39.5692 173.77 39.3588C173.995 39.1484 174.29 39.0294 174.598 39.0251Z" fill="white"/>
<path d="M170.94 244.431L164.784 245.017L162.564 230.815L168.721 230.222L170.94 244.431Z" fill="#FFB573"/>
<path d="M164.079 242.009L170.529 240.006C170.64 239.967 170.762 239.973 170.868 240.023C170.975 240.072 171.059 240.161 171.101 240.271L173.195 245.387C173.247 245.524 173.27 245.67 173.263 245.817C173.255 245.963 173.218 246.106 173.152 246.237C173.086 246.369 172.994 246.485 172.882 246.579C172.769 246.672 172.638 246.742 172.497 246.782C170.166 247.48 167.946 247.641 165.133 248.876C161.846 250.272 160.47 252.142 156.932 252.142C154.398 252.142 153.825 249.818 154.9 249.497C159.786 248.018 159.144 246.803 162.69 242.986C163.059 242.544 163.538 242.206 164.079 242.009Z" fill="#263238"/>
<path opacity="0.2" d="M162.564 230.815L163.709 238.143L169.873 237.549L168.728 230.222L162.564 230.815Z" fill="black"/>
<path d="M167.018 51.3636C158.942 50.4145 150.908 51.0495 142.846 52.6128C141.502 52.8735 140.277 53.5552 139.347 54.559C138.417 55.5628 137.831 56.8366 137.674 58.1958C136.801 65.9143 135.803 83.2146 139.698 109.022L172.699 106.23C172.762 101.548 169.433 80.2137 172.183 58.0771C172.295 57.2957 172.25 56.4996 172.05 55.7359C171.85 54.9722 171.499 54.2564 171.017 53.6306C170.536 53.0048 169.934 52.4818 169.247 52.0925C168.56 51.7031 167.802 51.4553 167.018 51.3636Z" fill="white"/>
<path d="M147.802 57.9794L148.981 60.3382C149.036 60.4572 149.124 60.5583 149.234 60.6299C149.343 60.7015 149.471 60.7407 149.602 60.743L150.88 60.8128C151.108 60.8227 151.332 60.7537 151.515 60.6174L153.714 58.9774L150.998 57.0024L147.802 57.9794Z" fill="#263238"/>
<path d="M150.922 60.1359C150.456 59.9202 149.929 59.8781 149.435 60.0172C148.395 63.6811 147.257 74.198 147.139 78.8598C150.294 88.0508 151.327 88.979 151.327 88.979L152.925 77.9177C152.925 77.9177 151.131 66.6052 150.922 60.1359Z" fill="#263238"/>
<path d="M160.031 35.4521C159.277 40.0022 158.635 48.3139 161.901 51.252C159.507 53.7643 156.373 56.6744 150.998 57.0024C145.624 57.3304 146.454 53.6108 147.816 51.6218C152.834 50.2819 152.59 46.5413 151.606 43.045L160.031 35.4521Z" fill="#FFB573"/>
<path d="M163.269 50.8541C162.889 50.69 162.494 50.5615 162.09 50.4703C161.991 50.4441 161.886 50.4511 161.792 50.4902C161.697 50.5292 161.618 50.5982 161.566 50.6866C161.05 51.5659 159.472 55.495 150.999 57.0024C152.395 57.8259 154.244 60.3801 155.04 61.6083C157.581 60.2894 164.191 56.3464 163.563 51.2449C163.55 51.1606 163.516 51.0808 163.465 51.0126C163.414 50.9445 163.347 50.89 163.269 50.8541Z" fill="#F5F5F5"/>
<path d="M147.864 51.8311C147.882 51.7517 147.88 51.6691 147.858 51.5908C147.836 51.5124 147.794 51.4409 147.737 51.3827C147.68 51.3244 147.61 51.2813 147.532 51.2573C147.454 51.2332 147.372 51.2289 147.292 51.2449C146.999 51.3018 146.709 51.3788 146.426 51.4752C146.361 51.5007 146.3 51.536 146.245 51.5799C145.596 52.18 142.057 57.2885 145.372 61.4199C146.07 60.2963 148.479 57.7491 150.998 57.0023C148.611 55.9276 147.439 53.9247 147.864 51.8311Z" fill="#F5F5F5"/>
<path opacity="0.2" d="M156.597 38.5506L151.613 43.0449C151.853 43.8567 152.021 44.688 152.115 45.5293C154.042 45.2013 156.631 43.017 156.771 40.9932C156.865 40.1752 156.806 39.3468 156.597 38.5506Z" fill="black"/>
<path d="M149.937 21.697C145.638 23.3789 145.358 26.9101 145.749 30.7693C146.14 34.6286 150.342 32.0744 151.277 29.6597C152.213 27.2451 155.891 19.3661 149.937 21.697Z" fill="#263238"/>
<path d="M163.653 29.3945C162.459 35.473 162.062 39.081 158.586 41.8795C153.344 46.0667 146.245 42.4517 145.617 36.1848C145.051 30.539 147.097 21.5295 153.358 19.7708C154.723 19.3689 156.17 19.3301 157.555 19.6583C158.94 19.9865 160.215 20.6703 161.255 21.6422C162.295 22.6141 163.063 23.8405 163.483 25.2C163.904 26.5596 163.962 28.0054 163.653 29.3945Z" fill="#FFB573"/>
<path d="M163.402 34.4262C158.285 34.6983 159.367 31.7952 160.296 30.1272C161.224 28.4593 159.332 25.7027 160.568 24.2721C158.362 25.1514 156.038 24.4256 153.085 22.3739C150.796 20.7757 147.927 27.1613 145.135 23.958C142.497 20.9362 144.947 16.3791 151.285 15.6464C157.622 14.9136 158.774 19.3939 162.934 18.9962C167.094 18.5984 165.649 22.0249 164.833 22.7228C168.323 22.9531 170.228 26.2889 163.402 34.4262Z" fill="#263238"/>
<path d="M164.03 23.1484C164.831 22.7095 165.499 22.0646 165.967 21.2806C166.434 20.4965 166.684 19.6018 166.69 18.689C168.072 21.1107 167.925 23.8603 164.03 23.1484Z" fill="#263238"/>
<path d="M150.768 35.8847C151.324 35.9809 151.894 35.9638 152.444 35.8343C152.993 35.7047 153.51 35.4655 153.965 35.131C153.979 35.1179 153.99 35.1023 153.997 35.0849C154.005 35.0675 154.008 35.0487 154.008 35.0298C154.008 35.0109 154.005 34.9921 153.997 34.9747C153.99 34.9573 153.979 34.9416 153.965 34.9286C153.938 34.9026 153.902 34.8881 153.864 34.8881C153.826 34.8881 153.79 34.9026 153.763 34.9286C153.254 35.2894 152.668 35.527 152.051 35.6226C151.435 35.7183 150.804 35.6695 150.21 35.4799C150.172 35.4705 150.132 35.4752 150.097 35.4932C150.062 35.5112 150.035 35.5412 150.021 35.5776C150.01 35.6146 150.015 35.6545 150.033 35.6884C150.051 35.7224 150.082 35.7478 150.119 35.7591C150.331 35.8203 150.548 35.8623 150.768 35.8847Z" fill="#263238"/>
<path d="M164.889 36.2895C163.933 37.5209 162.532 38.3279 160.987 38.5366C158.956 38.8018 158.279 36.9106 159.13 35.145C159.905 33.5538 161.922 31.5021 163.793 32.0534C165.663 32.6047 166.061 34.7542 164.889 36.2895Z" fill="#FFB573"/>
<path d="M162.871 168.446C163.116 150.224 165.447 106.824 165.447 106.824L139.719 108.994C139.719 108.994 144.835 153.721 147.92 172.312C151.131 191.636 160.98 236.907 160.98 236.907L171.45 236.014C171.45 236.014 167.625 182.536 162.871 168.446Z" fill="#263238"/>
<path d="M160.352 237.194L172.769 236.14L172.281 232.134L159.34 232.999L160.352 237.194Z" fill="#407BFF"/>
<path d="M154.482 29.7574C154.419 30.2528 154.098 30.6297 153.784 30.5948C153.47 30.5599 153.253 30.1272 153.323 29.6248C153.393 29.1223 153.707 28.7524 154.021 28.7873C154.335 28.8222 154.551 29.2619 154.482 29.7574Z" fill="#263238"/>
<path d="M148.786 29.3108C148.723 29.8132 148.402 30.1831 148.088 30.1482C147.774 30.1133 147.557 29.6806 147.627 29.1851C147.697 28.6897 148.011 28.3128 148.325 28.3477C148.639 28.3826 148.856 28.7874 148.786 29.3108Z" fill="#263238"/>
<path d="M150.391 29.8969C149.551 31.1883 148.541 32.3618 147.39 33.3863C148.13 34.1609 149.658 33.9516 149.658 33.9516L150.391 29.8969Z" fill="#ED893E"/>
<path opacity="0.4" d="M145.184 29.4364C145.079 30.232 145.882 30.895 146.992 31.0345C148.102 31.1741 149.128 30.567 149.225 29.7714" fill="#407BFF"/>
<path opacity="0.4" d="M151.78 30.1761C151.627 30.9647 152.401 31.6765 153.49 31.8859C154.579 32.0952 155.647 31.5369 155.794 30.7553" fill="#407BFF"/>
<path d="M153.923 32.1022C153.797 32.1092 153.672 32.1092 153.546 32.1022C153.01 32.0381 152.506 31.8116 152.101 31.4532C151.925 31.3025 151.787 31.1116 151.7 30.8967C151.612 30.6818 151.578 30.449 151.599 30.218C151.244 30.0638 150.867 29.9694 150.482 29.9388C150.095 29.8422 149.69 29.8422 149.302 29.9388C149.205 30.7902 148.144 31.3764 146.957 31.2299C146.42 31.1712 145.915 30.9468 145.512 30.5878C145.337 30.4364 145.2 30.2454 145.112 30.0307C145.025 29.816 144.99 29.5836 145.01 29.3526L145.345 29.3945C145.331 29.5729 145.359 29.7522 145.428 29.9172C145.498 30.0823 145.605 30.2285 145.742 30.3436C146.094 30.653 146.533 30.8456 146.999 30.8949C148.004 31.0275 148.897 30.5599 148.988 29.8621C149.037 29.4712 149.847 29.4992 150.517 29.5829C151.187 29.6666 151.983 29.8551 151.913 30.2389C151.898 30.4174 151.927 30.5968 151.996 30.762C152.065 30.9272 152.173 31.0733 152.311 31.188C152.667 31.4933 153.104 31.6877 153.569 31.7472C154.034 31.8068 154.507 31.7288 154.928 31.523C155.091 31.4473 155.233 31.3336 155.342 31.1915C155.451 31.0494 155.525 30.883 155.556 30.7065V30.539L164.17 31.6486L164.128 31.9836L155.836 30.9158C155.775 31.1101 155.676 31.2901 155.544 31.4448C155.412 31.5996 155.25 31.7259 155.068 31.8161C154.715 32.0028 154.322 32.101 153.923 32.1022Z" fill="#263238"/>
<path d="M156.673 27.566C156.723 27.5662 156.772 27.5516 156.813 27.5242C156.881 27.4847 156.931 27.4202 156.951 27.3446C156.972 27.2689 156.963 27.1881 156.925 27.1194C156.708 26.7135 156.395 26.3673 156.013 26.1117C155.63 25.856 155.191 25.6987 154.733 25.6539C154.654 25.65 154.578 25.6771 154.519 25.7293C154.46 25.7815 154.424 25.8546 154.419 25.933C154.415 26.0096 154.441 26.0847 154.492 26.1421C154.543 26.1995 154.615 26.2347 154.691 26.2401C155.053 26.2826 155.4 26.4129 155.7 26.6196C156.001 26.8264 156.246 27.1033 156.415 27.4265C156.442 27.4709 156.48 27.5073 156.525 27.5319C156.57 27.5565 156.622 27.5683 156.673 27.566Z" fill="#263238"/>
<path d="M146.943 26.7775C146.991 26.7822 147.04 26.7751 147.085 26.7569C147.13 26.7387 147.17 26.7098 147.201 26.6728C147.427 26.3773 147.719 26.1387 148.053 25.9763C148.388 25.8139 148.756 25.7322 149.128 25.7376C149.166 25.7415 149.205 25.7377 149.242 25.7264C149.279 25.7151 149.314 25.6966 149.344 25.6719C149.373 25.6473 149.398 25.617 149.416 25.5827C149.434 25.5485 149.445 25.511 149.449 25.4724C149.454 25.4348 149.451 25.3966 149.441 25.36C149.431 25.3234 149.414 25.2892 149.39 25.2593C149.367 25.2295 149.338 25.2045 149.305 25.186C149.272 25.1675 149.235 25.1557 149.198 25.1514C148.729 25.1392 148.263 25.2369 147.839 25.4369C147.415 25.6369 147.043 25.9335 146.755 26.3029C146.705 26.3622 146.681 26.4388 146.687 26.516C146.694 26.5931 146.73 26.6645 146.789 26.7147C146.835 26.7474 146.888 26.7689 146.943 26.7775Z" fill="#263238"/>
<path d="M184.307 165.508C178.967 138.067 177.767 116.608 172.699 106.189L147.774 108.98C147.774 108.98 162.62 149.869 169.872 167.322C177.404 185.467 192.271 216.467 192.271 216.467H204.723C204.723 216.467 193.102 178.007 184.307 165.508Z" fill="#263238"/>
<path d="M105.3 61.6292L102.606 59.9264C102.169 59.6447 101.647 59.5235 101.13 59.5833C100.614 59.6431 100.134 59.8803 99.7722 60.2544L97.9434 62.1806C97.7465 62.3885 97.5943 62.6345 97.4962 62.9036C97.3981 63.1726 97.3563 63.4589 97.3733 63.7447C97.3903 64.0306 97.4658 64.3099 97.5951 64.5654C97.7244 64.8209 97.9047 65.0472 98.1249 65.2303L99.4302 66.3469C100.565 67.3088 101.89 68.022 103.318 68.4405L107.262 69.606L109.851 66.8145C110.64 63.9043 105.3 61.6292 105.3 61.6292Z" fill="#FFB573"/>
<path d="M145.184 60.3243C144.207 62.711 143.251 64.9303 142.211 67.1984C141.171 69.4665 140.117 71.7066 138.951 73.9329C137.785 76.1591 136.543 78.3713 135.133 80.5906C134.435 81.6932 133.66 82.7959 132.781 83.9055C131.835 85.129 130.759 86.2453 129.57 87.2344C128.785 87.8757 127.919 88.4107 126.994 88.8255C126.701 88.9372 126.429 89.0488 126.108 89.1465L125.619 89.2791C125.374 89.3395 125.124 89.3838 124.872 89.4117C124.022 89.5076 123.16 89.4461 122.332 89.2303C121.296 88.9403 120.311 88.4906 119.414 87.8973C118.742 87.478 118.101 87.0116 117.495 86.5016C115.48 84.7432 113.623 82.812 111.946 80.7302C110.319 78.7761 108.784 76.8151 107.311 74.8122C105.838 72.8093 104.421 70.8413 102.969 68.7407L110.689 63.7579C113.125 67.6898 115.821 71.455 118.758 75.0285C120.108 76.6838 121.595 78.2222 123.204 79.6275C123.516 79.8825 123.845 80.1156 124.188 80.3254C124.447 80.4999 124.705 80.5697 124.523 80.5068C124.278 80.4394 124.021 80.4251 123.77 80.465C123.668 80.4743 123.568 80.493 123.469 80.5208H123.414C123.379 80.5208 123.379 80.5208 123.372 80.5208C123.531 80.4171 123.682 80.3029 123.825 80.1788C124.463 79.6006 125.04 78.96 125.55 78.2667C126.143 77.4711 126.736 76.5778 127.302 75.6496C128.457 73.7198 129.51 71.7304 130.456 69.6898C131.434 67.5962 132.376 65.5025 133.248 63.3252C134.121 61.1478 134.952 58.9355 135.657 56.821L145.184 60.3243Z" fill="#407BFF"/>
<g opacity="0.6">
<path d="M145.184 60.3243C144.207 62.711 143.251 64.9303 142.211 67.1984C141.171 69.4665 140.117 71.7066 138.951 73.9329C137.785 76.1591 136.543 78.3713 135.133 80.5906C134.435 81.6932 133.66 82.7959 132.781 83.9055C131.835 85.129 130.759 86.2453 129.57 87.2344C128.785 87.8757 127.919 88.4107 126.994 88.8255C126.701 88.9372 126.429 89.0488 126.108 89.1465L125.619 89.2791C125.374 89.3395 125.124 89.3838 124.872 89.4117C124.022 89.5076 123.16 89.4461 122.332 89.2303C121.296 88.9403 120.311 88.4906 119.414 87.8973C118.742 87.478 118.101 87.0116 117.495 86.5016C115.48 84.7432 113.623 82.812 111.946 80.7302C110.319 78.7761 108.784 76.8151 107.311 74.8122C105.838 72.8093 104.421 70.8413 102.969 68.7407L110.689 63.7579C113.125 67.6898 115.821 71.455 118.758 75.0285C120.108 76.6838 121.595 78.2222 123.204 79.6275C123.516 79.8825 123.845 80.1156 124.188 80.3254C124.447 80.4999 124.705 80.5697 124.523 80.5068C124.278 80.4394 124.021 80.4251 123.77 80.465C123.668 80.4743 123.568 80.493 123.469 80.5208H123.414C123.379 80.5208 123.379 80.5208 123.372 80.5208C123.531 80.4171 123.682 80.3029 123.825 80.1788C124.463 79.6006 125.04 78.96 125.55 78.2667C126.143 77.4711 126.736 76.5778 127.302 75.6496C128.457 73.7198 129.51 71.7304 130.456 69.6898C131.434 67.5962 132.376 65.5025 133.248 63.3252C134.121 61.1478 134.952 58.9355 135.657 56.821L145.184 60.3243Z" fill="white"/>
</g>
<path d="M163.458 49.6119C160.84 54.497 151.522 73.1093 150.391 84.5963C146.266 74.1282 147.166 50.9727 147.166 50.9727C144.226 51.2592 141.342 51.9642 138.602 53.0664C137.719 53.4292 136.953 54.0294 136.39 54.8005C135.827 55.5716 135.488 56.4834 135.412 57.4351C134.609 69.4163 134.987 81.4476 136.543 93.3547C139.439 115.896 142.127 150.95 142.127 150.95C142.127 150.95 165.196 149.987 182.995 146.233C180.824 129.002 173.397 100.124 173.327 92.3916C173.244 82.4399 173.474 62.9832 173.788 54.8599C173.841 53.713 173.481 52.5851 172.774 51.6802C172.068 50.7753 171.061 50.153 169.935 49.9259C167.8 49.5303 165.621 49.4247 163.458 49.6119Z" fill="#407BFF"/>
<path opacity="0.7" d="M163.458 49.6119C160.84 54.497 151.522 73.1093 150.391 84.5963C146.266 74.1282 147.166 50.9728 147.166 50.9728C144.226 51.2593 141.342 51.9643 138.602 53.0664C137.719 53.4292 136.953 54.0294 136.39 54.8005C135.827 55.5716 135.488 56.4835 135.412 57.4351C134.609 69.4164 134.987 81.4476 136.543 93.3547C139.439 115.896 142.127 150.95 142.127 150.95C142.127 150.95 165.196 149.987 182.995 146.233C180.824 129.002 173.397 100.124 173.327 92.3916C173.244 82.4399 173.474 62.9762 173.788 54.8529C173.854 53.7409 173.525 52.6413 172.86 51.7477C172.195 50.8541 171.236 50.2238 170.151 49.9678C167.948 49.536 165.694 49.4162 163.458 49.6119Z" fill="white"/>
<path d="M158.02 147.21C154.014 125.108 150.838 92.6777 150.58 88.7766H150.936C151.194 92.6777 154.377 125.066 158.376 147.168L158.02 147.21Z" fill="white"/>
<path d="M156.024 107.891H134.749C134.319 107.872 133.908 107.714 133.575 107.441C133.243 107.168 133.008 106.795 132.906 106.377L125.794 73.3186C125.742 73.1382 125.733 72.9479 125.769 72.7636C125.805 72.5792 125.884 72.4059 126 72.2581C126.115 72.1102 126.265 71.992 126.435 71.9131C126.606 71.8342 126.792 71.7969 126.98 71.8043H148.248C148.679 71.8222 149.092 71.9795 149.426 72.2526C149.76 72.5258 149.995 72.8999 150.098 73.3186L157.211 106.377C157.263 106.557 157.271 106.748 157.235 106.932C157.199 107.116 157.12 107.29 157.005 107.438C156.889 107.585 156.739 107.704 156.569 107.783C156.398 107.861 156.212 107.899 156.024 107.891Z" fill="white"/>
<path d="M155.361 108.171H133.723C133.286 108.15 132.866 107.989 132.528 107.711C132.19 107.433 131.95 107.053 131.845 106.628L124.607 73.0116C124.555 72.8274 124.548 72.6335 124.585 72.4458C124.622 72.2581 124.704 72.0819 124.822 71.9316C124.94 71.7812 125.093 71.661 125.266 71.5806C125.44 71.5003 125.63 71.4621 125.822 71.4693H147.46C147.897 71.4897 148.316 71.6508 148.655 71.9287C148.993 72.2067 149.232 72.5865 149.337 73.0116L156.569 106.628C156.622 106.812 156.631 107.006 156.594 107.193C156.558 107.381 156.477 107.558 156.36 107.708C156.242 107.859 156.09 107.979 155.916 108.06C155.742 108.14 155.552 108.178 155.361 108.171Z" fill="#407BFF"/>
<path d="M157.839 89.2023L152.457 88.9999C151.81 88.9777 151.166 89.0918 150.566 89.3349L147.774 90.4515C147.512 90.5552 147.274 90.7108 147.073 90.9087C146.873 91.1067 146.714 91.3431 146.607 91.6038C146.501 91.8644 146.447 92.1439 146.451 92.4256C146.455 92.7073 146.515 92.9853 146.629 93.243L147.746 95.6577C147.971 96.126 148.351 96.5024 148.821 96.7235C149.292 96.9447 149.824 96.9971 150.328 96.8719L153.407 96.1043C153.407 96.1043 159.186 95.6437 159.395 92.6149L157.839 89.2023Z" fill="#FFB573"/>
<path d="M172.699 52.6058C174.032 54.6994 175.254 56.6116 176.454 58.6633C177.655 60.7151 178.835 62.7459 179.944 64.8674C181.054 66.989 182.108 69.1803 183.064 71.5251C183.561 72.7531 183.985 74.0091 184.335 75.2867C184.785 76.8438 184.992 78.4609 184.949 80.0811V80.3533C184.951 80.3997 184.951 80.4463 184.949 80.4928C184.949 80.7441 184.879 80.9953 184.83 81.2465C184.782 81.4978 184.719 81.6932 184.649 81.9444C184.579 82.1956 184.502 82.3282 184.426 82.5236C184.159 83.1275 183.816 83.695 183.406 84.2125C182.836 84.9249 182.188 85.571 181.473 86.1386C180.375 87.0032 179.208 87.7759 177.983 88.4486C175.828 89.6266 173.61 90.6843 171.338 91.6169C169.139 92.5521 166.948 93.4035 164.742 94.2061C162.536 95.0086 160.365 95.7833 158.069 96.5509L155.41 87.7577C157.504 87.1854 159.64 86.4806 161.727 85.7688C163.814 85.0569 165.915 84.2614 167.897 83.4309C169.842 82.6274 171.739 81.7116 173.579 80.6882C174.355 80.2581 175.095 79.7656 175.791 79.2157C175.974 79.077 176.138 78.9151 176.28 78.7342C176.22 78.8019 176.172 78.8799 176.14 78.9645C176.14 79.0273 176.105 79.0692 176.07 79.1459C176.043 79.2279 176.022 79.3119 176.008 79.3972C175.978 79.5044 175.96 79.6143 175.952 79.7252C175.952 79.767 175.952 79.774 175.952 79.7601V79.7112C175.903 79.0491 175.774 78.3952 175.568 77.7641C175.289 76.8505 174.958 75.9534 174.577 75.0773C173.723 73.1457 172.759 71.2652 171.687 69.4455C170.598 67.5752 169.439 65.7049 168.197 63.8625C166.955 62.0201 165.684 60.1847 164.407 58.5098L172.699 52.6058Z" fill="#407BFF"/>
<g opacity="0.7">
<path d="M172.699 52.6058C174.032 54.6994 175.254 56.6116 176.454 58.6633C177.655 60.7151 178.835 62.7459 179.944 64.8674C181.054 66.989 182.108 69.1803 183.064 71.5251C183.561 72.7531 183.985 74.0091 184.335 75.2867C184.785 76.8438 184.992 78.4609 184.949 80.0811V80.3533C184.951 80.3997 184.951 80.4463 184.949 80.4928C184.949 80.7441 184.879 80.9953 184.83 81.2465C184.782 81.4978 184.719 81.6932 184.649 81.9444C184.579 82.1956 184.502 82.3282 184.426 82.5236C184.159 83.1275 183.816 83.695 183.406 84.2125C182.836 84.9249 182.188 85.571 181.473 86.1386C180.375 87.0032 179.208 87.7759 177.983 88.4486C175.828 89.6266 173.61 90.6843 171.338 91.6169C169.139 92.5521 166.948 93.4035 164.742 94.2061C162.536 95.0086 160.365 95.7833 158.069 96.5509L155.41 87.7577C157.504 87.1854 159.64 86.4806 161.727 85.7688C163.814 85.0569 165.915 84.2614 167.897 83.4309C169.842 82.6274 171.739 81.7116 173.579 80.6882C174.355 80.2581 175.095 79.7656 175.791 79.2157C175.974 79.077 176.138 78.9151 176.28 78.7342C176.22 78.8019 176.172 78.8799 176.14 78.9645C176.14 79.0273 176.105 79.0692 176.07 79.1459C176.043 79.2279 176.022 79.3119 176.008 79.3972C175.978 79.5044 175.96 79.6143 175.952 79.7252C175.952 79.767 175.952 79.774 175.952 79.7601V79.7112C175.903 79.0491 175.774 78.3952 175.568 77.7641C175.289 76.8505 174.958 75.9534 174.577 75.0773C173.723 73.1457 172.759 71.2652 171.687 69.4455C170.598 67.5752 169.439 65.7049 168.197 63.8625C166.955 62.0201 165.684 60.1847 164.407 58.5098L172.699 52.6058Z" fill="white"/>
</g>
<path d="M165.635 76.822C165.589 76.8214 165.543 76.8089 165.503 76.7857C165.463 76.7625 165.429 76.7294 165.405 76.6894C165.385 76.6589 165.371 76.6247 165.364 76.5886C165.357 76.5526 165.357 76.5155 165.365 76.4796C165.373 76.4438 165.388 76.4099 165.409 76.38C165.43 76.3501 165.458 76.3248 165.489 76.3056L166.578 75.6077C167.594 74.9668 168.392 74.0325 168.865 72.9284C169.339 71.8243 169.466 70.6025 169.23 69.4245L167.038 58.3283C166.878 57.4987 166.442 56.7474 165.802 56.1959C165.161 55.6445 164.354 55.3252 163.509 55.2897C162.665 55.2542 161.833 55.5045 161.149 56.0002C160.464 56.4959 159.967 57.208 159.737 58.0213L156.631 68.9011C156.292 70.0512 156.311 71.2772 156.685 72.4165C157.059 73.5557 157.77 74.5543 158.725 75.2797L159.758 76.0613C159.816 76.1068 159.854 76.1734 159.863 76.2466C159.873 76.3199 159.852 76.3938 159.807 76.4521C159.785 76.4807 159.758 76.5047 159.727 76.5226C159.696 76.5405 159.661 76.5521 159.625 76.5566C159.59 76.5612 159.553 76.5586 159.519 76.5491C159.484 76.5395 159.452 76.5232 159.423 76.501L158.446 75.7263C157.396 74.9361 156.612 73.8454 156.197 72.5989C155.782 71.3525 155.755 70.0093 156.122 68.7476L159.235 57.8677C159.502 56.9387 160.074 56.1264 160.858 55.5611C161.642 54.9959 162.594 54.7104 163.56 54.7507C164.526 54.7909 165.45 55.1545 166.185 55.783C166.92 56.4116 167.422 57.2686 167.611 58.2167L169.803 69.3199C170.061 70.6067 169.923 71.9418 169.406 73.1482C168.888 74.3546 168.016 75.3754 166.906 76.0753L165.81 76.7732C165.786 76.7927 165.758 76.8071 165.728 76.8155C165.698 76.8239 165.666 76.8261 165.635 76.822Z" fill="#263238"/>
<path d="M167.311 58.5587L159.472 58.2307C159.435 58.2289 159.4 58.2199 159.366 58.2042C159.333 58.1885 159.303 58.1664 159.279 58.1391C159.254 58.1119 159.235 58.0801 159.223 58.0455C159.21 58.0109 159.205 57.9742 159.207 57.9376C159.214 57.8648 159.248 57.7972 159.302 57.7481C159.356 57.6991 159.427 57.672 159.5 57.6724L167.332 58.0004C167.368 58.0022 167.404 58.0112 167.437 58.0269C167.471 58.0426 167.5 58.0647 167.525 58.0919C167.55 58.1191 167.569 58.1509 167.581 58.1855C167.593 58.2201 167.599 58.2568 167.597 58.2935C167.596 58.3298 167.588 58.3656 167.573 58.3988C167.558 58.4319 167.536 58.4618 167.51 58.4865C167.483 58.5112 167.452 58.5303 167.418 58.5427C167.383 58.5551 167.347 58.5605 167.311 58.5587Z" fill="#263238"/>
<path d="M163.5 55.3066C163.427 55.3049 163.358 55.2759 163.306 55.2254C163.255 55.1749 163.224 55.1067 163.22 55.0344C163.22 53.6387 162.788 51.2171 161.482 50.6867C161.446 50.6745 161.413 50.6552 161.385 50.6297C161.356 50.6042 161.333 50.5732 161.318 50.5386C161.302 50.504 161.293 50.4665 161.292 50.4284C161.291 50.3903 161.298 50.3525 161.312 50.3172C161.327 50.2819 161.348 50.2498 161.375 50.2231C161.402 50.1964 161.435 50.1755 161.47 50.1617C161.506 50.148 161.544 50.1416 161.582 50.1431C161.62 50.1446 161.657 50.1538 161.692 50.1702C163.625 50.9658 163.786 54.6087 163.786 55.0554C163.786 55.1289 163.758 55.1996 163.707 55.2529C163.656 55.3062 163.587 55.3379 163.514 55.3415L163.5 55.3066Z" fill="#263238"/>
<path d="M139.523 64.7907H139.467C139.395 64.7756 139.332 64.7326 139.292 64.6712C139.251 64.6098 139.237 64.5348 139.251 64.4627C140.172 59.8776 143.983 52.6407 147.341 50.5052C147.371 50.4862 147.406 50.4734 147.441 50.4676C147.477 50.4619 147.513 50.4633 147.548 50.4717C147.583 50.4802 147.616 50.4955 147.646 50.5168C147.675 50.5381 147.699 50.565 147.718 50.5959C147.738 50.6258 147.752 50.6596 147.759 50.6951C147.766 50.7306 147.765 50.7671 147.757 50.8024C147.749 50.8377 147.734 50.871 147.713 50.9003C147.692 50.9296 147.665 50.9543 147.634 50.9728C144.388 53.0245 140.689 60.0451 139.795 64.5604C139.784 64.6245 139.751 64.6826 139.701 64.7247C139.651 64.7667 139.588 64.7901 139.523 64.7907Z" fill="#263238"/>
<path d="M141.813 65.5095C141.38 66.6191 140.417 67.2891 139.719 67.0029C139.021 66.7168 138.749 65.6072 139.181 64.4696C139.614 63.3321 140.577 62.6901 141.275 62.9832C141.973 63.2763 142.253 64.3999 141.813 65.5095Z" fill="white"/>
<path d="M160.24 76.3195C160.24 76.8359 159.919 77.2477 159.577 77.2337C159.235 77.2198 158.969 76.7871 158.99 76.2637C159.011 75.7403 159.311 75.3285 159.654 75.3495C159.996 75.3704 160.261 75.7961 160.24 76.3195Z" fill="white"/>
<path d="M166.257 76.5708C166.257 77.0872 165.943 77.499 165.594 77.485C165.245 77.4711 164.993 77.0384 165.014 76.515C165.035 75.9916 165.329 75.5868 165.712 75.6008C166.096 75.6147 166.278 76.0683 166.257 76.5708Z" fill="white"/>
<path d="M284.624 66.8913L283.926 66.8494C284.042 65.3636 283.848 63.8699 283.356 62.4631C282.864 61.0562 282.085 59.7669 281.068 58.677C280.052 57.5871 278.82 56.7203 277.45 56.1317C276.081 55.5431 274.604 55.2455 273.114 55.2577V54.5599C274.7 54.5464 276.271 54.8627 277.729 55.4886C279.186 56.1145 280.498 57.0364 281.58 58.1959C282.662 59.3553 283.491 60.727 284.015 62.2239C284.539 63.7207 284.746 65.3102 284.624 66.8913Z" fill="#407BFF"/>
<path d="M284.992 69.8174L284.587 75.5958L285.285 75.6446L285.69 69.8662L284.992 69.8174Z" fill="#407BFF"/>
<path d="M273.114 57.0025H224.952C222.322 57.0457 219.801 58.0656 217.882 59.8637C215.962 61.6618 214.78 64.1096 214.565 66.7309L214.126 73.2141C214.026 74.4616 214.187 75.7162 214.599 76.898C215.011 78.0798 215.664 79.1628 216.518 80.0781C217.372 80.9933 218.407 81.7207 219.557 82.2139C220.707 82.7071 221.948 82.9552 223.2 82.9425H271.362L280.701 88.6999L282.181 66.7309C282.282 65.4837 282.121 64.2293 281.71 63.0475C281.299 61.8657 280.646 60.7826 279.793 59.8672C278.94 58.9518 277.906 58.2243 276.755 57.7311C275.605 57.2378 274.365 56.9897 273.114 57.0025Z" fill="#407BFF"/>
<path d="M270.671 66.2912H226.062V67.9103H270.671V66.2912Z" fill="white"/>
<path d="M270.28 72.0347H237.159V73.6537H270.28V72.0347Z" fill="white"/>
<path d="M200.661 91.6868H249.884C251.164 91.6729 252.432 91.926 253.609 92.4298C254.785 92.9337 255.844 93.6772 256.717 94.613C257.59 95.5488 258.258 96.6562 258.679 97.8647C259.099 99.0731 259.263 100.356 259.161 101.631L258.714 108.261C258.493 110.94 257.284 113.441 255.322 115.279C253.36 117.116 250.785 118.16 248.097 118.206H198.867L188.523 124.103L190.045 101.631C190.264 98.9521 191.473 96.4502 193.435 94.6122C195.397 92.7742 197.973 91.7315 200.661 91.6868Z" fill="white"/>
<path opacity="0.15" d="M200.661 91.6868H249.884C251.164 91.6729 252.432 91.926 253.609 92.4298C254.785 92.9337 255.844 93.6772 256.717 94.613C257.59 95.5488 258.258 96.6562 258.679 97.8647C259.099 99.0731 259.263 100.356 259.161 101.631L258.714 108.261C258.493 110.94 257.284 113.441 255.322 115.279C253.36 117.116 250.785 118.16 248.097 118.206H198.867L188.523 124.103L190.045 101.631C190.264 98.9521 191.473 96.4502 193.435 94.6122C195.397 92.7742 197.973 91.7315 200.661 91.6868Z" fill="#407BFF"/>
<path opacity="0.5" d="M247.385 101.185H201.764V102.846H247.385V101.185Z" fill="#407BFF"/>
<path opacity="0.5" d="M219.396 107.054H201.366V108.715H219.396V107.054Z" fill="#407BFF"/>
<path opacity="0.5" d="M235.331 107.054H223.814V108.715H235.331V107.054Z" fill="#407BFF"/>
</svg>
