<svg width="320" height="298" viewBox="0 0 322 299" fill="none" xmlns="http://www.w3.org/2000/svg">
<path d="M161.063 298.584C249.619 298.584 321.408 261.832 321.408 216.497C321.408 171.161 249.619 134.41 161.063 134.41C72.5072 134.41 0.718262 171.161 0.718262 216.497C0.718262 261.832 72.5072 298.584 161.063 298.584Z" fill="#FAFAFA"/>
<path d="M252.475 269.488C276.603 269.488 296.162 257.406 296.162 242.502C296.162 227.598 276.603 215.516 252.475 215.516C228.347 215.516 208.788 227.598 208.788 242.502C208.788 257.406 228.347 269.488 252.475 269.488Z" fill="#E0E0E0"/>
<path d="M148.769 194.079L120.776 177.922C120.311 177.684 119.796 177.56 119.274 177.56C118.752 177.56 118.237 177.684 117.773 177.922L24.9905 231.498C24.8087 231.559 24.6506 231.675 24.5385 231.831C24.4265 231.986 24.3662 232.173 24.3662 232.365C24.3662 232.556 24.4265 232.743 24.5385 232.899C24.6506 233.054 24.8087 233.171 24.9905 233.231L52.9777 249.395C53.4439 249.628 53.9579 249.749 54.4791 249.749C55.0003 249.749 55.5144 249.628 55.9806 249.395L64.2505 244.618L140.493 200.716L148.776 195.846C148.963 195.785 149.127 195.667 149.242 195.508C149.358 195.349 149.42 195.157 149.419 194.96C149.418 194.763 149.355 194.572 149.238 194.413C149.121 194.255 148.957 194.138 148.769 194.079Z" fill="#E0E0E0"/>
<path d="M274.611 232.466L270.284 230.168C270.284 230.168 270.707 209.047 275.088 192.688C279.575 175.94 292.635 157.439 304.976 164.372C317.317 171.305 295.383 185.554 288.786 199.306C282.188 213.057 274.611 232.466 274.611 232.466Z" fill="#6ABC81"/>
<path opacity="0.15" d="M274.611 232.466L270.284 230.168C270.284 230.168 270.707 209.047 275.088 192.688C279.575 175.94 292.635 157.439 304.976 164.372C317.317 171.305 295.383 185.554 288.786 199.306C282.188 213.057 274.611 232.466 274.611 232.466Z" fill="black"/>
<path d="M274.04 227.454C273.982 227.452 273.926 227.439 273.874 227.416C273.821 227.392 273.774 227.358 273.735 227.317C273.695 227.275 273.665 227.226 273.644 227.172C273.624 227.118 273.615 227.061 273.616 227.004C274.544 194.227 288.873 174.214 300.865 167.039C300.964 166.979 301.084 166.962 301.197 166.99C301.309 167.018 301.406 167.09 301.466 167.19C301.526 167.29 301.543 167.409 301.515 167.522C301.486 167.635 301.414 167.732 301.315 167.791C289.511 174.852 275.41 194.603 274.49 227.024C274.489 227.082 274.477 227.139 274.453 227.192C274.43 227.245 274.397 227.293 274.355 227.333C274.313 227.373 274.263 227.405 274.209 227.425C274.155 227.446 274.098 227.456 274.04 227.454Z" fill="white"/>
<path d="M276.565 233.473L272.703 231.491C272.703 231.491 273.18 221.119 281.127 207.602C288.181 195.597 302.477 186.192 308.483 189.544C313.145 192.137 314.22 197.821 309.752 201.603C305.285 205.385 284.661 213.319 276.565 233.473Z" fill="#6ABC81"/>
<path d="M275.014 230.161C275.685 230.296 275.921 228.636 276.055 228.213C276.31 227.42 276.579 226.641 276.875 225.862C277.453 224.346 278.11 222.862 278.843 221.414C280.254 218.631 281.906 215.976 283.781 213.481C285.533 211.144 287.443 208.931 289.498 206.857C291.352 204.991 293.303 203.224 295.342 201.563C297.049 200.165 298.822 198.842 300.643 197.599C301.986 196.686 303.33 195.812 304.734 194.993C305.466 194.563 306.199 194.139 306.958 193.75L307.173 193.642C307.293 193.584 307.385 193.479 307.428 193.353C307.472 193.226 307.463 193.087 307.404 192.967C307.346 192.847 307.241 192.755 307.115 192.711C306.988 192.668 306.85 192.677 306.729 192.735C306.259 192.964 305.809 193.219 305.386 193.474C304.203 194.146 303.048 194.818 301.912 195.57C300.228 196.659 298.585 197.81 296.981 199.023C294.993 200.528 293.083 202.125 291.251 203.813C289.163 205.726 287.197 207.767 285.366 209.927C283.381 212.255 281.583 214.737 279.992 217.35C278.298 220.116 276.881 223.041 275.759 226.083C275.549 226.67 275.347 227.255 275.155 227.837C274.872 228.418 274.701 229.047 274.651 229.691C274.659 229.793 274.696 229.891 274.756 229.974C274.816 230.057 274.899 230.122 274.994 230.161H275.014Z" fill="white"/>
<path d="M55.7857 214.045C55.7857 214.045 55.8932 200.871 50.7136 189.968C45.534 179.064 37.4321 171.688 29.216 170.002C20.9999 168.315 13.422 175.101 21.618 181.422C29.8139 187.744 44.8689 195.06 49.679 215.536L55.7857 214.045Z" fill="#5AA06E"/>
<path opacity="0.15" d="M55.7857 214.045C55.7857 214.045 55.8932 200.871 50.7136 189.968C45.534 179.064 37.4321 171.688 29.216 170.002C20.9999 168.315 13.422 175.101 21.618 181.422C29.8139 187.744 44.8689 195.06 49.679 215.536L55.7857 214.045Z" fill="black"/>
<path d="M52.3594 211.767C52.2737 211.768 52.1912 211.735 52.1288 211.676C52.0663 211.618 52.0287 211.537 52.0235 211.452C50.7606 190.364 33.3878 176.653 24.8023 174.315C24.717 174.291 24.6445 174.235 24.6005 174.158C24.5564 174.081 24.5445 173.99 24.5671 173.905C24.5908 173.818 24.6477 173.744 24.7257 173.698C24.8037 173.653 24.8964 173.64 24.9836 173.663C33.717 176.048 51.4122 189.988 52.6953 211.411C52.6974 211.5 52.6661 211.585 52.6075 211.652C52.5489 211.718 52.4675 211.759 52.3796 211.767H52.3594Z" fill="white"/>
<path d="M56.847 232.13C58.5112 230.03 59.628 227.549 60.097 224.911C60.566 222.273 60.3726 219.559 59.5341 217.014C59.0465 215.477 58.2663 214.049 57.2366 212.809C56.4103 211.835 55.2212 211.331 54.2538 210.518C52.1712 208.791 49.7528 206.957 49.0003 204.216C48.3957 202.033 48.5234 199.964 47.3141 197.915C46.6016 196.632 45.467 195.635 44.1029 195.093C42.3227 194.422 40.361 194.865 38.48 195.093C35.7928 195.396 33.7774 194.469 31.453 193.232C28.8934 191.889 25.9039 190.827 23.1294 191.654C22.227 191.921 21.3909 192.375 20.6752 192.986C19.9596 193.597 19.3803 194.352 18.9749 195.201C18.5696 196.051 18.3472 196.976 18.3222 197.917C18.2972 198.857 18.4702 199.793 18.8299 200.663C19.4479 202.167 20.59 203.39 21.4297 204.787C22.2695 206.185 22.7129 207.784 22.1015 209.309C21.6313 210.437 20.7579 211.324 20.4086 212.473C19.4143 215.496 19.9719 218.183 22.9749 219.742C26.1122 221.347 31.0364 220.138 32.6085 224.081C33.1996 225.58 33.2198 227.239 33.5423 228.818C34.2041 231.995 36.0514 234.801 38.7084 236.664C42.3159 239.17 47.2134 238.559 50.9553 236.812C53.2542 235.727 55.2707 234.124 56.847 232.13Z" fill="#6ABC81"/>
<path d="M28.5644 213.051C28.6378 213.063 28.7133 213.051 28.7794 213.017C31.4254 211.994 34.265 211.57 37.0944 211.774C39.9238 211.979 42.6729 212.807 45.1444 214.199C45.2291 214.245 45.3282 214.255 45.4202 214.227C45.5121 214.199 45.5893 214.136 45.6348 214.052C45.6584 214.01 45.6735 213.965 45.6792 213.917C45.6848 213.87 45.681 213.822 45.6678 213.777C45.6547 213.731 45.6325 213.688 45.6026 213.651C45.5727 213.614 45.5357 213.584 45.4938 213.561C42.926 212.119 40.0707 211.264 37.133 211.057C34.1953 210.85 31.2484 211.297 28.504 212.365C28.4394 212.401 28.3872 212.455 28.3542 212.521C28.3212 212.587 28.309 212.661 28.3192 212.734C28.3294 212.807 28.3615 212.875 28.4113 212.929C28.4611 212.983 28.5262 213.021 28.598 213.037L28.5644 213.051Z" fill="white"/>
<path d="M52.0234 232.244C51.9355 232.246 51.8503 232.213 51.7862 232.153C51.7222 232.092 51.6843 232.009 51.6808 231.921C51.0561 216.739 35.8129 200.683 25.5949 196.316C25.5536 196.299 25.5161 196.274 25.4846 196.243C25.4531 196.211 25.4281 196.174 25.4112 196.132C25.3944 196.091 25.3859 196.047 25.3862 196.002C25.3866 195.958 25.3959 195.914 25.4135 195.873C25.4503 195.79 25.5182 195.725 25.6025 195.693C25.6869 195.66 25.7807 195.662 25.8636 195.698C36.2429 200.145 51.7211 216.47 52.3593 231.908C52.3611 231.953 52.354 231.998 52.3385 232.04C52.3229 232.082 52.2991 232.121 52.2686 232.154C52.238 232.187 52.2012 232.214 52.1603 232.233C52.1194 232.252 52.0752 232.262 52.0302 232.264L52.0234 232.244Z" fill="white"/>
<path d="M136.16 15.2998L60.1257 59.1817C59.3728 59.6732 58.747 60.3362 58.2998 61.1162C57.8525 61.8963 57.5965 62.7712 57.5527 63.6693V242.724C57.5527 244.363 58.7082 245.028 60.1257 244.202L136.16 200.307C136.908 199.816 137.53 199.157 137.977 198.382C138.424 197.608 138.683 196.739 138.733 195.846V16.7643C138.733 15.1251 137.577 14.4533 136.16 15.2998ZM135.031 182.578C135.031 183.982 134.044 184.875 132.828 185.574L63.2026 225.788C61.9933 226.46 60.9991 225.922 60.9991 224.511V75.6072C60.9993 74.8373 61.2025 74.081 61.5882 73.4146C61.9739 72.7483 62.5284 72.1953 63.1958 71.8115L132.821 31.5909C133.045 31.4612 133.298 31.3925 133.557 31.3919C133.815 31.3913 134.069 31.4587 134.293 31.5874C134.517 31.7161 134.703 31.9015 134.833 32.125C134.962 32.3486 135.031 32.6023 135.031 32.8606V182.578Z" fill="#455A64"/>
<path d="M135.031 182.578C135.031 183.982 134.044 184.875 132.828 185.574L63.2025 225.788C61.9933 226.46 60.999 225.922 60.999 224.511V75.6072C60.9993 74.8372 61.2025 74.081 61.5882 73.4146C61.9738 72.7482 62.5283 72.1953 63.1958 71.8115L132.821 31.5909C133.044 31.4611 133.298 31.3925 133.557 31.3918C133.815 31.3912 134.069 31.4587 134.293 31.5874C134.517 31.7161 134.703 31.9015 134.833 32.125C134.962 32.3485 135.031 32.6022 135.031 32.8606V182.578Z" fill="#263238"/>
<path d="M63.2025 225.788L132.828 185.587C133.317 185.323 133.768 184.996 134.171 184.613L60.999 143.405V224.511C60.999 225.922 61.9933 226.487 63.2025 225.788Z" fill="#37474F"/>
<path d="M129.395 179.964V33.5727L63.1958 71.8115C62.5283 72.1953 61.9738 72.7482 61.5882 73.4146C61.2025 74.081 60.9993 74.8372 60.999 75.6072V221.179L127.191 182.961C128.407 182.262 129.395 181.368 129.395 179.964Z" fill="#2C7BE5"/>
<path d="M59.8032 244.383C59.0355 244.707 58.2065 244.86 57.3738 244.832C56.541 244.805 55.7241 244.596 54.9797 244.222L52.0372 242.522C51.2864 242.036 50.6612 241.379 50.2128 240.605C49.7645 239.831 49.5057 238.962 49.4575 238.068V58.9667C49.4744 58.3029 49.6253 57.6494 49.9009 57.0454C49.995 56.8371 50.0957 56.6356 50.2099 56.4273L58.2715 61.1299C58.1021 61.4327 57.9539 61.747 57.8281 62.0704C57.6324 62.5791 57.5256 63.1177 57.5124 63.6626V242.724C57.5527 244.235 58.5335 244.921 59.8032 244.383Z" fill="#263238"/>
<path d="M100.413 208.308C102.059 208.308 102.234 210.155 102.234 210.948C102.135 212.536 101.67 214.08 100.874 215.458C100.077 216.836 98.9724 218.01 97.6454 218.889C97.1129 219.227 96.5019 219.421 95.8718 219.453C94.2259 219.453 94.0513 217.605 94.0513 216.813C94.1504 215.224 94.6156 213.681 95.4104 212.302C96.2052 210.923 97.3081 209.747 98.6329 208.865C99.1699 208.532 99.7823 208.341 100.413 208.308Z" fill="#2C7BE5"/>
<path d="M98.0889 40.0959C98.7607 39.6928 99.3452 40.0153 99.3452 40.8214C99.3208 41.2573 99.1944 41.6813 98.9762 42.0593C98.758 42.4374 98.4541 42.7589 98.0889 42.9981C97.4171 43.3944 96.8259 43.072 96.8259 42.2725C96.8489 41.8356 96.9754 41.4104 97.195 41.032C97.4146 40.6535 97.721 40.3327 98.0889 40.0959Z" fill="#263238"/>
<path d="M89.9736 50.7036C90.5916 50.3475 91.0888 50.6364 91.0888 51.3754C91.0683 51.762 90.9566 52.1382 90.7627 52.4733C90.5689 52.8084 90.2985 53.0929 89.9736 53.3034C89.3555 53.6595 88.8584 53.3706 88.8584 52.6316C88.8799 52.2453 88.9921 51.8694 89.1859 51.5345C89.3796 51.1995 89.6494 50.9149 89.9736 50.7036Z" fill="#263238"/>
<path d="M93.7019 48.5001L106.191 41.2917C106.862 40.8954 107.427 41.1775 107.427 41.9165C107.394 42.3315 107.265 42.7332 107.051 43.0899C106.836 43.4467 106.542 43.7487 106.191 43.9722L93.7019 51.1806C93.0301 51.577 92.4658 51.2948 92.4658 50.5558C92.4986 50.1409 92.6273 49.7392 92.8418 49.3824C93.0563 49.0257 93.3507 48.7236 93.7019 48.5001Z" fill="#263238"/>
<path d="M138.706 16.3545C138.518 15.0109 137.45 14.5339 136.167 15.2796L60.1189 59.1817C59.3579 59.6541 58.7328 60.3162 58.305 61.1031L50.2434 56.4005C50.6779 55.6199 51.3046 54.9632 52.064 54.4925L128.065 10.5972C128.862 10.1929 129.744 9.98224 130.638 9.98224C131.532 9.98224 132.413 10.1929 133.211 10.5972L136.167 12.2901C136.855 12.7471 137.438 13.3463 137.876 14.0473C138.314 14.7484 138.597 15.5351 138.706 16.3545Z" fill="#37474F"/>
<path d="M118.76 21.7896C118.366 22.0004 117.927 22.1145 117.479 22.1227C117.032 22.1309 116.589 22.0328 116.187 21.8366C116.053 21.7792 115.936 21.6864 115.85 21.5682C115.763 21.4499 115.71 21.3106 115.697 21.1648C115.697 20.9767 115.697 20.278 115.697 20.0832C115.718 19.9156 115.783 19.7564 115.884 19.621C115.985 19.4856 116.12 19.3787 116.275 19.3106L124.423 14.6081C124.82 14.3988 125.26 14.2855 125.708 14.2773C126.156 14.2692 126.6 14.3663 127.003 14.561C127.135 14.6211 127.25 14.7148 127.334 14.8326C127.419 14.9504 127.472 15.0884 127.487 15.2328C127.487 15.4277 127.487 16.1532 127.487 16.3413C127.466 16.5099 127.401 16.6703 127.3 16.8068C127.199 16.9433 127.064 17.0514 126.909 17.1206L118.76 21.7896Z" fill="#2C7BE5"/>
<path opacity="0.25" d="M118.76 21.7896C118.366 22.0004 117.927 22.1145 117.479 22.1227C117.032 22.1309 116.589 22.0328 116.187 21.8366C116.053 21.7792 115.936 21.6864 115.85 21.5682C115.763 21.4499 115.71 21.3106 115.697 21.1648C115.697 20.9767 115.697 20.278 115.697 20.0832C115.718 19.9156 115.783 19.7564 115.884 19.621C115.985 19.4856 116.12 19.3787 116.275 19.3106L124.423 14.6081C124.82 14.3988 125.26 14.2855 125.708 14.2773C126.156 14.2692 126.6 14.3663 127.003 14.561C127.135 14.6211 127.25 14.7148 127.334 14.8326C127.419 14.9504 127.472 15.0884 127.487 15.2328C127.487 15.4277 127.487 16.1532 127.487 16.3413C127.466 16.5099 127.401 16.6703 127.3 16.8068C127.199 16.9433 127.064 17.0514 126.909 17.1206L118.76 21.7896Z" fill="black"/>
<path d="M118.76 20.7212L126.909 16.0186C127.648 15.5887 127.682 14.9236 126.996 14.5272C126.593 14.3325 126.149 14.2353 125.701 14.2435C125.253 14.2517 124.813 14.365 124.417 14.5742L116.268 19.2768C115.535 19.7001 115.495 20.3651 116.187 20.7615C116.589 20.9572 117.031 21.0555 117.478 21.0485C117.925 21.0415 118.364 20.9294 118.76 20.7212Z" fill="#2C7BE5"/>
<path opacity="0.3" d="M118.76 20.7212L126.909 16.0186C127.648 15.5887 127.682 14.9236 126.996 14.5272C126.593 14.3325 126.149 14.2353 125.701 14.2435C125.253 14.2517 124.813 14.365 124.417 14.5742L116.268 19.2768C115.535 19.7001 115.495 20.3651 116.187 20.7615C116.589 20.9572 117.031 21.0555 117.478 21.0485C117.925 21.0415 118.364 20.9294 118.76 20.7212Z" fill="black"/>
<path d="M54.5496 85.9529C54.5337 85.5058 54.4122 85.0688 54.195 84.6776C53.9778 84.2865 53.6711 83.9523 53.3001 83.7024C53.1785 83.6126 53.0344 83.5582 52.8839 83.5451C52.7333 83.5321 52.5821 83.5609 52.4469 83.6285C52.2924 83.7225 51.6743 84.0651 51.5131 84.1659C51.3782 84.2681 51.272 84.4035 51.2049 84.5589C51.1378 84.7143 51.112 84.8844 51.1301 85.0527V105.019C51.1464 105.465 51.2673 105.901 51.4832 106.292C51.6991 106.683 52.0039 107.018 52.373 107.269C52.4944 107.351 52.6348 107.4 52.7807 107.412C52.9266 107.423 53.073 107.397 53.206 107.336C53.3807 107.249 54.0054 106.886 54.1734 106.785C54.3083 106.683 54.4145 106.548 54.4816 106.392C54.5487 106.237 54.5744 106.067 54.5563 105.899L54.5496 85.9529Z" fill="#2C7BE5"/>
<path opacity="0.3" d="M54.5496 85.9529C54.5337 85.5058 54.4122 85.0688 54.195 84.6776C53.9778 84.2865 53.6711 83.9523 53.3001 83.7024C53.1785 83.6126 53.0344 83.5582 52.8839 83.5451C52.7333 83.5321 52.5821 83.5609 52.4469 83.6285C52.2924 83.7225 51.6743 84.0651 51.5131 84.1659C51.3782 84.2681 51.272 84.4035 51.2049 84.5589C51.1378 84.7143 51.112 84.8844 51.1301 85.0527V105.019C51.1464 105.465 51.2673 105.901 51.4832 106.292C51.6991 106.683 52.0039 107.018 52.373 107.269C52.4944 107.351 52.6348 107.4 52.7807 107.412C52.9266 107.423 53.073 107.397 53.206 107.336C53.3807 107.249 54.0054 106.886 54.1734 106.785C54.3083 106.683 54.4145 106.548 54.4816 106.392C54.5487 106.237 54.5744 106.067 54.5563 105.899L54.5496 85.9529Z" fill="black"/>
<path d="M53.6227 86.5105V106.476C53.6227 107.323 53.0652 107.686 52.3732 107.289C52.0041 107.038 51.6993 106.703 51.4834 106.312C51.2675 105.921 51.1466 105.485 51.1304 105.039V85.0527C51.1304 84.1995 51.688 83.8368 52.3732 84.2331C52.7471 84.4865 53.0554 84.8251 53.2727 85.2211C53.49 85.6171 53.6099 86.059 53.6227 86.5105Z" fill="#2C7BE5"/>
<path opacity="0.4" d="M53.6227 86.5105V106.476C53.6227 107.323 53.0652 107.686 52.3732 107.289C52.0041 107.038 51.6993 106.703 51.4834 106.312C51.2675 105.921 51.1466 105.485 51.1304 105.039V85.0527C51.1304 84.1995 51.688 83.8368 52.3732 84.2331C52.7471 84.4865 53.0554 84.8251 53.2727 85.2211C53.49 85.6171 53.6099 86.059 53.6227 86.5105Z" fill="black"/>
<path d="M54.5496 112.711C54.5337 112.264 54.4122 111.827 54.195 111.435C53.9778 111.044 53.6711 110.71 53.3001 110.46C53.1785 110.37 53.0344 110.316 52.8839 110.303C52.7333 110.29 52.5821 110.319 52.4469 110.386C52.2924 110.48 51.6743 110.823 51.5131 110.924C51.3782 111.026 51.272 111.161 51.2049 111.317C51.1378 111.472 51.112 111.642 51.1301 111.81V121.216C51.1474 121.661 51.2688 122.096 51.4847 122.485C51.7005 122.875 52.0048 123.209 52.373 123.459C52.4904 123.546 52.629 123.6 52.7742 123.616C52.9195 123.631 53.0663 123.607 53.1993 123.547C53.3739 123.459 53.9987 123.097 54.1667 122.996C54.301 122.895 54.4069 122.761 54.474 122.606C54.5411 122.452 54.5672 122.283 54.5496 122.116V112.711Z" fill="#2C7BE5"/>
<path opacity="0.3" d="M54.5496 112.711C54.5337 112.264 54.4122 111.827 54.195 111.435C53.9778 111.044 53.6711 110.71 53.3001 110.46C53.1785 110.37 53.0344 110.316 52.8839 110.303C52.7333 110.29 52.5821 110.319 52.4469 110.386C52.2924 110.48 51.6743 110.823 51.5131 110.924C51.3782 111.026 51.272 111.161 51.2049 111.317C51.1378 111.472 51.112 111.642 51.1301 111.81V121.216C51.1474 121.661 51.2688 122.096 51.4847 122.485C51.7005 122.875 52.0048 123.209 52.373 123.459C52.4904 123.546 52.629 123.6 52.7742 123.616C52.9195 123.631 53.0663 123.607 53.1993 123.547C53.3739 123.459 53.9987 123.097 54.1667 122.996C54.301 122.895 54.4069 122.761 54.474 122.606C54.5411 122.452 54.5672 122.283 54.5496 122.116V112.711Z" fill="black"/>
<path d="M53.6227 113.214V122.62C53.6227 123.466 53.0652 123.836 52.3732 123.433C52.0041 123.181 51.6993 122.846 51.4834 122.455C51.2675 122.065 51.1466 121.628 51.1304 121.182V111.777C51.1304 110.93 51.688 110.561 52.3732 110.957C52.7437 111.209 53.0497 111.545 53.2668 111.937C53.4838 112.329 53.6057 112.767 53.6227 113.214Z" fill="#2C7BE5"/>
<path opacity="0.4" d="M53.6227 113.214V122.62C53.6227 123.466 53.0652 123.836 52.3732 123.433C52.0041 123.181 51.6993 122.846 51.4834 122.455C51.2675 122.065 51.1466 121.628 51.1304 121.182V111.777C51.1304 110.93 51.688 110.561 52.3732 110.957C52.7437 111.209 53.0497 111.545 53.2668 111.937C53.4838 112.329 53.6057 112.767 53.6227 113.214Z" fill="black"/>
<path d="M76.8129 96.0432C76.8797 96.3694 76.9695 96.6904 77.0816 97.0039C77.5183 98.1863 78.3043 99.3015 78.2371 100.564C78.1632 101.989 77.0413 103.09 76.1814 104.226C75.0639 105.727 74.3191 107.472 74.0084 109.318C73.6977 111.163 73.83 113.056 74.3944 114.84C75.2204 117.013 76.3661 119.051 77.7937 120.886L81.0385 125.488C82.0196 126.777 83.2718 127.834 84.7065 128.585C87.4947 130.161 90.6057 131.08 93.8027 131.272C99.0577 131.627 104.285 130.257 108.69 127.369C113.359 124.279 111.303 116.352 116.08 113.456C121.857 109.963 124.611 97.8302 117.531 92.7648C117.531 92.7648 118.673 85.3347 116.577 83.4403C114.488 81.6924 111.903 80.6444 109.187 80.4441C105.438 80.0544 101.683 80.7867 97.941 80.7732C94.0889 80.7608 90.2402 81.0009 86.4196 81.4921C85.076 81.6734 83.1815 82.1639 82.456 83.4739C82.2512 83.9877 82.1953 84.5488 82.2948 85.0929C82.2844 85.9561 81.9758 86.7892 81.4214 87.4509C80.5884 88.4586 79.406 89.1371 78.5193 90.0844C77.7875 90.8742 77.2518 91.8251 76.9554 92.8603C76.659 93.8954 76.6101 94.9858 76.8129 96.0432Z" fill="#263238"/>
<path d="M114.098 106.765C120.144 106.933 120.93 108.223 126.345 113.584C130.846 118.038 145.76 131.803 145.76 131.803L163.629 136.559L159.41 147.463C159.41 147.463 155.38 147.295 147.318 147.288C142.367 147.288 140.647 146.18 135.662 142.854C133.123 141.155 118.794 131.776 118.794 131.776L114.098 106.765Z" fill="#E6E6E6"/>
<path d="M183.401 114.511L150.65 126.053L141.621 165.017L142.354 165.796L173.491 154.181L184.126 115.29L183.401 114.511Z" fill="#2C7BE5"/>
<path opacity="0.35" d="M151.376 126.832L142.354 165.796L141.621 165.017L150.65 126.053L151.376 126.832Z" fill="black"/>
<path opacity="0.25" d="M184.126 115.29L151.376 126.832L142.354 165.796L173.492 154.181L184.126 115.29Z" fill="black"/>
<g opacity="0.2">
<path d="M168.621 146.254C168.923 147.019 171.436 148.706 175.07 148.403L175.681 146.16L168.621 146.254Z" fill="black"/>
</g>
<g opacity="0.1">
<path d="M174.264 123.271L174.533 121.961C174.681 121.242 172.759 121.619 170.24 122.808L164.328 124.595C161.809 125.784 159.431 126.671 159.276 127.389L159.008 128.693L174.264 123.271Z" fill="black"/>
</g>
<path d="M176.212 117.359C176.306 116.909 175.541 117.003 174.513 117.279L172.625 117.917C172.625 117.917 173.398 116.023 168.93 117.245C164.019 118.589 163.912 121.028 163.912 121.028C163.143 121.361 162.356 121.648 161.554 121.887C159.921 122.418 159.747 122.734 159.612 123.191L159.37 124.017L176.065 118.145C176.065 118.145 176.145 117.81 176.212 117.359Z" fill="#37474F"/>
<path d="M174.452 119.865C172.907 120.537 172.269 120.907 172.034 122.022C171.772 123.291 171.718 123.822 171.718 123.822L163.025 127.248C163.025 127.248 163.495 125.374 163.609 124.749C163.723 124.125 162.575 124.125 161.07 124.816L161.426 123.258L174.949 118.24L174.452 119.865Z" fill="#37474F"/>
<path d="M174.707 123.291C174.707 123.291 174.835 122.707 174.983 121.981C175.131 121.256 173.209 121.639 170.69 122.828L164.778 124.615C162.259 125.804 159.874 126.691 159.726 127.41L159.458 128.753L174.707 123.291Z" fill="#37474F"/>
<path d="M180.485 128.619C180.485 128.619 179.323 132.891 179.014 133.993C178.705 135.095 173.344 137.547 170.663 137.883C165.531 138.521 164.946 139.63 166.176 143.257C167.318 146.616 170.657 147.893 175.292 147.349C177.469 147.093 180.472 145.165 181.654 141.799C183.159 137.5 182.326 132.912 182.951 130.379C183.575 127.846 181.788 127.121 180.485 128.619Z" fill="#FFA8A7"/>
<path d="M129.737 187.374L126.264 189.39L124.806 190.23L105.7 201.254L103.094 202.732L98.6934 205.271L100.037 191.56L102.603 165.01V164.735L102.724 163.546L106.083 128.834L107.554 113.644L108.072 108.196L108.246 106.436H108.34C109.896 106.003 111.541 106.003 113.097 106.436C113.444 106.541 113.781 106.676 114.104 106.839C116.12 107.84 117.463 109.788 118.579 111.837C118.853 112.336 119.099 112.85 119.318 113.376C120.146 115.367 120.785 117.432 121.225 119.543C122.106 123.439 123.241 127.423 123.691 133.704C123.762 135.321 123.676 136.941 123.436 138.541C123.133 142.776 123.081 147.025 123.281 151.265C123.846 160.872 126.264 165.225 129.737 187.374Z" fill="#E0E0E0"/>
<path d="M124.806 190.216L105.7 201.24L103.094 202.732L98.6934 205.271L95.6636 207.018L77.2698 217.632C77.4646 210.242 77.5519 202.228 77.3773 194.657C77.3235 192.124 77.3034 189.538 77.4108 186.891C77.7602 177.7 79.5069 167.845 85.768 157.473L86.0569 156.949C86.7959 161.335 93.5139 164.184 99.5601 164.856L100.232 164.916C100.991 164.99 101.777 165.024 102.59 165.024H103.1C108.213 164.977 114.266 163.774 121.239 161.416C121.911 165.313 122.583 170.425 123.301 176.404C123.624 179.091 123.951 181.955 124.282 184.996C124.417 186.696 124.625 188.436 124.806 190.216Z" fill="#FFA8A7"/>
<path d="M126.264 189.376L124.806 190.216L105.7 201.24L103.094 202.732L98.6935 205.271L95.6636 207.018L77.2698 217.632L75.2544 218.794C75.3552 210.84 75.4223 203.047 75.4156 198.157C75.4156 193.609 75.5164 189.564 75.765 185.977C76.2554 178.896 77.2765 173.569 78.9829 169.538C80.985 165.126 83.3536 160.89 86.0636 156.875C86.0636 156.875 87.7431 162.545 100.306 163.438H100.386C101.125 163.492 101.905 163.525 102.724 163.539H103.678C119.318 163.539 121.044 159.595 121.044 159.595C122.572 165.394 123.781 171.272 124.665 177.203C124.997 179.299 125.317 181.539 125.626 183.921C125.854 185.668 126.069 187.482 126.264 189.376Z" fill="#2C7BE5"/>
<path opacity="0.4" d="M126.264 189.376L124.806 190.216L105.7 201.24L103.094 202.732L98.6935 205.271L95.6636 207.018L77.2698 217.632L75.2544 218.794C75.3552 210.84 75.4223 203.047 75.4156 198.157C75.4156 193.609 75.5164 189.564 75.765 185.977C76.2554 178.896 77.2765 173.569 78.9829 169.538C80.985 165.126 83.3536 160.89 86.0636 156.875C86.0636 156.875 87.7431 162.545 100.306 163.438H100.386C101.125 163.492 101.905 163.525 102.724 163.539H103.678C119.318 163.539 121.044 159.595 121.044 159.595C122.572 165.394 123.781 171.272 124.665 177.203C124.997 179.299 125.317 181.539 125.626 183.921C125.854 185.668 126.069 187.482 126.264 189.376Z" fill="black"/>
<path opacity="0.2" d="M117.296 180.462C117.296 180.462 115.549 186.011 108.199 189.121L107.85 190.821L105.7 201.24L103.094 202.732L104.652 191.237L105.324 186.239C109.866 185.768 114.101 183.724 117.296 180.462Z" fill="black"/>
<path d="M94.9447 108.042L87.5549 108.821C82.6642 110.017 80.454 112.18 79.9501 116.5C79.715 118.515 78.4991 123.889 80.2054 130.607C81.7506 136.707 85.8754 151.635 85.8754 151.635C85.8754 151.635 76.3829 164.023 74.6631 185.265C92.0358 196.605 118.686 190.512 125.894 183.659C125.29 177.17 121.145 159.36 120.628 153.576C120.628 153.576 121.01 144.54 121.729 140.624C127.225 134.625 126.526 128.888 124.06 124.259C119.506 115.714 112.64 108.203 110.416 108.21L94.9447 108.042Z" fill="#2C7BE5"/>
<path opacity="0.7" d="M94.9447 108.042L87.5549 108.821C82.6642 110.017 80.454 112.18 79.9501 116.5C79.715 118.515 78.4991 123.889 80.2054 130.607C81.7506 136.707 85.8754 151.635 85.8754 151.635C85.8754 151.635 76.3829 164.023 74.6631 185.265C92.0358 196.605 118.686 190.512 125.894 183.659C125.29 177.17 121.145 159.36 120.628 153.576C120.628 153.576 121.01 144.54 121.729 140.624C127.225 134.625 126.526 128.888 124.06 124.259C119.506 115.714 112.64 108.203 110.416 108.21L94.9447 108.042Z" fill="white"/>
<path d="M101.347 154.295C101.347 154.429 101.347 154.55 101.347 154.651V154.826C101.351 154.882 101.351 154.938 101.347 154.994C101.092 157.681 100.79 160.536 100.467 163.445C100.467 163.445 100.467 163.445 100.467 163.485C100.42 163.955 100.366 164.426 100.313 164.903C99.325 173.67 98.1494 183.041 97.2424 191.573C97.0207 193.642 96.8192 195.658 96.6378 197.619C96.3557 200.555 96.0534 203.773 95.7443 207.025L77.3505 217.639L75.3351 218.801L70.1958 221.764C71.2304 211.586 73.6421 188.006 74.9857 177.365C75.1402 176.162 75.3418 174.96 75.5702 173.764L75.7516 172.89L75.8322 172.534C75.9195 172.131 76.0069 171.742 76.1009 171.345C76.195 170.949 76.2823 170.613 76.3696 170.257C76.5779 169.444 76.7996 168.645 77.0414 167.865C77.1556 167.489 77.2631 167.113 77.3841 166.743C77.505 166.374 77.6057 166.004 77.7267 165.642C77.9685 164.916 78.2036 164.204 78.4522 163.512C78.4493 163.499 78.4493 163.485 78.4522 163.472C78.5664 163.143 78.6873 162.8 78.8083 162.491C78.9695 162.034 79.1375 161.591 79.3054 161.147L79.5069 160.617C79.6077 160.375 79.695 160.14 79.7891 159.905C80.1183 159.078 80.4609 158.292 80.7632 157.56C80.8304 157.399 80.9043 157.237 80.9715 157.083C81.0386 156.928 81.1461 156.7 81.2267 156.512C81.4283 156.042 81.6298 155.605 81.8246 155.168C81.9053 154.98 81.9926 154.799 82.0732 154.624C82.1538 154.45 82.268 154.221 82.3554 154.033L82.483 153.764L82.6174 153.502C82.6262 153.468 82.6422 153.436 82.6644 153.408C82.6827 153.359 82.7052 153.312 82.7316 153.267C82.7478 153.237 82.7613 153.206 82.7719 153.173C82.8278 153.078 82.8772 152.979 82.9197 152.878L83.3698 152.004C83.3698 151.957 83.4168 151.924 83.4302 151.883L83.6049 151.561L78.0155 128.384L75.2343 116.869V116.681C75.3619 115.66 76.2151 110.843 81.1327 109.379C83.909 108.662 86.7528 108.239 89.6175 108.116C90.7193 108.048 91.7135 108.021 92.5264 108.001H93.8095H94.5821C94.5839 108.017 94.5839 108.033 94.5821 108.048C94.6224 108.149 94.7366 108.451 94.9113 108.922C94.9302 109 94.9572 109.077 94.9919 109.15C94.9926 109.161 94.9926 109.173 94.9919 109.184C96.2011 112.502 99.5937 122.163 101.28 130.554C101.576 132.005 101.817 133.422 101.992 134.766C102.496 138.965 102.126 145.992 101.347 154.295Z" fill="#FAFAFA"/>
<path d="M83.7862 140.463C83.7862 140.463 84.458 137.151 85.4456 129.996C86.5944 121.746 86.1846 117.669 84.9417 115.062L77.9349 128.424L83.5242 151.601C83.5242 151.601 77.7804 162.121 75.4626 173.77C80.958 158.245 86.9706 153.617 86.9706 153.617L83.7862 140.463Z" fill="#E6E6E6"/>
<path d="M108.334 102.869C110.51 102.869 110.766 103.232 112.64 105.744C113.755 107.242 120.816 118.898 120.816 118.898C120.816 118.898 115.2 111.508 110.96 109.264C110.144 108.786 109.261 108.433 108.34 108.216L108.334 102.869Z" fill="#EBEBEB"/>
<path d="M92.2374 127.638C92.2374 126.966 92.1702 125.515 92.056 123.688C91.4984 114.726 91.2297 106.664 94.2528 105.993L94.5148 107.229C92.3113 107.706 93.0368 119.24 93.3122 123.58C93.4332 125.448 93.5272 126.939 93.4936 127.665L92.2374 127.638Z" fill="#2C7BE5"/>
<path d="M82.1604 68.9631L86.863 72.8125C87.1186 72.5199 87.3119 72.1782 87.4309 71.8083C87.5498 71.4384 87.5921 71.0481 87.555 70.6613C87.5179 70.2745 87.4022 69.8994 87.2151 69.5588C87.0279 69.2183 86.7732 68.9196 86.4666 68.6809C85.8484 68.1696 85.058 67.9141 84.2575 67.9665C83.4569 68.019 82.7067 68.3755 82.1604 68.9631Z" fill="#263238"/>
<path d="M94.4409 103.44C94.4409 100.491 87.5684 96.0501 84.0213 89.8494C80.4742 83.6486 82.2477 73.4507 87.1116 71.8854C87.1519 71.8854 87.2862 70.5754 87.3064 70.4814C87.5753 69.2982 88.0287 68.1647 88.65 67.1224C90.6318 63.7096 94.8305 61.0762 98.727 60.5253C114.131 58.2815 121.212 64.2672 124.04 70.8509C124.957 73.0656 125.366 75.4576 125.236 77.851C125.157 79.6089 124.505 81.2925 123.379 82.645C122.253 83.9975 120.716 84.9445 119.002 85.3416L94.4409 103.44Z" fill="#263238"/>
<path d="M115.811 68.6473C118.827 69.9909 121.696 74.5793 121.649 87.4913C121.608 98.4416 118.249 101.209 116.556 102.022C114.863 102.835 111.552 102.419 108.334 101.928V108.216C108.334 108.216 110.745 110.588 109.899 112.079C109.052 113.571 105.929 114.834 101.071 113.309C95.5694 111.582 94.3131 107.934 94.3131 107.934L94.1855 94.1354C94.1855 94.1354 92.3381 96.0769 89.0798 93.2285C86.3926 90.8704 85.4252 86.8329 87.4474 84.616C89.4695 82.3991 92.0626 82.2244 94.4005 84.7033L96.08 83.8166C99.0762 83.4672 103.47 82.9634 106.708 81.3309C115.011 77.1053 115.871 72.5236 115.811 68.6473Z" fill="#FFA8A7"/>
<path d="M94.4478 82.9164L94.4881 88.9626C94.8763 88.9729 95.2626 88.9036 95.6232 88.7592C95.9837 88.6147 96.3109 88.398 96.5846 88.1224C96.8583 87.8468 97.0728 87.5181 97.2148 87.1566C97.3568 86.7951 97.4234 86.4083 97.4104 86.0201C97.4031 85.2232 97.0928 84.459 96.5426 83.8826C95.9924 83.3062 95.2434 82.9607 94.4478 82.9164Z" fill="#263238"/>
<path d="M116.093 83.7762C116.096 84.0603 116.182 84.3373 116.341 84.5729C116.499 84.8085 116.724 84.9922 116.986 85.1014C117.248 85.2106 117.537 85.2404 117.816 85.1872C118.095 85.1339 118.352 84.9999 118.556 84.8017C118.759 84.6036 118.9 84.35 118.961 84.0725C119.022 83.795 119 83.5058 118.898 83.2406C118.796 82.9755 118.618 82.7462 118.387 82.581C118.156 82.4159 117.882 82.3223 117.598 82.3117C117.402 82.3073 117.208 82.3418 117.026 82.4133C116.844 82.4848 116.678 82.5919 116.538 82.7282C116.398 82.8646 116.286 83.0275 116.21 83.2074C116.133 83.3874 116.094 83.5807 116.093 83.7762Z" fill="black"/>
<path d="M104.504 84.4212C104.493 84.6295 104.522 84.838 104.591 85.0349C104.66 85.2318 104.767 85.4131 104.906 85.5685C105.046 85.7239 105.214 85.8503 105.402 85.9405C105.59 86.0307 105.794 86.0828 106.003 86.094C106.214 86.0957 106.424 86.0557 106.62 85.9763C106.816 85.8968 106.994 85.7794 107.144 85.6308C107.295 85.4823 107.414 85.3055 107.496 85.1106C107.578 84.9157 107.621 84.7065 107.622 84.4951C107.628 84.2904 107.594 84.0864 107.522 83.8948C107.45 83.7032 107.341 83.5277 107.201 83.3783C107.061 83.2288 106.893 83.1085 106.706 83.0241C106.519 82.9396 106.318 82.8927 106.113 82.8861C105.909 82.8795 105.705 82.9133 105.513 82.9855C105.322 83.0577 105.146 83.1669 104.997 83.307C104.847 83.447 104.727 83.6152 104.642 83.8017C104.558 83.9883 104.511 84.1896 104.504 84.3943V84.4212Z" fill="black"/>
<path d="M119.936 81.0689L116.194 79.5842C116.28 79.3325 116.418 79.1013 116.598 78.9051C116.778 78.709 116.996 78.5521 117.24 78.4443C117.483 78.3364 117.746 78.28 118.012 78.2785C118.278 78.277 118.542 78.3304 118.787 78.4354C119.28 78.6429 119.674 79.0321 119.888 79.5224C120.102 80.0126 120.119 80.5664 119.936 81.0689Z" fill="black"/>
<path d="M112.546 82.5939L112.358 91.5557L117.175 90.4876L112.546 82.5939Z" fill="#F28F8F"/>
<path d="M106.869 93.3829L111.572 94.8407C111.503 95.1613 111.37 95.4644 111.179 95.7312C110.989 95.998 110.746 96.2228 110.465 96.3916C110.184 96.5605 109.871 96.6697 109.546 96.7127C109.221 96.7556 108.891 96.7313 108.576 96.6412C107.93 96.4168 107.395 95.955 107.078 95.3497C106.761 94.7445 106.686 94.0412 106.869 93.3829Z" fill="#B16668"/>
<path d="M109.469 96.7218C109.464 96.0679 109.2 95.4425 108.736 94.982C108.272 94.5214 107.644 94.263 106.99 94.263C106.925 94.2597 106.86 94.2597 106.795 94.263C106.82 94.7879 107.001 95.2935 107.316 95.714C107.631 96.1345 108.065 96.4505 108.562 96.6211C108.854 96.7174 109.163 96.7517 109.469 96.7218Z" fill="#F28F8F"/>
<path d="M108.334 101.962C104.941 101.559 97.9476 99.6106 96.8123 96.7689C97.2671 98.1953 98.1401 99.4522 99.3181 100.376C101.428 102.19 108.334 104.078 108.334 104.078V101.962Z" fill="#F28F8F"/>
<path d="M94.2796 102.902C93.3928 102.721 92.6068 103.111 91.8813 104.333C91.1557 105.556 89.5635 108.163 89.5635 108.163C89.5635 108.163 88.7372 116.755 89.5635 118.911C90.2756 120.766 98.129 127.719 98.129 127.719C98.129 127.719 96.08 135.438 96.0061 137.97C95.9322 140.503 100.709 150.116 101.286 155.034C101.286 155.034 102.986 139.583 102.254 134.013C100.991 124.36 96.4629 111.891 94.3266 107.927L94.2796 102.902Z" fill="#EBEBEB"/>
<path d="M99.0831 134.88C98.5589 133.633 97.9414 132.427 97.2356 131.272C96.1204 129.425 94.7432 127.651 93.5004 127.195C93.312 127.12 93.1119 127.079 92.9092 127.074H92.8421C92.6374 127.085 92.4369 127.135 92.2509 127.221C91.27 127.658 90.2355 128.995 89.3957 130.533C88.5357 132.078 87.8271 133.703 87.2796 135.384C86.9571 136.425 87.0982 138.635 87.4811 141.161C88.2335 146.065 89.9063 152.192 90.8401 153.401C91.5245 154.246 92.3331 154.983 93.2384 155.585C92.6841 155.951 92.086 156.247 91.4582 156.465C91.103 156.594 90.7277 156.66 90.3497 156.66V157.54H90.4572C90.8565 157.533 91.2528 157.468 91.6328 157.345C92.5134 157.059 93.3449 156.64 94.0983 156.102C94.8937 156.576 95.7569 156.925 96.6579 157.137C97.0821 157.238 97.5208 157.266 97.9544 157.217L97.847 156.344C97.4707 156.376 97.0918 156.346 96.7251 156.257C96.0788 156.088 95.4559 155.84 94.8709 155.518C95.7235 154.839 96.4706 154.038 97.0878 153.139C97.6118 152.34 98.2568 149.586 98.7405 146.421C99.036 144.534 99.2779 142.505 99.4123 140.657C99.56 138.078 99.4929 135.868 99.0831 134.88ZM96.3085 152.656C95.6783 153.565 94.9046 154.366 94.0177 155.027C93.0756 154.445 92.2358 153.712 91.5321 152.857C90.6587 151.722 89.0464 145.743 88.3209 141.027C87.9514 138.642 87.817 136.58 88.1126 135.653C88.6604 133.951 89.3855 132.312 90.2758 130.762C91.2029 129.163 92.1904 127.987 92.8756 127.96C93.6885 127.96 95.0053 129.432 96.2346 131.319C96.4832 131.689 96.7183 132.092 96.9467 132.495C97.4479 133.363 97.8966 134.261 98.2903 135.182C98.6598 136.096 98.7001 138.158 98.5322 140.557C98.4381 141.9 98.2903 143.304 98.1022 144.702C97.5917 148.35 96.8729 151.769 96.3085 152.636V152.656Z" fill="#455A64"/>
<path d="M99.157 156.7C99.1675 156.956 99.1016 157.21 98.9677 157.429C98.8339 157.648 98.638 157.822 98.405 157.93C98.172 158.038 97.9123 158.074 97.6589 158.033C97.4054 157.993 97.1695 157.879 96.9811 157.705C96.7927 157.53 96.6602 157.304 96.6005 157.055C96.5408 156.805 96.5565 156.543 96.6456 156.303C96.7348 156.062 96.8933 155.853 97.1012 155.703C97.3091 155.552 97.5569 155.467 97.8134 155.457C98.1562 155.444 98.4901 155.568 98.7419 155.801C98.9938 156.034 99.143 156.357 99.157 156.7Z" fill="#263238"/>
<path d="M91.6262 157.049C91.638 157.306 91.5733 157.56 91.4403 157.78C91.3073 158 91.112 158.175 90.8791 158.284C90.6463 158.393 90.3865 158.43 90.1326 158.39C89.8787 158.351 89.6422 158.237 89.4531 158.063C89.2641 157.889 89.1309 157.663 89.0706 157.413C89.0103 157.163 89.0256 156.901 89.1145 156.66C89.2033 156.419 89.3618 156.21 89.5698 156.059C89.7778 155.908 90.0259 155.823 90.2826 155.813C90.452 155.806 90.6212 155.832 90.7805 155.891C90.9397 155.949 91.0859 156.038 91.2107 156.153C91.3355 156.267 91.4364 156.406 91.5077 156.56C91.579 156.714 91.6193 156.88 91.6262 157.049Z" fill="#263238"/>
<path d="M99.3046 140.644L98.5589 140.59C98.4828 140.583 98.4124 140.547 98.3623 140.49C98.3122 140.432 98.2864 140.358 98.2902 140.281C98.4447 137.816 98.3641 136.002 98.0617 135.276C96.7585 132.092 94.0309 128.102 92.8822 128.149C91.7334 128.196 89.3552 132.408 88.3207 135.686C88.0855 136.439 88.1594 138.252 88.5155 140.698C88.5272 140.773 88.5091 140.849 88.4651 140.91C88.4212 140.972 88.3548 141.014 88.2803 141.027L87.5414 141.141C87.4639 141.151 87.3858 141.129 87.3242 141.081C87.2625 141.034 87.2222 140.963 87.2122 140.886C86.8024 138.145 86.7554 136.264 87.0644 135.29C87.6153 133.53 90.2151 126.939 92.8284 126.832C95.4417 126.724 98.5925 133.066 99.2911 134.779C99.6741 135.72 99.7883 137.601 99.6136 140.362C99.6084 140.44 99.5734 140.512 99.5158 140.565C99.4582 140.618 99.3825 140.646 99.3046 140.644Z" fill="#2C7BE5"/>
<path d="M83.195 109.291C78.2774 109.211 76.0067 110.87 72.8896 115.042C70.4174 118.354 60.7972 136.25 57.6062 141.477L40.2334 132.193C36.7199 129.768 35.5846 125.938 33.3609 123.701C31.1373 121.464 28.833 121.014 26.3877 119.167C23.9423 117.319 22.9481 115.882 22.2427 117.608C21.5373 119.335 24.2581 122.129 24.7753 122.821C25.2926 123.513 28.0201 125.052 24.4798 125.105C20.9394 125.159 13.9325 121.491 12.2261 120.839C10.5198 120.188 10.6205 122.223 11.4603 123.527C12.3 124.83 12.2597 128.511 13.6772 130.641C15.1753 132.898 15.9949 133.879 19.3338 135.344C22.4375 136.687 28.9539 137.225 32.2525 139.287C35.551 141.349 43.7268 148.618 48.6981 152.978C55.0197 158.521 59.3797 159.535 62.8999 156.21C66.3194 152.629 69.7859 148.43 71.4788 146.301C76.0403 140.557 83.2554 127.49 83.2554 127.49C83.2554 127.49 86.3793 120.772 83.195 109.291Z" fill="#FFA8A7"/>
<path d="M83.8734 108.801C76.6314 108.801 74.4682 111.421 70.7599 117.474C67.0515 123.527 57.5389 140.852 57.5389 140.852L43.8409 133.677C43.8409 133.677 41.3754 139.106 38.7554 144.702C38.7554 144.702 46.5079 151.42 50.176 154.597C53.844 157.775 58.7078 160.267 63.2156 156.378C68.0324 152.226 83.6517 130.654 83.6517 130.654C87.36 123.923 86.5337 113.718 83.8734 108.801Z" fill="#F0F0F0"/>
<path d="M57.5391 140.852C59.7762 143.486 62.4835 146.448 62.3626 148.78C62.3626 148.78 63.8943 146.71 58.5132 139.085L57.5391 140.852Z" fill="#E0E0E0"/>
<path d="M31.6277 76.2454L26.0249 79.4566L26.0451 73.0208L21.8531 70.6023L12.0784 76.2454V87.5316L2.30371 93.1747V104.461L6.49574 106.879L12.0784 103.655V110.111L16.2704 112.529L26.0451 106.879V95.5932L35.8198 89.9501V78.6639L31.6277 76.2454Z" fill="#2C7BE5"/>
<path d="M6.49585 95.5933V106.879L16.2705 101.236V112.529L26.0452 106.879V95.5933L35.8199 89.9501V78.6639L26.0116 84.3272L26.0452 73.0208L16.2705 78.6639V89.9501L6.49585 95.5933Z" fill="#2C7BE5"/>
<g opacity="0.2">
<path d="M6.49574 106.879L2.30371 104.461V93.1747L6.49574 95.5932V106.879Z" fill="black"/>
<path d="M16.2704 78.6639L12.0784 76.2454V87.5316L16.2704 89.9501V78.6639Z" fill="black"/>
<path d="M16.2704 112.529L12.0784 110.111V103.655L16.2704 101.236V112.529Z" fill="black"/>
</g>
<g opacity="0.5">
<path d="M16.2704 89.9501L12.0784 87.5317L2.30371 93.1748L6.49574 95.5933L16.2704 89.9501Z" fill="white"/>
<path d="M26.0451 73.0208L21.853 70.6023L12.0784 76.2454L16.2704 78.6639L26.0451 73.0208Z" fill="white"/>
<path d="M35.8197 78.6639L31.6277 76.2454L26.0249 79.4566L26.0115 84.3272L35.8197 78.6639Z" fill="white"/>
</g>
<path d="M192.403 53.5924C192.225 53.4386 192.034 53.3014 191.832 53.1826C191.12 52.7593 187.895 50.9052 187.727 50.8044C186.021 49.7161 183.32 49.9579 180.915 51.1739C177.469 52.9138 174.6 56.5886 172.41 62.7087C172.41 62.7087 170.193 61.1165 169.474 60.6933C167.694 59.7192 165.611 60.1894 163.267 61.7144C160.627 63.4342 158.826 65.6646 157.18 69.037V69.0975C155.754 71.961 154.974 75.103 154.896 78.3011C154.896 85.3752 157.792 88.7476 161.56 91.2803C162.635 92.0058 165.477 93.5308 165.759 93.7189C168.034 95.2206 170.549 96.3205 173.196 96.9704L176.911 97.837L180.626 92.6843C183.331 88.885 185.814 84.9328 188.063 80.8472C191.832 73.9613 194.781 67.2164 194.727 60.1693C194.673 57.1529 193.807 54.9359 192.403 53.5924Z" fill="#215CAC"/>
<path opacity="0.3" d="M192.403 53.5924C192.225 53.4386 192.034 53.3014 191.832 53.1826C191.12 52.7593 187.895 50.9052 187.727 50.8044C186.021 49.7161 183.32 49.9579 180.915 51.1739C177.469 52.9138 174.6 56.5886 172.41 62.7087C172.41 62.7087 170.193 61.1165 169.474 60.6933C167.694 59.7192 165.611 60.1894 163.267 61.7144C160.627 63.4342 158.826 65.6646 157.18 69.037V69.0975C155.754 71.961 154.974 75.103 154.896 78.3011C154.896 85.3752 157.792 88.7476 161.56 91.2803C162.635 92.0058 165.477 93.5308 165.759 93.7189C168.034 95.2206 170.549 96.3205 173.196 96.9704L176.911 97.837L180.626 92.6843C183.331 88.885 185.814 84.9328 188.063 80.8472C191.832 73.9613 194.781 67.2164 194.727 60.1693C194.673 57.1529 193.807 54.9359 192.403 53.5924Z" fill="black"/>
<path d="M192.403 53.5924C192.225 53.4386 192.034 53.3014 191.832 53.1826C191.12 52.7593 187.895 50.9052 187.727 50.8044C186.021 49.7161 183.32 49.9579 180.915 51.1739C177.469 52.9138 174.6 56.5886 172.41 62.7087C172.41 62.7087 170.193 61.1165 169.474 60.6933C167.694 59.7192 165.611 60.1894 163.267 61.7144C160.627 63.4342 158.826 65.6646 157.18 69.037V69.0975C157.106 69.2453 157.046 69.3931 156.979 69.5409L185.194 85.8118C186.195 84.1861 187.169 82.5402 188.096 80.8472C191.865 73.9613 194.814 67.2164 194.761 60.1693C194.673 57.1529 193.807 54.9359 192.403 53.5924Z" fill="#215CAC"/>
<path opacity="0.15" d="M192.403 53.5924C192.225 53.4386 192.034 53.3014 191.832 53.1826C191.12 52.7593 187.895 50.9052 187.727 50.8044C186.021 49.7161 183.32 49.9579 180.915 51.1739C177.469 52.9138 174.6 56.5886 172.41 62.7087C172.41 62.7087 170.193 61.1165 169.474 60.6933C167.694 59.7192 165.611 60.1894 163.267 61.7144C160.627 63.4342 158.826 65.6646 157.18 69.037V69.0975C157.106 69.2453 157.046 69.3931 156.979 69.5409L185.194 85.8118C186.195 84.1861 187.169 82.5402 188.096 80.8472C191.865 73.9613 194.814 67.2164 194.761 60.1693C194.673 57.1529 193.807 54.9359 192.403 53.5924Z" fill="black"/>
<path d="M172.39 62.6818L176.165 67.6061L182.252 60.4044L175.373 56.4341C174.148 58.3984 173.147 60.4941 172.39 62.6818Z" fill="#215CAC"/>
<path opacity="0.3" d="M172.39 62.6818L176.165 67.6061L182.252 60.4044L175.373 56.4341C174.148 58.3984 173.147 60.4941 172.39 62.6818Z" fill="black"/>
<path d="M192.403 53.5924C190.757 52.1211 187.761 52.2488 185.114 53.5924C181.506 55.4197 178.523 59.3631 176.293 66.0408C174.063 61.9428 171.08 61.8152 167.472 64.1598C164.825 65.8796 163.025 68.1099 161.386 71.4824L161.352 71.5428C159.931 74.4103 159.154 77.5538 159.075 80.7532C159.075 87.8272 161.977 91.1997 165.739 93.7324C168.013 95.2341 170.529 96.3339 173.176 96.9839L176.891 97.8505L180.606 92.6978C183.311 88.8985 185.794 84.9462 188.043 80.8607C191.811 73.9747 194.761 67.2299 194.707 60.1827C194.673 57.1529 193.807 54.936 192.403 53.5924Z" fill="#215CAC"/>
<g opacity="0.07">
<path d="M189.232 52.9206C190.267 52.8732 191.286 53.1998 192.1 53.8409C192.115 53.8699 192.135 53.8952 192.161 53.9148C193.545 55.1778 194.317 57.4216 194.324 60.2163C194.324 67.5725 190.965 74.7137 187.707 80.7196C185.474 84.7919 183.007 88.7308 180.317 92.5164L176.75 97.481L173.277 96.6681C170.669 96.0276 168.19 94.9461 165.947 93.4704C162.588 91.1862 159.417 88.096 159.444 80.7868C159.516 77.6436 160.27 74.5536 161.654 71.7309V71.6705C163.307 68.2779 165.087 66.1349 167.613 64.4957C168.787 63.6254 170.186 63.1123 171.644 63.0177C173.35 63.0177 174.755 64.0724 175.937 66.2423C175.966 66.3005 176.011 66.349 176.067 66.3823C176.123 66.4156 176.188 66.4323 176.253 66.4304H176.286C176.355 66.424 176.421 66.3978 176.476 66.3549C176.531 66.312 176.572 66.2543 176.595 66.1886C178.725 59.8132 181.553 55.8093 185.235 53.9484C186.464 53.3046 187.825 52.9528 189.212 52.9206M189.212 52.5645C187.769 52.5943 186.352 52.9576 185.073 53.626C181.466 55.4533 178.483 59.3967 176.253 66.0744C174.963 63.6962 173.418 62.6549 171.644 62.6549C170.122 62.755 168.66 63.2889 167.432 64.1934C164.785 65.9132 162.985 68.1435 161.345 71.516L161.312 71.5764C159.891 74.4439 159.113 77.5874 159.034 80.7868C159.034 87.8608 161.937 91.2333 165.699 93.766C167.973 95.2677 170.489 96.3675 173.135 97.0175L176.851 97.8841L180.566 92.7314C183.27 88.9321 185.753 84.9798 188.002 80.8943C191.771 74.0083 194.72 67.2635 194.667 60.2163C194.667 57.1865 193.787 54.936 192.383 53.6461C191.496 52.9238 190.374 52.5531 189.232 52.6048L189.212 52.5645Z" fill="black"/>
</g>
<path d="M191.993 72.6378L184.764 76.8164L182.077 67.0417C182.039 66.8939 181.952 66.7635 181.83 66.6719C181.707 66.5803 181.558 66.533 181.405 66.5379C181.248 66.5347 181.095 66.5867 180.972 66.6849C180.849 66.7831 180.765 66.9213 180.733 67.0753L176.548 86.1947L173.028 76.5611C173.021 76.3829 172.943 76.2149 172.812 76.094C172.681 75.973 172.507 75.9091 172.329 75.9162C172.151 75.9233 171.983 76.0009 171.862 76.132C171.741 76.263 171.677 76.4367 171.684 76.6149L169.306 85.0594L161.352 89.6545C161.614 90.0349 161.896 90.4004 162.199 90.7495L170.26 86.1074C170.416 86.017 170.531 85.8703 170.583 85.6976L172.457 79.0333L176.064 88.8819C176.112 89.0197 176.204 89.1381 176.325 89.2194C176.446 89.3006 176.591 89.3401 176.736 89.332C176.885 89.3245 177.028 89.2677 177.141 89.1703C177.254 89.073 177.331 88.9408 177.361 88.7946L181.459 70.1051L183.622 78.0391C183.648 78.1411 183.697 78.2357 183.766 78.3153C183.835 78.3948 183.922 78.457 184.019 78.4969C184.117 78.5367 184.222 78.5532 184.327 78.5448C184.432 78.5365 184.533 78.5036 184.623 78.4489L191.046 74.7473C191.415 74.0419 191.711 73.3432 191.993 72.6378Z" fill="white"/>
<path d="M222.332 252.304C222.056 253.214 222.033 254.182 222.264 255.105C222.533 255.669 224.213 257.524 227.639 258.195C231.065 258.867 235.774 258.195 237.803 258.074C239.832 257.954 246.201 258.746 248.223 259.002C251.407 259.431 253.852 258.733 255.041 257.584C255.234 257.353 255.376 257.084 255.458 256.795C255.54 256.506 255.561 256.202 255.518 255.905C255.511 255.138 255.398 254.376 255.182 253.641L222.332 252.304Z" fill="#263238"/>
<path d="M254.658 250.308C254.719 250.57 254.779 250.839 254.833 251.108C255.143 252.46 255.241 253.851 255.122 255.233C254.712 256.24 253.59 256.798 252.683 257.08C250.285 257.846 248.464 257.752 245.811 257.221C243.142 256.832 240.446 256.666 237.749 256.724C235.66 256.865 232.785 257.268 230.695 257.074C228.919 257 227.165 256.641 225.502 256.012C224.112 255.421 222.687 254.668 222.345 253.217C221.935 250.194 223.205 248.864 224.636 248.018C226.067 247.171 228.102 247.238 230.279 247.097C232.247 246.963 233.685 246.963 235.438 246.829C236.954 246.755 238.461 246.546 239.939 246.204C241.283 245.787 242.626 244.101 243.177 244.041C243.177 244.041 251.944 243.973 252.777 244.041C253.745 244.121 254.04 247.117 254.161 247.769C254.255 248.28 254.275 248.831 254.41 249.321C254.497 249.65 254.578 249.979 254.658 250.308Z" fill="#37474F"/>
<path d="M227.645 256.67C227.37 254.494 226.974 249.778 231.004 247.05H231.508C229.698 246.526 227.776 246.526 225.966 247.05C222.761 247.903 221.337 250.497 222.137 253.237C222.15 253.211 222.862 255.864 227.645 256.67Z" fill="#FAFAFA"/>
<path d="M239.342 246.358C238.045 247.507 237.595 250.12 237.595 250.12C237.427 251.101 235.653 251.249 235.821 250.302C236.092 248.999 236.615 247.763 237.36 246.661C237.968 246.34 238.666 246.233 239.342 246.358Z" fill="#FAFAFA"/>
<path d="M235.707 246.808C234.729 247.766 234.09 249.016 233.886 250.369C233.705 251.309 232.227 251.296 232.334 250.369C232.334 250.369 232.502 248.051 233.886 246.97C234.154 246.798 234.46 246.694 234.777 246.666C235.094 246.638 235.413 246.687 235.707 246.808Z" fill="#FAFAFA"/>
<path d="M253.046 237.665C253.046 237.665 252.811 243.302 252.502 245.149C252.314 246.251 250.869 247.406 247.275 247.285C244.749 247.198 242.761 247.406 242.862 245.431L243.083 239.674L253.046 237.665Z" fill="#FFA8A7"/>
<path d="M258.683 224.35C258.555 225.889 258.347 227.279 258.978 228.972C259.878 231.404 261.786 232.519 262.908 233.473C264.088 234.643 265.178 235.9 266.166 237.235C267.268 238.579 267.557 239.378 269.21 240.843C270.033 241.477 271.007 241.886 272.036 242.031C273.065 242.176 274.115 242.051 275.081 241.669C276.512 241.058 277.009 240.574 276.922 238.377C276.835 236.181 269.834 235.435 269.834 235.435L258.683 224.35Z" fill="#263238"/>
<path d="M276.015 231.834C276.613 232.049 276.761 233.131 276.855 235.28C276.922 236.906 277.641 239.311 275.283 240.312C273.382 241.138 270.345 240.588 269.062 239.056C267.463 237.141 266.375 235.455 264.091 233.124C262.075 231.108 260.06 230.437 259.166 226.372C258.595 223.766 259.045 222.691 260.886 221.945C263.419 220.917 267.389 224.27 269.378 224.8C271.084 225.25 275.417 231.619 276.015 231.834Z" fill="#37474F"/>
<path d="M269.378 224.8L269.042 224.686C267.909 224.728 266.807 225.066 265.846 225.666C264.884 226.266 264.096 227.107 263.56 228.105C263.224 228.811 264.232 229.362 264.903 228.811C266.314 226.124 269.216 225.546 270.379 225.418C270.093 225.144 269.751 224.933 269.378 224.8Z" fill="#FAFAFA"/>
<path d="M271.01 226.023C269.947 226.123 268.925 226.485 268.036 227.077C267.147 227.669 266.419 228.473 265.918 229.416C265.582 230.087 266.623 230.672 267.262 230.087C267.741 229.247 268.398 228.521 269.187 227.96C269.976 227.4 270.878 227.018 271.83 226.843C271.541 226.574 271.272 226.285 271.01 226.023Z" fill="#FAFAFA"/>
<path d="M276.357 227.951L276.015 232.486C276.015 232.486 273.133 234.588 269.001 232.66C268.88 232.412 268.531 228.354 268.531 228.354L276.357 227.951Z" fill="#FFA8A7"/>
<path d="M260.329 229.362C260.329 229.362 260.523 224.545 267.369 223.88L267.765 224.088C266.986 222.88 265.791 222.001 264.406 221.616C262.136 221.031 260.335 221.616 259.14 223.054C257.944 224.491 259.146 228.428 260.329 229.362Z" fill="#FAFAFA"/>
<path d="M278.353 197.747C277.372 189.813 277.009 185.393 277.009 185.393C277.009 185.393 276.814 174.221 277.493 163.895C277.789 159.367 277.943 154.355 278.037 149.787C278.162 144.757 277.762 139.727 276.841 134.779C276.841 134.779 241.713 127.793 241.276 140.678C240.746 156.129 240.813 182.537 240.215 192.621C239.886 198.284 240.457 202.98 240.813 213.984C241.102 223.107 241.014 245.559 241.014 245.559C244.884 250.873 254.02 246.822 254.02 246.822C254.02 246.822 256.842 215.294 257.258 208.778C257.702 201.771 256.963 198.224 256.963 198.224L260.584 165.581C260.584 165.581 260.859 176.055 261.168 181.704C261.477 187.354 262.304 190.827 263.775 201.368C265.051 210.518 267.765 233.87 267.765 233.87C272.468 236.651 277.009 233.87 277.009 233.87C277.009 233.87 279.334 205.681 278.353 197.747Z" fill="#455A64"/>
<path d="M273.556 152.662C273.556 152.662 269.156 158.279 263.479 160.69C263.479 160.69 261.02 180.435 261.041 180.045L260.402 160.173C260.402 160.173 268.854 156.438 273.556 152.662Z" fill="#37474F"/>
<path d="M273.435 89.1977C277.218 88.3512 281.497 91.0518 284.345 97.0779C287.1 102.842 294.624 117.4 294.805 121.478C295 125.703 276.203 138.521 276.667 138.273C276.814 138.199 273.422 128.579 273.422 128.579L282.552 121.021L277.587 110.796L273.435 89.1977Z" fill="#FFA8A7"/>
<path d="M271.447 88.2907C274.631 87.901 280.402 89.1036 282.605 92.9328C285.803 98.4751 288.719 104.884 292.434 113.167C292.434 113.167 289.679 119.133 281.752 119.697L277.002 111.367L271.447 88.2907Z" fill="#37474F"/>
<path d="M255.417 83.2992L255.968 95.0557L267.617 94.4309L267.261 80.7733L255.417 83.2992Z" fill="#FFA8A7"/>
<path d="M279.058 94.2092C278.077 91.0048 274.691 88.3646 270.412 88.2369C269.458 88.2369 267.456 88.2369 267.456 88.2369C266.972 90.2187 260.906 90.9241 255.72 89.735C254.155 90.1516 247.658 91.7504 246.315 92.1535C242.586 93.3896 241.437 97.192 240.86 109.352C240.86 109.352 240.974 133.321 240.86 144.762C247.416 148.222 257.547 147.792 264.756 147.06C276.082 145.918 277.768 141.813 277.768 141.813C277.291 135.142 277.58 132.629 277.768 126.046C277.909 121.095 279.334 115.861 279.784 110.252C280.449 101.915 279.723 96.4127 279.058 94.2092Z" fill="#F69A85"/>
<path d="M253.597 85.5296C250.91 85.3415 247.551 87.4845 246.684 92.0729L248.874 91.4884L253.597 85.5296Z" fill="#F69A85"/>
<path opacity="0.3" d="M253.597 85.5296C250.91 85.3415 247.551 87.4845 246.684 92.0729L248.874 91.4884L253.597 85.5296Z" fill="black"/>
<path d="M255.565 86.5104C257.581 87.1822 263.459 87.0882 265.427 86.5104C267.396 85.9327 267.376 85.0593 267.376 85.0593V84.0718C268.511 84.0686 269.62 84.4132 270.553 85.0593C271.809 86.0805 273.973 89.7619 273.912 91.5288C273.852 93.2956 270.076 97.9579 262.794 97.8437C255.512 97.7295 251.42 95.0356 250.164 93.262L248.901 91.4817C248.901 91.4817 250.628 87.9346 252.327 86.4432C253.199 85.5985 254.316 85.0527 255.518 84.8847L255.565 86.5104Z" fill="#F69A85"/>
<path opacity="0.2" d="M255.565 86.5104C257.581 87.1822 263.459 87.0882 265.427 86.5104C267.396 85.9327 267.376 85.0593 267.376 85.0593V84.0718C268.511 84.0686 269.62 84.4132 270.553 85.0593C271.809 86.0805 273.973 89.7619 273.912 91.5288C273.852 93.2956 270.076 97.9579 262.794 97.8437C255.512 97.7295 251.42 95.0356 250.164 93.262L248.901 91.4817C248.901 91.4817 250.628 87.9346 252.327 86.4432C253.199 85.5985 254.316 85.0527 255.518 84.8847L255.565 86.5104Z" fill="black"/>
<path d="M247.578 68.8824C247.578 68.8824 244.803 73.0946 245.119 73.5044C245.435 73.9142 247.477 74.2972 247.477 74.2972L247.578 68.8824Z" fill="#F28F8F"/>
<path d="M255.29 57.22C249.674 58.4091 247.43 60.055 247.081 69.655C246.745 78.9931 247.92 82.0699 249.143 83.3262C249.969 84.1726 254.571 84.3271 256.889 83.6822C259.791 82.8828 266.355 80.5583 269.425 75.8692C273.039 70.347 273.986 62.8632 270.096 59.793C264.675 55.4734 257.581 56.7364 255.29 57.22Z" fill="#FFA8A7"/>
<path d="M249.143 83.3194C249.815 83.9912 253.033 84.2465 255.451 83.9509L255.418 82.5602C253.414 83.2994 251.265 83.5594 249.143 83.3194Z" fill="#F28F8F"/>
<path d="M246.335 60.8275C247.734 61.8306 249.47 62.2477 251.172 61.9898C251.138 62.7424 251.34 63.4869 251.75 64.1194C252.32 64.9818 253.184 65.6074 254.181 65.8795C253.566 67.0846 253.24 68.4162 253.228 69.7692C253.19 70.1938 253.281 70.62 253.49 70.9919C253.554 71.127 253.655 71.2411 253.782 71.321C253.909 71.4008 254.055 71.4432 254.205 71.4432C254.355 71.4432 254.501 71.4008 254.628 71.321C254.755 71.2411 254.856 71.127 254.92 70.9919C255.236 70.2772 255.633 69.601 256.103 68.9765C256.712 68.2477 257.568 67.7693 258.508 67.6329C262.035 67.2499 262.478 71.8652 261.067 73.7798C258.756 76.9104 256.795 74.7875 256.795 74.7875C256.705 76.255 256.928 77.7249 257.449 79.0997C257.97 80.4745 258.778 81.7228 259.818 82.7618C262.325 83.5005 264.982 83.5677 267.523 82.9566C270.654 78.6504 272.622 76.5544 274.295 72.8393C277.829 64.9725 276.122 60.0348 273.388 57.9522C272.851 54.3313 269.996 52.7055 266.737 51.9598C261.874 50.8379 257.332 53.7266 252.509 52.6316C251.717 52.4659 250.935 52.2596 250.164 52.0135C249.867 51.8744 249.529 51.8528 249.217 51.9531C249.044 52.0679 248.909 52.231 248.827 52.422C248.746 52.6131 248.723 52.8238 248.76 53.028C248.821 53.955 249.761 54.9829 250.238 55.48C249.185 55.5764 248.123 55.5153 247.087 55.2986C246.728 55.2313 246.359 55.2313 245.999 55.2986C245.604 55.4594 245.271 55.741 245.046 56.1031C244.822 56.4652 244.718 56.8892 244.749 57.314C244.753 57.978 244.897 58.6337 245.17 59.2389C245.443 59.844 245.84 60.3852 246.335 60.8275Z" fill="#263238"/>
<path d="M273.476 59.1212L276.835 57.1058C276.567 56.6604 276.134 56.3394 275.63 56.2134C275.126 56.0874 274.593 56.1668 274.147 56.434C273.702 56.7013 273.381 57.1345 273.255 57.6385C273.129 58.1424 273.208 58.6758 273.476 59.1212Z" fill="#263238"/>
<path d="M229.701 112.039C228.94 109.047 228.205 106.051 227.498 103.05C226.826 100.289 225.791 97.0913 226.738 94.2697C227.277 93.0374 227.953 91.87 228.754 90.7898C229.447 89.6512 230.032 88.4501 230.5 87.2024C230.736 86.5978 230.951 85.9797 231.172 85.3684C231.394 84.757 231.71 84.4077 231.562 83.8232C231.071 81.9086 228.599 84.4211 228.095 85.2071C227.872 85.6197 227.611 86.011 227.316 86.3761C226.994 86.7187 226.208 87.1486 225.831 86.6448C225.706 86.4426 225.636 86.2108 225.63 85.973C225.375 83.0238 226.436 80.3836 227.316 77.6292C227.455 77.2676 227.539 76.8872 227.565 76.5006C227.581 76.3076 227.555 76.1134 227.489 75.9314C227.423 75.7493 227.318 75.5837 227.182 75.4459C226.963 75.2779 226.703 75.1708 226.43 75.1354C226.156 75.1 225.878 75.1376 225.623 75.2444C225.126 75.4123 224.696 75.7281 224.199 75.8826C223.702 76.0371 223.332 76.0371 222.896 76.1513C221.86 76.3822 220.862 76.76 219.933 77.2732C218.321 78.2204 217.609 79.6043 217.185 81.3644C216.677 83.5264 216.505 85.7538 216.675 87.9682C216.789 89.4395 217.051 90.8906 217.232 92.3416L217.837 97.1988C218.247 100.437 218.368 116.614 218.925 119.832C219.483 123.05 220.558 125.206 223.104 126.274C226.799 127.779 232.771 120.98 236.164 117.46L229.701 112.039Z" fill="#FFA8A7"/>
<path d="M228.351 110.205C225.973 111.985 223.01 114.948 222.412 117.917C222.412 117.917 221.821 112.576 228.351 107.84V110.205Z" fill="#F28F8F"/>
<path d="M246.127 92.2274C243.842 92.4424 240.08 92.523 236.251 96.6411C231.81 101.451 224.965 110.937 224.965 110.937C224.965 110.937 225.858 118.488 233.127 121.195C233.127 121.195 243.695 111.118 245.965 106.779C248.236 102.439 248.747 95.2438 246.127 92.2274Z" fill="#37474F"/>
<path d="M243.083 76.2655L240.195 74.7136L241.854 73.2961L235.855 70.488L238.475 68.9698L232.012 65.5302L235.855 68.9227L232.731 70.488L239.778 73.538L238.038 75.278L243.083 76.2655Z" fill="#2C7BE5"/>
<path d="M244.555 72.4563L242.674 70.6559L243.702 69.8968L242.049 67.9351L243.635 67.3977L243.084 64.912L244.199 67.5925L243.084 68.0762L244.871 70.0379L243.661 70.8978L244.555 72.4563Z" fill="#2C7BE5"/>
<path d="M243.46 79.1072L239.913 81.8751L238.603 79.947L235.499 81.6332L234.229 79.2483L229.426 80.4777L234.982 77.8174L236.574 80.0142L239.153 78.6303L240.228 80.4777L243.46 79.1072Z" fill="#2C7BE5"/>
<path d="M218.798 128.639C218.906 128.549 219.045 128.506 219.185 128.519C219.324 128.531 219.453 128.599 219.544 128.706C220.23 129.478 221.123 130.038 222.116 130.321C223.109 130.604 224.163 130.598 225.153 130.305C225.221 130.281 225.292 130.271 225.364 130.276C225.435 130.281 225.505 130.3 225.569 130.332C225.633 130.364 225.69 130.409 225.736 130.464C225.782 130.519 225.816 130.582 225.837 130.651C225.858 130.719 225.865 130.791 225.857 130.863C225.85 130.934 225.828 131.003 225.792 131.065C225.757 131.128 225.71 131.182 225.653 131.226C225.597 131.27 225.532 131.302 225.462 131.319C224.274 131.671 223.011 131.676 221.821 131.333C220.63 130.99 219.563 130.314 218.744 129.385C218.698 129.332 218.663 129.272 218.641 129.206C218.619 129.14 218.61 129.07 218.615 129.001C218.62 128.931 218.638 128.863 218.67 128.801C218.701 128.739 218.745 128.684 218.798 128.639Z" fill="#E0E0E0"/>
<path d="M219.335 132.193C219.429 132.114 219.548 132.071 219.671 132.071C219.794 132.071 219.913 132.114 220.007 132.193C220.554 132.588 221.181 132.859 221.843 132.987C222.506 133.114 223.188 133.096 223.843 132.932C223.982 132.906 224.125 132.936 224.242 133.015C224.359 133.095 224.44 133.217 224.468 133.355C224.481 133.423 224.481 133.493 224.468 133.561C224.454 133.629 224.427 133.694 224.389 133.751C224.35 133.808 224.3 133.858 224.242 133.896C224.184 133.934 224.119 133.96 224.051 133.973C223.242 134.161 222.401 134.169 221.589 133.996C220.776 133.823 220.011 133.473 219.349 132.972C219.296 132.927 219.252 132.872 219.221 132.81C219.189 132.748 219.17 132.68 219.165 132.611C219.16 132.541 219.169 132.471 219.192 132.405C219.214 132.339 219.249 132.279 219.295 132.226C219.307 132.213 219.32 132.202 219.335 132.193Z" fill="#E0E0E0"/>
<path d="M285.299 91.475C285.237 91.5072 285.169 91.5266 285.1 91.5322C285.03 91.5378 284.96 91.5294 284.894 91.5075C284.827 91.4855 284.766 91.4506 284.713 91.4046C284.661 91.3587 284.618 91.3027 284.587 91.2399C284.097 90.3308 283.359 89.5794 282.459 89.0729C281.558 88.5663 280.533 88.3254 279.502 88.378C279.432 88.382 279.362 88.3722 279.296 88.3492C279.23 88.3262 279.169 88.2904 279.117 88.244C279.012 88.1501 278.949 88.0183 278.941 87.8775C278.933 87.7368 278.981 87.5986 279.075 87.4934C279.168 87.3882 279.3 87.3246 279.441 87.3166C280.679 87.2518 281.91 87.5416 282.99 88.1521C284.069 88.7625 284.952 89.6683 285.534 90.7629C285.596 90.8888 285.605 91.0338 285.561 91.1668C285.517 91.2998 285.423 91.4104 285.299 91.475Z" fill="#E0E0E0"/>
<path d="M285.595 87.9145C285.482 87.9736 285.352 87.9899 285.228 87.9603C285.105 87.9306 284.996 87.857 284.923 87.7533C284.489 87.2466 283.951 86.8391 283.346 86.5586C282.741 86.2781 282.083 86.1311 281.416 86.1275C281.346 86.1248 281.278 86.1085 281.214 86.0794C281.151 86.0503 281.094 86.009 281.047 85.9578C280.999 85.9066 280.962 85.8467 280.938 85.7812C280.914 85.7158 280.903 85.6463 280.905 85.5766C280.908 85.5069 280.924 85.4384 280.954 85.3751C280.983 85.3117 281.024 85.2547 281.075 85.2072C281.126 85.1598 281.186 85.123 281.252 85.0987C281.317 85.0745 281.387 85.0634 281.456 85.0661C282.285 85.0743 283.101 85.2639 283.849 85.6213C284.596 85.9788 285.256 86.4955 285.783 87.1352C285.858 87.2489 285.887 87.3877 285.862 87.5219C285.837 87.6562 285.76 87.7754 285.648 87.854L285.595 87.9145Z" fill="#E0E0E0"/>
<path d="M294.986 126.637C294.919 126.514 294.903 126.369 294.942 126.235C294.981 126.1 295.072 125.986 295.195 125.918C296.08 125.386 296.795 124.614 297.258 123.691C297.72 122.768 297.911 121.732 297.808 120.705C297.8 120.636 297.805 120.565 297.824 120.498C297.844 120.431 297.876 120.368 297.92 120.314C297.964 120.259 298.018 120.214 298.08 120.181C298.141 120.148 298.209 120.127 298.278 120.12C298.418 120.105 298.558 120.146 298.668 120.235C298.777 120.323 298.848 120.451 298.863 120.591C298.983 121.819 298.751 123.057 298.196 124.159C297.641 125.261 296.784 126.183 295.725 126.818C295.665 126.856 295.598 126.881 295.528 126.892C295.458 126.904 295.387 126.901 295.318 126.884C295.249 126.867 295.184 126.836 295.127 126.794C295.07 126.751 295.022 126.698 294.986 126.637Z" fill="#E0E0E0"/>
<path d="M298.554 126.765C298.494 126.655 298.474 126.528 298.497 126.406C298.52 126.283 298.585 126.173 298.681 126.093C299.169 125.637 299.552 125.081 299.803 124.463C300.055 123.844 300.17 123.179 300.139 122.512C300.139 122.371 300.195 122.236 300.295 122.137C300.394 122.037 300.529 121.981 300.67 121.981C300.811 121.981 300.946 122.037 301.045 122.137C301.145 122.236 301.201 122.371 301.201 122.512C301.23 123.339 301.079 124.163 300.759 124.926C300.439 125.689 299.957 126.374 299.347 126.933C299.292 126.976 299.229 127.008 299.162 127.027C299.095 127.046 299.025 127.052 298.956 127.043C298.886 127.035 298.819 127.014 298.758 126.98C298.698 126.946 298.644 126.9 298.601 126.845L298.554 126.765Z" fill="#E0E0E0"/>
<path d="M236.755 190.639C236.88 190.703 236.976 190.813 237.021 190.946C237.066 191.079 237.057 191.225 236.997 191.351C236.571 192.292 236.422 193.334 236.567 194.356C236.713 195.378 237.146 196.337 237.816 197.122C237.907 197.23 237.952 197.37 237.94 197.511C237.929 197.652 237.863 197.782 237.756 197.875C237.65 197.966 237.512 198.011 237.372 198.001C237.232 197.991 237.102 197.926 237.01 197.821C236.205 196.876 235.686 195.721 235.514 194.492C235.343 193.263 235.526 192.01 236.043 190.881C236.106 190.756 236.216 190.66 236.349 190.615C236.483 190.57 236.628 190.578 236.755 190.639Z" fill="#E0E0E0"/>
<path d="M233.745 192.554C233.86 192.608 233.952 192.702 234.003 192.817C234.055 192.933 234.064 193.064 234.028 193.185C233.886 193.838 233.889 194.513 234.033 195.165C234.178 195.817 234.463 196.43 234.867 196.961C234.946 197.076 234.977 197.218 234.954 197.356C234.93 197.494 234.853 197.618 234.74 197.7C234.625 197.781 234.482 197.813 234.344 197.789C234.205 197.765 234.082 197.687 234.001 197.572C233.503 196.908 233.156 196.143 232.984 195.331C232.812 194.519 232.82 193.679 233.006 192.87C233.027 192.802 233.061 192.74 233.106 192.685C233.151 192.631 233.206 192.587 233.269 192.554C233.332 192.522 233.4 192.502 233.47 192.496C233.54 192.49 233.611 192.499 233.678 192.52L233.745 192.554Z" fill="#E0E0E0"/>
<path d="M197.273 6.19687C197.24 5.57044 197.059 4.96074 196.745 4.41775C196.431 3.87475 195.992 3.41392 195.466 3.07301L194.001 2.21982C193.441 1.9396 192.824 1.7937 192.198 1.7937C191.571 1.7937 190.954 1.9396 190.394 2.21982L156.367 21.8834C155.841 22.2251 155.404 22.6861 155.09 23.2289C154.776 23.7718 154.594 24.3811 154.56 25.0072V42.6017C154.595 43.2277 154.776 43.8368 155.09 44.3796C155.404 44.9223 155.842 45.3834 156.367 45.7255L157.838 46.572C158.397 46.8569 159.015 47.0054 159.642 47.0054C160.269 47.0054 160.887 46.8569 161.446 46.572L195.466 26.9152C195.992 26.5742 196.431 26.1134 196.745 25.5704C197.059 25.0274 197.24 24.4177 197.273 23.7913V6.19687Z" fill="#2C7BE5"/>
<path opacity="0.5" d="M197.273 6.19687C197.24 5.57044 197.059 4.96074 196.745 4.41775C196.431 3.87475 195.992 3.41392 195.466 3.07301L194.001 2.21982C193.441 1.9396 192.824 1.7937 192.198 1.7937C191.571 1.7937 190.954 1.9396 190.394 2.21982L156.367 21.8834C155.841 22.2251 155.404 22.6861 155.09 23.2289C154.776 23.7718 154.594 24.3811 154.56 25.0072V42.6017C154.595 43.2277 154.776 43.8368 155.09 44.3796C155.404 44.9223 155.842 45.3834 156.367 45.7255L157.838 46.572C158.397 46.8569 159.015 47.0054 159.642 47.0054C160.269 47.0054 160.887 46.8569 161.446 46.572L195.466 26.9152C195.992 26.5742 196.431 26.1134 196.745 25.5704C197.059 25.0274 197.24 24.4177 197.273 23.7913V6.19687Z" fill="white"/>
<path opacity="0.2" d="M154.56 42.6016C154.595 43.2277 154.776 43.8368 155.09 44.3795C155.404 44.9223 155.842 45.3834 156.367 45.7255L157.838 46.5719C158.347 46.828 158.903 46.9736 159.472 46.9991C160.04 47.0246 160.608 46.9294 161.137 46.7197C160.284 47.0422 159.639 46.5652 159.639 45.5307V27.9362C159.661 27.3072 159.843 26.6943 160.17 26.156L155.091 23.2269C154.764 23.7649 154.581 24.378 154.56 25.0072V42.6016Z" fill="black"/>
<path opacity="0.3" d="M197.213 5.68631C197.004 4.92046 196.306 4.6719 195.473 5.15559L161.446 24.8124C160.911 25.141 160.47 25.6043 160.17 26.156L155.098 23.227C155.398 22.677 155.835 22.2141 156.367 21.8834L190.387 2.22655C190.946 1.94167 191.564 1.79315 192.191 1.79315C192.818 1.79315 193.436 1.94167 193.995 2.22655L195.473 3.07302C195.924 3.36833 196.311 3.75218 196.611 4.20136C196.91 4.65054 197.114 5.1557 197.213 5.68631Z" fill="white"/>
<path d="M159.646 33.6264L154.574 30.6974L148.46 36.5823C148.368 36.6749 148.299 36.7872 148.257 36.9107C148.214 37.0341 148.201 37.1656 148.217 37.295C148.233 37.4245 148.279 37.5486 148.35 37.6579C148.421 37.7672 148.516 37.8589 148.628 37.9259L153.62 40.8281C153.826 40.9363 154.059 40.9851 154.292 40.9692L159.666 39.9413V33.6264H159.646Z" fill="#2C7BE5"/>
<path opacity="0.5" d="M159.646 33.6264L154.574 30.6974L148.46 36.5823C148.368 36.6749 148.299 36.7872 148.257 36.9107C148.214 37.0341 148.201 37.1656 148.217 37.295C148.233 37.4245 148.279 37.5486 148.35 37.6579C148.421 37.7672 148.516 37.8589 148.628 37.9259L153.62 40.8281C153.826 40.9363 154.059 40.9851 154.292 40.9692L159.666 39.9413V33.6264H159.646Z" fill="white"/>
<path opacity="0.3" d="M153.62 40.8281L150.932 39.2897L150.617 39.0814L149.179 38.2484L149.004 38.1409L148.621 37.9192C148.51 37.8522 148.414 37.7605 148.343 37.6512C148.272 37.5419 148.226 37.4178 148.21 37.2883C148.194 37.1589 148.208 37.0274 148.25 36.9039C148.292 36.7805 148.362 36.6682 148.453 36.5756L154.567 30.6907L159.646 33.6264L153.532 39.4845C153.435 39.5708 153.359 39.678 153.31 39.7982C153.26 39.9183 153.239 40.0481 153.248 40.1777C153.256 40.3072 153.294 40.4332 153.358 40.5459C153.423 40.6586 153.512 40.7552 153.62 40.8281Z" fill="white"/>
<path d="M169.581 28.2184C168.88 28.675 168.295 29.2908 167.876 30.0157C167.457 30.7406 167.215 31.5542 167.17 32.3903C167.17 33.922 168.251 34.5468 169.581 33.7809C170.282 33.324 170.866 32.708 171.284 31.9831C171.702 31.2581 171.942 30.4447 171.986 29.6091C171.986 28.0639 170.912 27.4526 169.581 28.2184Z" fill="white"/>
<path d="M178.456 23.0859C177.755 23.5428 177.172 24.1588 176.754 24.8838C176.336 25.6087 176.095 26.4221 176.051 27.2578C176.051 28.7895 177.126 29.4143 178.456 28.6417C179.156 28.1854 179.739 27.5705 180.157 26.8468C180.574 26.1231 180.816 25.311 180.861 24.4765C180.847 22.9381 179.786 22.3133 178.456 23.0859Z" fill="white"/>
<path d="M187.331 17.9466C186.631 18.4047 186.048 19.021 185.63 19.7457C185.213 20.4704 184.971 21.2832 184.926 22.1185C184.926 23.6569 186 24.2749 187.331 23.5091C188.033 23.0519 188.618 22.435 189.037 21.7089C189.456 20.9827 189.698 20.1678 189.742 19.3305C189.742 17.8055 188.661 17.1807 187.331 17.9466Z" fill="white"/>
<path d="M262.767 40.6871L260.328 36.1256L262.29 30.4623V26.9756L256.284 30.4421V33.9086L258.864 38.3828C258.906 38.4496 258.967 38.5032 259.038 38.5373L262.767 40.6871Z" fill="#215CAC"/>
<path opacity="0.2" d="M262.767 40.6871L260.328 36.1256L262.29 30.4623V26.9756L256.284 30.4421V33.9086L258.864 38.3828C258.906 38.4496 258.967 38.5032 259.038 38.5373L262.767 40.6871Z" fill="black"/>
<path d="M281.006 4.40335C280.973 3.77868 280.792 3.17071 280.48 2.62901C280.167 2.08731 279.73 1.62721 279.206 1.28621L277.741 0.43974C277.184 0.154919 276.567 0.00640869 275.941 0.00640869C275.315 0.00640869 274.698 0.154919 274.14 0.43974L240.194 20.0496C239.672 20.3947 239.238 20.8567 238.925 21.399C238.613 21.9412 238.431 22.5487 238.394 23.1734V40.7275C238.427 41.3522 238.608 41.9602 238.921 42.5019C239.234 43.0436 239.67 43.5037 240.194 43.8447L241.659 44.6911C242.218 44.9703 242.834 45.1156 243.459 45.1156C244.084 45.1156 244.701 44.9703 245.26 44.6911L260.039 36.0921L262.619 40.5529C262.656 40.6125 262.709 40.6606 262.772 40.6916C262.835 40.7226 262.906 40.7354 262.976 40.7284C263.046 40.7214 263.112 40.6949 263.168 40.652C263.224 40.6091 263.266 40.5515 263.291 40.4857L266.018 32.6324L279.172 25.0746C279.697 24.7336 280.133 24.2735 280.446 23.7318C280.759 23.1901 280.939 22.5821 280.973 21.9575L281.006 4.40335Z" fill="#215CAC"/>
<path d="M248.565 26.5726L275.706 10.8995C276.512 10.436 277.163 10.7652 277.163 11.6385C277.127 12.1268 276.976 12.5995 276.723 13.0186C276.469 13.4376 276.121 13.791 275.706 14.0503L248.565 29.7234C247.765 30.1869 247.114 29.8577 247.114 28.9844C247.15 28.4969 247.3 28.0247 247.552 27.6058C247.804 27.1869 248.151 26.833 248.565 26.5726Z" fill="white"/>
<path d="M248.565 33.5526L275.706 17.8863C276.512 17.4227 277.163 17.7519 277.163 18.6185C277.128 19.1079 276.977 19.582 276.724 20.0023C276.471 20.4226 276.122 20.7771 275.706 21.037L248.565 36.7033C247.765 37.1736 247.114 36.8377 247.114 35.9711C247.149 35.4824 247.299 35.0089 247.551 34.5888C247.803 34.1686 248.15 33.8137 248.565 33.5526Z" fill="white"/>
<path opacity="0.2" d="M238.394 40.7274C238.427 41.3521 238.608 41.9601 238.921 42.5018C239.234 43.0435 239.67 43.5036 240.194 43.8446L241.659 44.6911C242.166 44.9462 242.722 45.0912 243.289 45.1167C243.856 45.1422 244.423 45.0475 244.951 44.8389C244.104 45.1546 243.459 44.6776 243.459 43.6498V26.0957C243.481 25.4696 243.661 24.8593 243.983 24.3221L238.918 21.3931C238.596 21.9327 238.416 22.5452 238.394 23.1733V40.7274Z" fill="black"/>
<path opacity="0.2" d="M280.946 3.87917C280.738 3.11332 280.039 2.87147 279.206 3.34844L245.26 22.965C244.726 23.293 244.287 23.7565 243.99 24.3086L238.925 21.3862C239.226 20.8371 239.663 20.3745 240.194 20.0426L274.134 0.42612C274.694 0.145896 275.311 0 275.938 0C276.564 0 277.181 0.145896 277.741 0.42612L279.206 1.27259C279.658 1.56567 280.046 1.94805 280.345 2.39627C280.644 2.84449 280.849 3.3491 280.946 3.87917Z" fill="white"/>
</svg>
