<svg width="320" height="298" viewBox="0 0 320 298" fill="none" xmlns="http://www.w3.org/2000/svg">
<path d="M160 298C248.366 298 320 261.32 320 216.073C320 170.827 248.366 134.147 160 134.147C71.6344 134.147 0 170.827 0 216.073C0 261.32 71.6344 298 160 298Z" fill="#FAFAFA"/>
<path d="M251.215 268.961C275.291 268.961 294.808 256.903 294.808 242.028C294.808 227.153 275.291 215.095 251.215 215.095C227.139 215.095 207.622 227.153 207.622 242.028C207.622 256.903 227.139 268.961 251.215 268.961Z" fill="#E0E0E0"/>
<path d="M147.733 193.699L119.799 177.574C119.335 177.337 118.822 177.213 118.301 177.213C117.78 177.213 117.266 177.337 116.803 177.574L24.2201 231.045C24.0387 231.106 23.8809 231.222 23.7691 231.377C23.6573 231.533 23.5972 231.719 23.5972 231.91C23.5972 232.102 23.6573 232.288 23.7691 232.443C23.8809 232.599 24.0387 232.715 24.2201 232.775L52.1471 248.907C52.6123 249.14 53.1252 249.261 53.6453 249.261C54.1654 249.261 54.6783 249.14 55.1435 248.907L63.3956 244.14L139.474 200.324L147.739 195.463C147.926 195.402 148.089 195.284 148.204 195.125C148.32 194.966 148.381 194.775 148.381 194.579C148.38 194.382 148.317 194.191 148.2 194.033C148.084 193.875 147.92 193.758 147.733 193.699Z" fill="#E0E0E0"/>
<path d="M135.15 15.2699L59.2796 59.0659C58.5283 59.5565 57.9039 60.2182 57.4576 60.9967C57.0113 61.7752 56.7559 62.6484 56.7122 63.5448V242.249C56.7122 243.885 57.8652 244.549 59.2796 243.724L135.15 199.915C135.897 199.425 136.518 198.767 136.964 197.994C137.409 197.221 137.668 196.354 137.718 195.463V16.7315C137.718 15.0955 136.565 14.425 135.15 15.2699ZM134.024 182.221C134.024 183.622 133.039 184.514 131.825 185.211L62.3498 225.346C61.1432 226.017 60.1511 225.48 60.1511 224.072V75.4593C60.1513 74.6909 60.3541 73.9361 60.7389 73.271C61.1238 72.6059 61.6771 72.0541 62.3431 71.6711L131.819 31.5291C132.042 31.3996 132.295 31.3311 132.552 31.3305C132.81 31.3298 133.064 31.3971 133.287 31.5256C133.511 31.654 133.697 31.8391 133.826 32.0622C133.955 32.2853 134.024 32.5385 134.024 32.7963V182.221Z" fill="#455A64"/>
<path d="M134.024 182.221C134.024 183.622 133.039 184.514 131.825 185.211L62.3499 225.346C61.1432 226.017 60.1511 225.48 60.1511 224.072V75.4593C60.1514 74.6909 60.3542 73.9361 60.739 73.271C61.1238 72.6059 61.6772 72.0541 62.3432 71.6711L131.819 31.5291C132.042 31.3996 132.295 31.3311 132.552 31.3304C132.81 31.3298 133.064 31.3971 133.287 31.5256C133.511 31.654 133.697 31.8391 133.826 32.0622C133.955 32.2852 134.024 32.5385 134.024 32.7963V182.221Z" fill="#263238"/>
<path d="M62.3499 225.346L131.825 185.224C132.313 184.961 132.764 184.634 133.166 184.252L60.1511 143.125V224.072C60.1511 225.48 61.1432 226.044 62.3499 225.346Z" fill="#37474F"/>
<path d="M128.4 179.612V33.507L62.3432 71.671C61.6772 72.0541 61.1238 72.6059 60.739 73.271C60.3542 73.9361 60.1514 74.6909 60.1511 75.4593V220.747L126.201 182.603C127.414 181.906 128.4 181.014 128.4 179.612Z" fill="#2C7BE5"/>
<path d="M58.9577 243.905C58.1916 244.228 57.3645 244.381 56.5335 244.354C55.7025 244.326 54.8874 244.118 54.1446 243.744L51.2084 242.048C50.4592 241.563 49.8354 240.907 49.388 240.134C48.9406 239.362 48.6823 238.494 48.6343 237.603V58.8514C48.6512 58.1889 48.8017 57.5367 49.0767 56.9338C49.1706 56.726 49.2711 56.5248 49.3851 56.317L57.4293 61.0104C57.2602 61.3126 57.1124 61.6262 56.9869 61.949C56.7916 62.4567 56.685 62.9943 56.6718 63.5381V242.249C56.712 243.758 57.6908 244.442 58.9577 243.905Z" fill="#263238"/>
<path d="M99.4803 207.9C101.123 207.9 101.297 209.744 101.297 210.535C101.199 212.121 100.734 213.661 99.9398 215.037C99.1453 216.412 98.0426 217.584 96.7185 218.46C96.1872 218.798 95.5774 218.992 94.9487 219.024C93.3064 219.024 93.1321 217.18 93.1321 216.389C93.231 214.803 93.6952 213.263 94.4883 211.887C95.2814 210.511 96.3819 209.337 97.7039 208.457C98.2397 208.125 98.8508 207.933 99.4803 207.9Z" fill="#2C7BE5"/>
<path d="M97.1611 40.0175C97.8315 39.6152 98.4147 39.937 98.4147 40.7416C98.3904 41.1766 98.2643 41.5998 98.0465 41.9771C97.8288 42.3544 97.5255 42.6753 97.1611 42.914C96.4908 43.3096 95.9009 42.9877 95.9009 42.1899C95.9238 41.7538 96.0501 41.3294 96.2692 40.9517C96.4883 40.574 96.794 40.2538 97.1611 40.0175Z" fill="#263238"/>
<path d="M89.0632 50.6044C89.6799 50.249 90.176 50.5373 90.176 51.2749C90.1556 51.6607 90.0441 52.0362 89.8507 52.3707C89.6573 52.7052 89.3874 52.9891 89.0632 53.1992C88.4465 53.5545 87.9504 53.2662 87.9504 52.5287C87.9719 52.1431 88.0839 51.768 88.2772 51.4337C88.4705 51.0994 88.7398 50.8153 89.0632 50.6044Z" fill="#263238"/>
<path d="M92.7835 48.4053L105.245 41.211C105.916 40.8154 106.479 41.097 106.479 41.8346C106.446 42.2487 106.318 42.6496 106.104 43.0057C105.89 43.3617 105.596 43.6632 105.245 43.8862L92.7835 51.0805C92.1131 51.4761 91.55 51.1945 91.55 50.457C91.5827 50.0428 91.7111 49.6419 91.9252 49.2859C92.1392 48.9298 92.4331 48.6284 92.7835 48.4053Z" fill="#263238"/>
<path d="M137.691 16.3225C137.503 14.9816 136.437 14.5055 135.157 15.2498L59.2729 59.066C58.5136 59.5374 57.8899 60.1982 57.4629 60.9835L49.4187 56.2901C49.8523 55.5111 50.4776 54.8556 51.2354 54.386L127.072 10.5765C127.868 10.173 128.748 9.96271 129.64 9.96271C130.532 9.96271 131.412 10.173 132.207 10.5765L135.157 12.2661C135.844 12.7222 136.426 13.3201 136.863 14.0198C137.3 14.7195 137.582 15.5047 137.691 16.3225Z" fill="#37474F"/>
<path d="M117.788 21.7471C117.394 21.9574 116.956 22.0714 116.51 22.0795C116.064 22.0877 115.622 21.9898 115.221 21.794C115.086 21.7367 114.97 21.6441 114.884 21.5261C114.798 21.4081 114.745 21.269 114.731 21.1235C114.731 20.9358 114.731 20.2385 114.731 20.044C114.753 19.8767 114.817 19.7178 114.918 19.5827C115.019 19.4476 115.153 19.3409 115.308 19.273L123.439 14.5796C123.835 14.3707 124.273 14.2577 124.721 14.2495C125.168 14.2413 125.61 14.3383 126.013 14.5326C126.145 14.5926 126.259 14.6861 126.344 14.8037C126.428 14.9213 126.481 15.059 126.496 15.2031C126.496 15.3976 126.496 16.1217 126.496 16.3094C126.475 16.4777 126.411 16.6377 126.31 16.774C126.209 16.9102 126.074 17.0181 125.919 17.0872L117.788 21.7471Z" fill="#2C7BE5"/>
<path opacity="0.25" d="M117.788 21.7471C117.394 21.9574 116.956 22.0714 116.51 22.0795C116.064 22.0877 115.622 21.9898 115.221 21.794C115.086 21.7367 114.97 21.6441 114.884 21.5261C114.798 21.4081 114.745 21.269 114.731 21.1235C114.731 20.9358 114.731 20.2385 114.731 20.044C114.753 19.8767 114.817 19.7178 114.918 19.5827C115.019 19.4476 115.153 19.3409 115.308 19.273L123.439 14.5796C123.835 14.3707 124.273 14.2577 124.721 14.2495C125.168 14.2413 125.61 14.3383 126.013 14.5326C126.145 14.5926 126.259 14.6861 126.344 14.8037C126.428 14.9213 126.481 15.059 126.496 15.2031C126.496 15.3976 126.496 16.1217 126.496 16.3094C126.475 16.4777 126.411 16.6377 126.31 16.774C126.209 16.9102 126.074 17.0181 125.919 17.0872L117.788 21.7471Z" fill="black"/>
<path d="M117.788 20.6807L125.919 15.9873C126.657 15.5582 126.69 14.8944 126.006 14.4988C125.604 14.3045 125.161 14.2075 124.714 14.2157C124.267 14.2238 123.828 14.3369 123.432 14.5458L115.301 19.2392C114.57 19.6616 114.53 20.3253 115.22 20.7209C115.622 20.9162 116.063 21.0143 116.509 21.0073C116.955 21.0003 117.393 20.8884 117.788 20.6807Z" fill="#2C7BE5"/>
<path opacity="0.3" d="M117.788 20.6807L125.919 15.9873C126.657 15.5582 126.69 14.8944 126.006 14.4988C125.604 14.3045 125.161 14.2075 124.714 14.2157C124.267 14.2238 123.828 14.3369 123.432 14.5458L115.301 19.2392C114.57 19.6616 114.53 20.3253 115.22 20.7209C115.622 20.9162 116.063 21.0143 116.509 21.0073C116.955 21.0003 117.393 20.8884 117.788 20.6807Z" fill="black"/>
<path d="M53.7156 85.7848C53.6997 85.3385 53.5784 84.9024 53.3617 84.512C53.145 84.1216 52.839 83.7881 52.4687 83.5387C52.3474 83.449 52.2037 83.3947 52.0534 83.3817C51.9032 83.3687 51.7523 83.3975 51.6174 83.4649C51.4632 83.5588 50.8465 83.9007 50.6856 84.0013C50.5509 84.1033 50.445 84.2384 50.378 84.3935C50.3111 84.5486 50.2854 84.7184 50.3035 84.8863V104.813C50.3197 105.259 50.4404 105.694 50.6558 106.084C50.8712 106.474 51.1753 106.808 51.5436 107.059C51.6648 107.141 51.8049 107.19 51.9505 107.202C52.096 107.213 52.2422 107.187 52.3749 107.126C52.5492 107.039 53.1726 106.677 53.3402 106.577C53.4748 106.475 53.5807 106.339 53.6477 106.184C53.7147 106.029 53.7403 105.859 53.7223 105.691L53.7156 85.7848Z" fill="#2C7BE5"/>
<path opacity="0.3" d="M53.7156 85.7848C53.6997 85.3385 53.5784 84.9024 53.3617 84.512C53.145 84.1216 52.839 83.7881 52.4687 83.5387C52.3474 83.449 52.2037 83.3947 52.0534 83.3817C51.9032 83.3687 51.7523 83.3975 51.6174 83.4649C51.4632 83.5588 50.8465 83.9007 50.6856 84.0013C50.5509 84.1033 50.445 84.2384 50.378 84.3935C50.3111 84.5486 50.2854 84.7184 50.3035 84.8863V104.813C50.3197 105.259 50.4404 105.694 50.6558 106.084C50.8712 106.474 51.1753 106.808 51.5436 107.059C51.6648 107.141 51.8049 107.19 51.9505 107.202C52.096 107.213 52.2422 107.187 52.3749 107.126C52.5492 107.039 53.1726 106.677 53.3402 106.577C53.4748 106.475 53.5807 106.339 53.6477 106.184C53.7147 106.029 53.7403 105.859 53.7223 105.691L53.7156 85.7848Z" fill="black"/>
<path d="M52.7907 86.3413V106.268C52.7907 107.113 52.2343 107.475 51.5439 107.079C51.1756 106.828 50.8714 106.494 50.656 106.104C50.4406 105.714 50.3199 105.279 50.3037 104.833V84.8864C50.3037 84.0348 50.8601 83.6728 51.5439 84.0684C51.917 84.3212 52.2246 84.6592 52.4414 85.0544C52.6582 85.4496 52.7779 85.8907 52.7907 86.3413Z" fill="#2C7BE5"/>
<path opacity="0.4" d="M52.7907 86.3413V106.268C52.7907 107.113 52.2343 107.475 51.5439 107.079C51.1756 106.828 50.8714 106.494 50.656 106.104C50.4406 105.714 50.3199 105.279 50.3037 104.833V84.8864C50.3037 84.0348 50.8601 83.6728 51.5439 84.0684C51.917 84.3212 52.2246 84.6592 52.4414 85.0544C52.6582 85.4496 52.7779 85.8907 52.7907 86.3413Z" fill="black"/>
<path d="M53.7156 112.49C53.6997 112.044 53.5784 111.608 53.3617 111.217C53.145 110.827 52.839 110.494 52.4687 110.244C52.3474 110.154 52.2037 110.1 52.0534 110.087C51.9032 110.074 51.7523 110.103 51.6174 110.17C51.4632 110.264 50.8465 110.606 50.6856 110.707C50.5509 110.809 50.445 110.944 50.378 111.099C50.3111 111.254 50.2854 111.424 50.3035 111.592V120.979C50.3207 121.423 50.4419 121.857 50.6573 122.246C50.8726 122.635 51.1762 122.968 51.5436 123.218C51.6608 123.305 51.7991 123.358 51.944 123.374C52.089 123.389 52.2354 123.365 52.3682 123.305C52.5424 123.218 53.1659 122.856 53.3335 122.755C53.4676 122.654 53.5732 122.52 53.6402 122.367C53.7071 122.213 53.7331 122.044 53.7156 121.877V112.49Z" fill="#2C7BE5"/>
<path opacity="0.3" d="M53.7156 112.49C53.6997 112.044 53.5784 111.608 53.3617 111.217C53.145 110.827 52.839 110.494 52.4687 110.244C52.3474 110.154 52.2037 110.1 52.0534 110.087C51.9032 110.074 51.7523 110.103 51.6174 110.17C51.4632 110.264 50.8465 110.606 50.6856 110.707C50.5509 110.809 50.445 110.944 50.378 111.099C50.3111 111.254 50.2854 111.424 50.3035 111.592V120.979C50.3207 121.423 50.4419 121.857 50.6573 122.246C50.8726 122.635 51.1762 122.968 51.5436 123.218C51.6608 123.305 51.7991 123.358 51.944 123.374C52.089 123.389 52.2354 123.365 52.3682 123.305C52.5424 123.218 53.1659 122.856 53.3335 122.755C53.4676 122.654 53.5732 122.52 53.6402 122.367C53.7071 122.213 53.7331 122.044 53.7156 121.877V112.49Z" fill="black"/>
<path d="M52.7907 112.993V122.38C52.7907 123.225 52.2343 123.593 51.5439 123.191C51.1756 122.94 50.8714 122.606 50.656 122.216C50.4406 121.826 50.3199 121.39 50.3037 120.945V111.558C50.3037 110.713 50.8601 110.345 51.5439 110.74C51.9135 110.992 52.2189 111.327 52.4355 111.718C52.6521 112.109 52.7737 112.546 52.7907 112.993Z" fill="#2C7BE5"/>
<path opacity="0.4" d="M52.7907 112.993V122.38C52.7907 123.225 52.2343 123.593 51.5439 123.191C51.1756 122.94 50.8714 122.606 50.656 122.216C50.4406 121.826 50.3199 121.39 50.3037 120.945V111.558C50.3037 110.713 50.8601 110.345 51.5439 110.74C51.9135 110.992 52.2189 111.327 52.4355 111.718C52.6521 112.109 52.7737 112.546 52.7907 112.993Z" fill="black"/>
<path d="M75.931 95.8554C75.9977 96.1809 76.0873 96.5013 76.1992 96.8142C76.6349 97.9942 77.4192 99.1072 77.3522 100.368C77.2784 101.789 76.1589 102.889 75.3009 104.022C74.1858 105.52 73.4426 107.262 73.1325 109.104C72.8225 110.946 72.9545 112.835 73.5177 114.616C74.3419 116.785 75.4852 118.818 76.9097 120.65L80.1475 125.243C81.1266 126.529 82.376 127.584 83.8077 128.334C86.5899 129.907 89.6942 130.824 92.8843 131.016C98.1279 131.37 103.344 130.002 107.739 127.12C112.398 124.036 110.347 116.124 115.113 113.234C120.878 109.748 123.627 97.6389 116.561 92.5834C116.561 92.5834 117.701 85.1679 115.609 83.2771C113.525 81.5326 110.946 80.4867 108.235 80.2867C104.495 79.8978 100.748 80.6287 97.0136 80.6153C93.1699 80.6029 89.3295 80.8425 85.5171 81.3327C84.1764 81.5137 82.286 82.0032 81.562 83.3106C81.3576 83.8234 81.3018 84.3834 81.4011 84.9265C81.3907 85.788 81.0829 86.6194 80.5296 87.2799C79.6984 88.2856 78.5186 88.9628 77.6337 89.9082C76.9035 90.6965 76.369 91.6456 76.0732 92.6787C75.7774 93.7118 75.7287 94.8 75.931 95.8554Z" fill="#263238"/>
<path d="M113.135 106.556C119.169 106.724 119.953 108.011 125.356 113.362C129.847 117.807 144.729 131.545 144.729 131.545L162.561 136.292L158.351 147.174C158.351 147.174 154.329 147.007 146.284 147C141.344 147 139.628 145.894 134.654 142.575C132.12 140.879 117.821 131.519 117.821 131.519L113.135 106.556Z" fill="#E6E6E6"/>
<path d="M182.289 114.287L149.609 125.806L140.6 164.694L141.331 165.472L172.401 153.879L183.013 115.065L182.289 114.287Z" fill="#2C7BE5"/>
<path opacity="0.35" d="M150.333 126.584L141.331 165.472L140.6 164.694L149.609 125.806L150.333 126.584Z" fill="black"/>
<path opacity="0.25" d="M183.013 115.065L150.334 126.584L141.331 165.472L172.402 153.879L183.013 115.065Z" fill="black"/>
<g opacity="0.2">
<path d="M167.541 145.968C167.843 146.732 170.35 148.415 173.977 148.113L174.587 145.874L167.541 145.968Z" fill="black"/>
</g>
<g opacity="0.1">
<path d="M173.172 123.03L173.441 121.723C173.588 121.005 171.671 121.381 169.157 122.568L163.258 124.351C160.744 125.538 158.371 126.423 158.217 127.14L157.949 128.441L173.172 123.03Z" fill="black"/>
</g>
<path d="M175.117 117.13C175.21 116.681 174.446 116.775 173.421 117.049L171.537 117.686C171.537 117.686 172.308 115.796 167.85 117.016C162.95 118.357 162.842 120.791 162.842 120.791C162.076 121.123 161.29 121.41 160.489 121.649C158.86 122.179 158.686 122.494 158.552 122.95L158.311 123.774L174.969 117.914C174.969 117.914 175.05 117.579 175.117 117.13Z" fill="#37474F"/>
<path d="M173.36 119.631C171.818 120.301 171.181 120.67 170.947 121.783C170.685 123.05 170.632 123.58 170.632 123.58L161.957 127C161.957 127 162.427 125.129 162.541 124.505C162.654 123.882 161.508 123.882 160.007 124.572L160.362 123.017L173.856 118.008L173.36 119.631Z" fill="#37474F"/>
<path d="M173.615 123.05C173.615 123.05 173.742 122.467 173.89 121.743C174.037 121.019 172.12 121.401 169.606 122.588L163.707 124.371C161.193 125.558 158.813 126.443 158.666 127.16L158.398 128.501L173.615 123.05Z" fill="#37474F"/>
<path d="M179.38 128.367C179.38 128.367 178.22 132.632 177.912 133.731C177.604 134.831 172.254 137.278 169.579 137.613C164.458 138.25 163.875 139.356 165.102 142.977C166.241 146.33 169.573 147.603 174.198 147.06C176.37 146.806 179.367 144.881 180.546 141.522C182.048 137.231 181.217 132.652 181.84 130.124C182.464 127.596 180.681 126.872 179.38 128.367Z" fill="#FFA8A7"/>
<path d="M128.741 187.008L125.276 189.019L123.821 189.857L104.756 200.86L102.155 202.335L97.7644 204.87L99.1051 191.185L101.666 164.687V164.413L101.787 163.226L105.138 128.582L106.606 113.422L107.123 107.985L107.297 106.228H107.391C108.943 105.796 110.584 105.796 112.137 106.228C112.483 106.333 112.819 106.467 113.142 106.63C115.153 107.629 116.494 109.574 117.607 111.619C117.88 112.117 118.127 112.629 118.344 113.154C119.171 115.141 119.808 117.202 120.248 119.309C121.126 123.198 122.259 127.174 122.708 133.443C122.779 135.056 122.694 136.673 122.454 138.27C122.151 142.497 122.1 146.737 122.299 150.969C122.862 160.557 125.276 164.902 128.741 187.008Z" fill="#E0E0E0"/>
<path d="M123.821 189.844L104.756 200.847L102.155 202.335L97.7643 204.87L94.741 206.613L76.3867 217.207C76.5811 209.831 76.6683 201.832 76.494 194.276C76.4403 191.748 76.4202 189.167 76.5275 186.525C76.8761 177.353 78.619 167.517 84.8667 157.165L85.1549 156.642C85.8923 161.02 92.5959 163.863 98.629 164.533L99.2994 164.594C100.057 164.667 100.841 164.701 101.652 164.701H102.162C107.263 164.654 113.303 163.454 120.261 161.1C120.932 164.989 121.602 170.092 122.319 176.059C122.641 178.741 122.967 181.599 123.298 184.634C123.432 186.331 123.64 188.067 123.821 189.844Z" fill="#FFA8A7"/>
<path d="M125.276 189.006L123.821 189.844L104.756 200.847L102.155 202.335L97.7644 204.87L94.7411 206.613L76.3868 217.206L74.3757 218.366C74.4763 210.428 74.5433 202.65 74.5366 197.769C74.5366 193.23 74.6372 189.194 74.8852 185.613C75.3746 178.546 76.3935 173.229 78.0962 169.206C80.094 164.803 82.4575 160.576 85.1617 156.568C85.1617 156.568 86.8376 162.227 99.3732 163.118H99.4537C100.191 163.172 100.969 163.206 101.786 163.219H102.738C118.344 163.219 120.067 159.283 120.067 159.283C121.592 165.071 122.798 170.937 123.68 176.857C124.011 178.949 124.33 181.184 124.639 183.562C124.867 185.305 125.081 187.115 125.276 189.006Z" fill="#2C7BE5"/>
<path opacity="0.4" d="M125.276 189.006L123.821 189.844L104.756 200.847L102.155 202.335L97.7644 204.87L94.7411 206.613L76.3868 217.206L74.3757 218.366C74.4763 210.428 74.5433 202.65 74.5366 197.769C74.5366 193.23 74.6372 189.194 74.8852 185.613C75.3746 178.546 76.3935 173.229 78.0962 169.206C80.094 164.803 82.4575 160.576 85.1617 156.568C85.1617 156.568 86.8376 162.227 99.3732 163.118H99.4537C100.191 163.172 100.969 163.206 101.786 163.219H102.738C118.344 163.219 120.067 159.283 120.067 159.283C121.592 165.071 122.798 170.937 123.68 176.857C124.011 178.949 124.33 181.184 124.639 183.562C124.867 185.305 125.081 187.115 125.276 189.006Z" fill="black"/>
<path opacity="0.2" d="M116.327 180.109C116.327 180.109 114.584 185.647 107.25 188.751L106.901 190.447L104.756 200.847L102.155 202.335L103.71 190.863L104.381 185.875C108.913 185.405 113.139 183.365 116.327 180.109Z" fill="black"/>
<path d="M94.0236 107.83L86.6497 108.608C81.7696 109.802 79.5641 111.961 79.0613 116.272C78.8267 118.283 77.6134 123.647 79.3161 130.352C80.8579 136.44 84.9738 151.338 84.9738 151.338C84.9738 151.338 75.5017 163.702 73.7856 184.903C91.121 196.22 117.714 190.139 124.907 183.3C124.303 176.823 120.167 159.049 119.651 153.276C119.651 153.276 120.033 144.258 120.751 140.349C126.234 134.361 125.537 128.635 123.077 124.016C118.532 115.487 111.681 107.991 109.462 107.998L94.0236 107.83Z" fill="#2C7BE5"/>
<path opacity="0.7" d="M94.0236 107.83L86.6497 108.608C81.7696 109.802 79.5641 111.961 79.0613 116.272C78.8267 118.283 77.6134 123.647 79.3161 130.352C80.8579 136.44 84.9738 151.338 84.9738 151.338C84.9738 151.338 75.5017 163.702 73.7856 184.903C91.121 196.22 117.714 190.139 124.907 183.3C124.303 176.823 120.167 159.049 119.651 153.276C119.651 153.276 120.033 144.258 120.751 140.349C126.234 134.361 125.537 128.635 123.077 124.016C118.532 115.487 111.681 107.991 109.462 107.998L94.0236 107.83Z" fill="white"/>
<path d="M100.412 153.993C100.412 154.127 100.412 154.248 100.412 154.349V154.523C100.417 154.579 100.417 154.635 100.412 154.691C100.158 157.372 99.856 160.222 99.5343 163.125C99.5343 163.125 99.5343 163.125 99.5343 163.165C99.4873 163.635 99.4337 164.104 99.3801 164.58C98.3947 173.33 97.2215 182.683 96.3166 191.198C96.0953 193.264 95.8942 195.275 95.7132 197.233C95.4317 200.163 95.13 203.374 94.8217 206.62L76.4674 217.213L74.4563 218.373L69.3281 221.33C70.3605 211.172 72.767 187.638 74.1077 177.018C74.2619 175.818 74.463 174.617 74.691 173.424L74.8719 172.552L74.9524 172.197C75.0395 171.795 75.1267 171.406 75.2205 171.01C75.3144 170.615 75.4015 170.279 75.4887 169.924C75.6965 169.113 75.9177 168.315 76.159 167.537C76.273 167.162 76.3802 166.786 76.5009 166.417C76.6216 166.049 76.7221 165.68 76.8428 165.318C77.0841 164.594 77.3187 163.883 77.5668 163.192C77.5639 163.179 77.5639 163.165 77.5668 163.152C77.6807 162.824 77.8014 162.482 77.9221 162.173C78.0829 161.717 78.2505 161.275 78.4181 160.832L78.6192 160.302C78.7198 160.061 78.8069 159.826 78.9008 159.592C79.2293 158.767 79.5711 157.983 79.8728 157.252C79.9398 157.091 80.0136 156.93 80.0806 156.776C80.1476 156.622 80.2549 156.394 80.3353 156.206C80.5364 155.736 80.7375 155.301 80.9319 154.865C81.0124 154.677 81.0995 154.496 81.18 154.322C81.2604 154.147 81.3744 153.919 81.4615 153.732L81.5889 153.464L81.723 153.202C81.7317 153.168 81.7477 153.136 81.7699 153.108C81.7882 153.059 81.8106 153.012 81.8369 152.967C81.8531 152.937 81.8666 152.906 81.8771 152.874C81.9329 152.779 81.9822 152.68 82.0246 152.579L82.4738 151.707C82.4738 151.66 82.5207 151.626 82.5341 151.586L82.7084 151.264L77.131 128.133L74.3558 116.641V116.453C74.4831 115.434 75.3345 110.626 80.2415 109.165C83.0118 108.449 85.8495 108.027 88.708 107.904C89.8074 107.837 90.7995 107.81 91.6107 107.79H92.8911H93.662C93.6637 107.806 93.6637 107.821 93.662 107.837C93.7022 107.938 93.8161 108.239 93.9904 108.709C94.0093 108.787 94.0362 108.864 94.0709 108.937C94.0715 108.948 94.0715 108.959 94.0709 108.97C95.2775 112.282 98.6628 121.924 100.345 130.298C100.64 131.747 100.882 133.161 101.056 134.502C101.559 138.693 101.19 145.706 100.412 153.993Z" fill="#FAFAFA"/>
<path d="M82.8892 140.188C82.8892 140.188 83.5595 136.882 84.545 129.742C85.6913 121.508 85.2823 117.438 84.0422 114.837L77.0504 128.173L82.6277 151.305C82.6277 151.305 76.8962 161.804 74.5835 173.431C80.067 157.936 86.0667 153.316 86.0667 153.316L82.8892 140.188Z" fill="#E6E6E6"/>
<path d="M107.384 102.668C109.556 102.668 109.811 103.03 111.681 105.537C112.794 107.032 119.839 118.665 119.839 118.665C119.839 118.665 114.235 111.29 110.005 109.051C109.191 108.573 108.31 108.221 107.391 108.005L107.384 102.668Z" fill="#EBEBEB"/>
<path d="M91.3222 127.388C91.3222 126.718 91.2551 125.27 91.1412 123.446C90.5848 114.502 90.3166 106.456 93.3332 105.785L93.5946 107.019C91.3959 107.495 92.1199 119.007 92.3947 123.339C92.5154 125.203 92.6092 126.691 92.5757 127.415L91.3222 127.388Z" fill="#2C7BE5"/>
<path d="M81.2668 68.8282L85.9593 72.67C86.2144 72.378 86.4072 72.037 86.526 71.6678C86.6447 71.2986 86.6868 70.9091 86.6498 70.5231C86.6128 70.137 86.4974 69.7626 86.3106 69.4228C86.1239 69.0829 85.8698 68.7848 85.5638 68.5466C84.9469 68.0363 84.1582 67.7812 83.3594 67.8336C82.5605 67.8859 81.8119 68.2417 81.2668 68.8282Z" fill="#263238"/>
<path d="M93.5209 103.238C93.5209 100.294 86.6632 95.8622 83.1237 89.6736C79.5843 83.4851 81.354 73.3071 86.2074 71.7449C86.2476 71.7449 86.3816 70.4374 86.4018 70.3435C86.6701 69.1627 87.1225 68.0313 87.7425 66.9911C89.72 63.585 93.9097 60.9567 97.7978 60.407C113.169 58.1675 120.235 64.1416 123.057 70.7123C123.971 72.9227 124.379 75.31 124.25 77.6988C124.171 79.4532 123.52 81.1335 122.397 82.4834C121.274 83.8332 119.74 84.7784 118.029 85.1747L93.5209 103.238Z" fill="#263238"/>
<path d="M114.845 68.5131C117.855 69.854 120.717 74.4334 120.67 87.3202C120.63 98.2491 117.278 101.011 115.589 101.823C113.9 102.634 110.595 102.218 107.384 101.729V108.005C107.384 108.005 109.79 110.371 108.946 111.86C108.101 113.348 104.984 114.609 100.137 113.087C94.647 111.364 93.3935 107.723 93.3935 107.723L93.2661 93.9513C93.2661 93.9513 91.4226 95.889 88.1714 93.0461C85.49 90.6927 84.5247 86.6631 86.5424 84.4505C88.5602 82.2379 91.1478 82.0636 93.4806 84.5377L95.1565 83.6526C98.1463 83.304 102.53 82.8011 105.761 81.1718C114.047 76.9545 114.905 72.3818 114.845 68.5131Z" fill="#FFA8A7"/>
<path d="M93.5278 82.7542L93.5681 88.7886C93.9555 88.7989 94.3409 88.7298 94.7007 88.5856C95.0605 88.4413 95.387 88.2251 95.6601 87.95C95.9332 87.675 96.1472 87.3469 96.2889 86.9861C96.4306 86.6253 96.497 86.2393 96.4841 85.8519C96.4768 85.0566 96.1672 84.2938 95.6182 83.7185C95.0691 83.1432 94.3218 82.7985 93.5278 82.7542Z" fill="#263238"/>
<path d="M115.126 83.6124C115.129 83.8959 115.215 84.1724 115.373 84.4075C115.532 84.6426 115.756 84.826 116.018 84.935C116.279 85.0439 116.567 85.0737 116.846 85.0205C117.124 84.9673 117.381 84.8336 117.584 84.6358C117.787 84.4381 117.928 84.185 117.988 83.9081C118.049 83.6311 118.027 83.3424 117.925 83.0778C117.824 82.8132 117.646 82.5843 117.416 82.4195C117.185 82.2547 116.911 82.1612 116.628 82.1507C116.433 82.1463 116.239 82.1807 116.057 82.2521C115.876 82.3235 115.71 82.4303 115.57 82.5664C115.431 82.7025 115.319 82.8651 115.243 83.0447C115.167 83.2243 115.127 83.4172 115.126 83.6124Z" fill="black"/>
<path d="M103.563 84.2561C103.551 84.4639 103.58 84.6721 103.649 84.8686C103.718 85.0651 103.825 85.2461 103.964 85.4012C104.103 85.5563 104.271 85.6824 104.459 85.7724C104.646 85.8624 104.85 85.9145 105.058 85.9256C105.269 85.9274 105.478 85.8874 105.673 85.8081C105.869 85.7288 106.047 85.6116 106.197 85.4634C106.347 85.3151 106.466 85.1386 106.548 84.9441C106.63 84.7496 106.672 84.5408 106.673 84.3298C106.68 84.1256 106.646 83.922 106.574 83.7307C106.502 83.5395 106.393 83.3643 106.253 83.2152C106.114 83.0661 105.946 82.9459 105.76 82.8617C105.573 82.7774 105.373 82.7306 105.168 82.724C104.964 82.7174 104.761 82.7511 104.569 82.8232C104.378 82.8953 104.203 83.0043 104.054 83.1441C103.905 83.2838 103.785 83.4516 103.7 83.6378C103.616 83.824 103.569 84.025 103.563 84.2293V84.2561Z" fill="black"/>
<path d="M118.961 80.9104L115.227 79.4286C115.313 79.1773 115.45 78.9466 115.63 78.7508C115.81 78.5551 116.028 78.3985 116.271 78.2909C116.513 78.1832 116.776 78.1269 117.042 78.1254C117.307 78.1239 117.57 78.1772 117.814 78.2821C118.306 78.4891 118.7 78.8775 118.913 79.3668C119.127 79.8562 119.144 80.4089 118.961 80.9104Z" fill="black"/>
<path d="M111.587 82.4324L111.399 91.3766L116.206 90.3106L111.587 82.4324Z" fill="#F28F8F"/>
<path d="M105.923 93.2003L110.615 94.6553C110.547 94.9752 110.413 95.2777 110.223 95.544C110.033 95.8103 109.791 96.0346 109.51 96.2031C109.23 96.3716 108.918 96.4807 108.594 96.5235C108.269 96.5664 107.94 96.5421 107.625 96.4522C106.981 96.2282 106.447 95.7673 106.131 95.1633C105.814 94.5592 105.74 93.8573 105.923 93.2003Z" fill="#B16668"/>
<path d="M108.517 96.5326C108.512 95.8799 108.249 95.2558 107.785 94.7962C107.322 94.3365 106.696 94.0786 106.043 94.0786C105.979 94.0753 105.914 94.0753 105.849 94.0786C105.873 94.6025 106.054 95.107 106.368 95.5267C106.683 95.9464 107.116 96.2618 107.612 96.4321C107.903 96.5282 108.212 96.5624 108.517 96.5326Z" fill="#F28F8F"/>
<path d="M107.384 101.762C103.998 101.36 97.0201 99.4157 95.8872 96.5796C96.3411 98.0033 97.2122 99.2577 98.3876 100.18C100.493 101.99 107.384 103.874 107.384 103.874V101.762Z" fill="#F28F8F"/>
<path d="M93.3599 102.701C92.4751 102.52 91.6908 102.909 90.9668 104.129C90.2428 105.35 88.6541 107.951 88.6541 107.951C88.6541 107.951 87.8295 116.527 88.6541 118.679C89.3646 120.529 97.2011 127.469 97.2011 127.469C97.2011 127.469 95.1565 135.173 95.0828 137.7C95.009 140.228 99.7752 149.823 100.352 154.731C100.352 154.731 102.048 139.31 101.317 133.751C100.057 124.116 95.5386 111.672 93.4069 107.716L93.3599 102.701Z" fill="#EBEBEB"/>
<path d="M98.1532 134.616C97.6302 133.371 97.014 132.168 96.3098 131.016C95.197 129.172 93.8227 127.402 92.5826 126.946C92.3946 126.871 92.1949 126.83 91.9927 126.825H91.9257C91.7215 126.837 91.5213 126.887 91.3357 126.973C90.357 127.408 89.3247 128.743 88.4867 130.278C87.6286 131.82 86.9214 133.441 86.3751 135.119C86.0534 136.158 86.1941 138.364 86.5762 140.885C87.327 145.78 88.9962 151.895 89.928 153.101C90.6109 153.945 91.4178 154.679 92.3212 155.281C91.7681 155.646 91.1713 155.942 90.5447 156.159C90.1903 156.288 89.8159 156.354 89.4386 156.353V157.232H89.5459C89.9444 157.225 90.3398 157.16 90.719 157.037C91.5977 156.752 92.4274 156.334 93.1792 155.797C93.9728 156.269 94.8342 156.618 95.7333 156.829C96.1566 156.931 96.5944 156.958 97.027 156.91L96.9198 156.038C96.5444 156.07 96.1663 156.04 95.8003 155.951C95.1554 155.783 94.5339 155.535 93.9501 155.213C94.8009 154.536 95.5464 153.736 96.1623 152.84C96.6852 152.042 97.3287 149.293 97.8114 146.135C98.1063 144.251 98.3476 142.226 98.4817 140.382C98.6292 137.808 98.5621 135.602 98.1532 134.616ZM95.3847 152.357C94.7557 153.265 93.9837 154.064 93.0988 154.724C92.1587 154.143 91.3207 153.412 90.6185 152.558C89.747 151.425 88.1382 145.458 87.4142 140.751C87.0455 138.371 86.9114 136.312 87.2064 135.387C87.753 133.689 88.4765 132.053 89.3649 130.506C90.29 128.91 91.2754 127.737 91.9592 127.71C92.7703 127.71 94.0842 129.179 95.3109 131.063C95.559 131.431 95.7936 131.834 96.0215 132.236C96.5216 133.102 96.9693 133.998 97.3622 134.918C97.7309 135.83 97.7711 137.888 97.6035 140.282C97.5097 141.623 97.3622 143.024 97.1745 144.419C96.6651 148.059 95.9478 151.472 95.3847 152.337V152.357Z" fill="#455A64"/>
<path d="M98.2269 156.394C98.2373 156.649 98.1716 156.903 98.038 157.121C97.9044 157.34 97.709 157.514 97.4765 157.621C97.244 157.728 96.9849 157.764 96.7319 157.724C96.479 157.684 96.2436 157.57 96.0556 157.396C95.8676 157.222 95.7355 156.996 95.6759 156.747C95.6163 156.498 95.632 156.237 95.7209 155.997C95.8098 155.757 95.968 155.548 96.1755 155.398C96.3829 155.248 96.6302 155.163 96.8862 155.153C97.2282 155.14 97.5614 155.264 97.8127 155.496C98.064 155.729 98.2129 156.051 98.2269 156.394Z" fill="#263238"/>
<path d="M90.7124 156.742C90.7242 156.998 90.6596 157.252 90.5269 157.472C90.3942 157.691 90.1993 157.866 89.967 157.974C89.7346 158.083 89.4754 158.12 89.222 158.08C88.9687 158.041 88.7327 157.928 88.544 157.754C88.3554 157.58 88.2225 157.355 88.1624 157.105C88.1022 156.856 88.1174 156.595 88.2061 156.354C88.2948 156.113 88.4529 155.905 88.6604 155.754C88.868 155.604 89.1155 155.518 89.3717 155.508C89.5408 155.501 89.7096 155.528 89.8685 155.586C90.0274 155.644 90.1733 155.733 90.2978 155.847C90.4224 155.962 90.5231 156.1 90.5942 156.253C90.6654 156.407 90.7055 156.573 90.7124 156.742Z" fill="#263238"/>
<path d="M98.3742 140.369L97.6301 140.315C97.5543 140.309 97.484 140.273 97.434 140.215C97.384 140.158 97.3582 140.083 97.362 140.007C97.5162 137.546 97.4357 135.736 97.1341 135.012C95.8336 131.834 93.112 127.851 91.9657 127.898C90.8193 127.945 88.4463 132.149 87.414 135.421C87.1793 136.172 87.2531 137.982 87.6084 140.423C87.62 140.497 87.602 140.573 87.5581 140.635C87.5143 140.696 87.4481 140.738 87.3737 140.751L86.6363 140.865C86.5591 140.875 86.4811 140.853 86.4196 140.805C86.3581 140.758 86.3179 140.688 86.3079 140.61C85.8989 137.875 85.852 135.997 86.1604 135.025C86.7101 133.269 89.3043 126.691 91.912 126.584C94.5197 126.477 97.6637 132.806 98.3608 134.516C98.7429 135.454 98.8569 137.332 98.6826 140.087C98.6774 140.165 98.6425 140.238 98.585 140.29C98.5275 140.343 98.452 140.371 98.3742 140.369Z" fill="#2C7BE5"/>
<path d="M82.2994 109.077C77.3924 108.997 75.1266 110.653 72.0162 114.817C69.5493 118.122 59.9498 135.984 56.7656 141.2L39.4303 131.934C35.9243 129.514 34.7914 125.692 32.5726 123.459C30.3537 121.227 28.0544 120.777 25.6143 118.934C23.1742 117.09 22.1821 115.655 21.4782 117.378C20.7743 119.101 23.4893 121.89 24.0054 122.581C24.5216 123.272 27.2433 124.807 23.7105 124.861C20.1777 124.914 13.1859 121.253 11.4832 120.603C9.78054 119.953 9.88109 121.984 10.719 123.285C11.557 124.586 11.5168 128.26 12.9312 130.385C14.4261 132.638 15.2439 133.617 18.5756 135.079C21.6726 136.42 28.175 136.956 31.4665 139.015C34.7579 141.073 42.9161 148.328 47.8767 152.679C54.1848 158.211 58.5354 159.223 62.048 155.904C65.4601 152.33 68.9191 148.14 70.6084 146.014C75.1601 140.282 82.3597 127.241 82.3597 127.241C82.3597 127.241 85.4769 120.536 82.2994 109.077Z" fill="#FFA8A7"/>
<path d="M82.9763 108.588C75.7499 108.588 73.5913 111.203 69.891 117.244C66.1906 123.285 56.6984 140.577 56.6984 140.577L43.0299 133.416C43.0299 133.416 40.5697 138.833 37.9553 144.419C37.9553 144.419 45.6912 151.123 49.3513 154.295C53.0115 157.466 57.8648 159.954 62.3629 156.072C67.1693 151.928 82.7551 130.399 82.7551 130.399C86.4554 123.681 85.6309 113.496 82.9763 108.588Z" fill="#F0F0F0"/>
<path d="M56.6985 140.577C58.9308 143.205 61.6323 146.162 61.5116 148.489C61.5116 148.489 63.04 146.423 57.6705 138.813L56.6985 140.577Z" fill="#E0E0E0"/>
<path d="M30.843 76.0963L25.2522 79.3012L25.2723 72.878L21.0893 70.4642L11.3357 76.0963V87.3605L1.58203 92.9925V104.257L5.76504 106.67L11.3357 103.452V109.895L15.5187 112.309L25.2723 106.67V95.4063L35.026 89.7742V78.5101L30.843 76.0963Z" fill="#2C7BE5"/>
<path d="M5.76514 95.4063V106.67L15.5188 101.038V112.309L25.2724 106.67V95.4063L35.0261 89.7742V78.5101L25.2389 84.1623L25.2724 72.878L15.5188 78.5101V89.7742L5.76514 95.4063Z" fill="#2C7BE5"/>
<g opacity="0.2">
<path d="M5.76504 106.67L1.58203 104.257V92.9925L5.76504 95.4062V106.67Z" fill="black"/>
<path d="M15.5187 78.5101L11.3357 76.0963V87.3605L15.5187 89.7742V78.5101Z" fill="black"/>
<path d="M15.5187 112.309L11.3357 109.895V103.452L15.5187 101.038V112.309Z" fill="black"/>
</g>
<g opacity="0.5">
<path d="M15.5187 89.7742L11.3357 87.3605L1.58203 92.9925L5.76504 95.4063L15.5187 89.7742Z" fill="white"/>
<path d="M25.2723 72.878L21.0893 70.4642L11.3357 76.0963L15.5187 78.5101L25.2723 72.878Z" fill="white"/>
<path d="M35.0259 78.5101L30.8429 76.0963L25.2522 79.3012L25.2388 84.1622L35.0259 78.5101Z" fill="white"/>
</g>
<path d="M191.272 53.4875C191.095 53.3341 190.904 53.1972 190.702 53.0785C189.992 52.6561 186.774 50.8056 186.606 50.705C184.904 49.6188 182.209 49.8602 179.809 51.0738C176.37 52.8103 173.508 56.4779 171.322 62.586C171.322 62.586 169.11 60.997 168.393 60.5745C166.616 59.6023 164.538 60.0717 162.199 61.5937C159.564 63.3101 157.768 65.5361 156.125 68.902V68.9623C154.702 71.8203 153.924 74.9561 153.846 78.148C153.846 85.2082 156.735 88.574 160.496 91.1017C161.569 91.8259 164.404 93.3479 164.686 93.5356C166.955 95.0344 169.465 96.1321 172.107 96.7807L175.814 97.6457L179.521 92.503C182.22 88.7112 184.697 84.7666 186.942 80.6891C190.702 73.8166 193.645 67.085 193.591 60.0516C193.538 57.0411 192.673 54.8285 191.272 53.4875Z" fill="#215CAC"/>
<path opacity="0.3" d="M191.272 53.4875C191.095 53.3341 190.904 53.1972 190.702 53.0785C189.992 52.6561 186.774 50.8056 186.606 50.705C184.904 49.6188 182.209 49.8602 179.809 51.0738C176.37 52.8103 173.508 56.4779 171.322 62.586C171.322 62.586 169.11 60.997 168.393 60.5745C166.616 59.6023 164.538 60.0717 162.199 61.5937C159.564 63.3101 157.768 65.5361 156.125 68.902V68.9623C154.702 71.8203 153.924 74.9561 153.846 78.148C153.846 85.2082 156.735 88.574 160.496 91.1017C161.569 91.8259 164.404 93.3479 164.686 93.5356C166.955 95.0344 169.465 96.1321 172.107 96.7807L175.814 97.6457L179.521 92.503C182.22 88.7112 184.697 84.7666 186.942 80.6891C190.702 73.8166 193.645 67.085 193.591 60.0516C193.538 57.0411 192.673 54.8285 191.272 53.4875Z" fill="black"/>
<path d="M191.272 53.4875C191.095 53.3341 190.904 53.1972 190.702 53.0785C189.992 52.6561 186.774 50.8056 186.606 50.705C184.904 49.6188 182.209 49.8602 179.809 51.0738C176.37 52.8103 173.508 56.4779 171.322 62.586C171.322 62.586 169.11 60.9969 168.393 60.5745C166.616 59.6023 164.538 60.0717 162.199 61.5937C159.564 63.3101 157.768 65.5361 156.125 68.902V68.9623C156.052 69.1098 155.991 69.2573 155.924 69.4048L184.079 85.644C185.078 84.0214 186.05 82.3787 186.975 80.6891C190.736 73.8166 193.679 67.085 193.625 60.0516C193.538 57.0411 192.673 54.8285 191.272 53.4875Z" fill="#215CAC"/>
<path opacity="0.15" d="M191.272 53.4875C191.095 53.3341 190.904 53.1972 190.702 53.0785C189.992 52.6561 186.774 50.8056 186.606 50.705C184.904 49.6188 182.209 49.8602 179.809 51.0738C176.37 52.8103 173.508 56.4779 171.322 62.586C171.322 62.586 169.11 60.9969 168.393 60.5745C166.616 59.6023 164.538 60.0717 162.199 61.5937C159.564 63.3101 157.768 65.5361 156.125 68.902V68.9623C156.052 69.1098 155.991 69.2573 155.924 69.4048L184.079 85.644C185.078 84.0214 186.05 82.3787 186.975 80.6891C190.736 73.8166 193.679 67.085 193.625 60.0516C193.538 57.0411 192.673 54.8285 191.272 53.4875Z" fill="black"/>
<path d="M171.302 62.5592L175.07 67.4739L181.143 60.2863L174.279 56.3237C173.056 58.2842 172.058 60.3758 171.302 62.5592Z" fill="#215CAC"/>
<path opacity="0.3" d="M171.302 62.5592L175.07 67.4739L181.143 60.2863L174.279 56.3237C173.056 58.2842 172.058 60.3758 171.302 62.5592Z" fill="black"/>
<path d="M191.272 53.4875C189.63 52.0191 186.64 52.1465 183.999 53.4875C180.399 55.3112 177.422 59.247 175.197 65.9116C172.971 61.8216 169.995 61.6942 166.395 64.0342C163.754 65.7507 161.957 67.9767 160.322 71.3425L160.288 71.4029C158.87 74.2648 158.094 77.4021 158.016 80.5952C158.016 87.6554 160.912 91.0213 164.666 93.549C166.935 95.0478 169.445 96.1455 172.086 96.7941L175.793 97.6591L179.5 92.5165C182.199 88.7246 184.677 84.78 186.921 80.7025C190.682 73.83 193.625 67.0984 193.571 60.065C193.538 57.0411 192.673 54.8285 191.272 53.4875Z" fill="#215CAC"/>
<g opacity="0.07">
<path d="M188.108 52.8171C189.141 52.7698 190.157 53.0958 190.97 53.7357C190.985 53.7646 191.005 53.7898 191.031 53.8094C192.412 55.0699 193.183 57.3093 193.189 60.0986C193.189 67.4404 189.837 74.5676 186.586 80.5618C184.359 84.6261 181.897 88.5573 179.212 92.3355L175.653 97.2904L172.187 96.4791C169.585 95.8398 167.112 94.7605 164.874 93.2876C161.522 91.0079 158.358 87.9237 158.385 80.6288C158.456 77.4918 159.208 74.4078 160.59 71.5907V71.5303C162.239 68.1444 164.015 66.0055 166.536 64.3695C167.707 63.501 169.103 62.9888 170.558 62.8945C172.261 62.8945 173.662 63.9471 174.842 66.1128C174.871 66.1708 174.916 66.2193 174.972 66.2525C175.028 66.2858 175.092 66.3024 175.157 66.3005H175.19C175.259 66.2941 175.325 66.2679 175.38 66.2252C175.435 66.1824 175.476 66.1247 175.499 66.0592C177.624 59.6963 180.446 55.7002 184.119 53.8429C185.346 53.2003 186.704 52.8493 188.088 52.8171M188.088 52.4617C186.648 52.4914 185.235 52.854 183.958 53.5211C180.359 55.3448 177.382 59.2806 175.157 65.9452C173.87 63.5717 172.328 62.5324 170.558 62.5324C169.039 62.6323 167.581 63.1651 166.355 64.0678C163.714 65.7843 161.917 68.0103 160.282 71.3761L160.248 71.4365C158.83 74.2984 158.054 77.4357 157.976 80.6288C157.976 87.689 160.872 91.0549 164.626 93.5826C166.895 95.0814 169.405 96.1791 172.046 96.8277L175.753 97.6926L179.46 92.55C182.159 88.7582 184.637 84.8136 186.881 80.7361C190.642 73.8636 193.585 67.1319 193.531 60.0986C193.531 57.0747 192.653 54.8285 191.252 53.5412C190.367 52.8203 189.248 52.4504 188.108 52.502L188.088 52.4617Z" fill="black"/>
</g>
<path d="M190.863 72.4958L183.65 76.6662L180.968 66.9106C180.93 66.7631 180.843 66.6329 180.722 66.5415C180.6 66.4501 180.45 66.4029 180.298 66.4077C180.141 66.4046 179.988 66.4565 179.866 66.5545C179.743 66.6525 179.659 66.7904 179.628 66.9441L175.451 86.0261L171.939 76.4114C171.932 76.2336 171.854 76.0658 171.724 75.9451C171.593 75.8244 171.419 75.7606 171.242 75.7677C171.064 75.7748 170.896 75.8523 170.776 75.9831C170.655 76.1138 170.591 76.2872 170.598 76.465L168.225 84.893L160.288 89.4791C160.549 89.8588 160.831 90.2236 161.133 90.572L169.177 85.939C169.333 85.8487 169.448 85.7024 169.499 85.53L171.369 78.8788L174.969 88.7081C175.017 88.8456 175.108 88.9638 175.229 89.0449C175.35 89.1259 175.494 89.1654 175.639 89.1573C175.788 89.1498 175.93 89.0931 176.043 88.9959C176.156 88.8988 176.233 88.7669 176.263 88.6209L180.352 69.968L182.51 77.8864C182.536 77.9883 182.585 78.0827 182.654 78.1621C182.723 78.2415 182.809 78.3035 182.906 78.3433C183.004 78.3831 183.109 78.3995 183.213 78.3912C183.318 78.3829 183.419 78.3501 183.509 78.2954L189.918 74.6011C190.286 73.8971 190.581 73.1998 190.863 72.4958Z" fill="white"/>
<path d="M221.136 251.81C220.862 252.719 220.839 253.685 221.069 254.606C221.338 255.169 223.013 257.02 226.432 257.69C229.851 258.361 234.55 257.69 236.575 257.57C238.599 257.449 244.954 258.24 246.972 258.495C250.149 258.924 252.589 258.227 253.776 257.08C253.968 256.85 254.11 256.581 254.192 256.293C254.274 256.004 254.294 255.701 254.252 255.404C254.245 254.639 254.132 253.879 253.917 253.145L221.136 251.81Z" fill="#263238"/>
<path d="M253.394 249.819C253.454 250.08 253.514 250.349 253.568 250.617C253.877 251.966 253.975 253.355 253.856 254.734C253.447 255.739 252.328 256.296 251.423 256.577C249.03 257.342 247.213 257.248 244.565 256.718C241.902 256.33 239.211 256.164 236.521 256.222C234.436 256.363 231.567 256.765 229.482 256.571C227.709 256.497 225.96 256.139 224.3 255.511C222.913 254.921 221.491 254.17 221.15 252.722C220.741 249.705 222.008 248.377 223.436 247.533C224.863 246.688 226.895 246.755 229.066 246.614C231.031 246.48 232.465 246.48 234.215 246.346C235.728 246.272 237.231 246.064 238.706 245.722C240.047 245.307 241.388 243.624 241.937 243.563C241.937 243.563 250.685 243.496 251.517 243.563C252.482 243.644 252.777 246.634 252.898 247.285C252.991 247.794 253.012 248.344 253.146 248.833C253.233 249.162 253.313 249.49 253.394 249.819Z" fill="#37474F"/>
<path d="M226.439 256.168C226.164 253.996 225.769 249.289 229.791 246.567H230.294C228.487 246.044 226.57 246.044 224.763 246.567C221.566 247.419 220.144 250.007 220.942 252.742C220.956 252.715 221.666 255.364 226.439 256.168Z" fill="#FAFAFA"/>
<path d="M238.11 245.876C236.816 247.023 236.367 249.631 236.367 249.631C236.199 250.61 234.43 250.758 234.597 249.812C234.867 248.512 235.389 247.278 236.132 246.178C236.739 245.858 237.435 245.752 238.11 245.876Z" fill="#FAFAFA"/>
<path d="M234.483 246.326C233.507 247.281 232.87 248.529 232.666 249.879C232.485 250.818 231.011 250.804 231.118 249.879C231.118 249.879 231.285 247.566 232.666 246.487C232.934 246.315 233.239 246.211 233.555 246.183C233.871 246.155 234.19 246.204 234.483 246.326Z" fill="#FAFAFA"/>
<path d="M251.785 237.2C251.785 237.2 251.55 242.826 251.242 244.67C251.054 245.769 249.613 246.922 246.027 246.802C243.506 246.715 241.522 246.922 241.622 244.951L241.844 239.205L251.785 237.2Z" fill="#FFA8A7"/>
<path d="M257.409 223.911C257.282 225.447 257.074 226.835 257.704 228.524C258.603 230.952 260.506 232.065 261.626 233.017C262.803 234.184 263.89 235.439 264.877 236.771C265.976 238.112 266.265 238.91 267.914 240.372C268.735 241.005 269.707 241.413 270.734 241.558C271.761 241.702 272.808 241.578 273.773 241.197C275.2 240.586 275.697 240.104 275.609 237.911C275.522 235.719 268.537 234.974 268.537 234.974L257.409 223.911Z" fill="#263238"/>
<path d="M274.704 231.381C275.301 231.595 275.448 232.675 275.542 234.82C275.609 236.443 276.327 238.843 273.974 239.842C272.077 240.667 269.047 240.117 267.766 238.588C266.171 236.677 265.085 234.994 262.806 232.668C260.795 230.656 258.783 229.986 257.892 225.93C257.322 223.328 257.771 222.255 259.608 221.511C262.135 220.485 266.097 223.831 268.081 224.361C269.784 224.81 274.108 231.166 274.704 231.381Z" fill="#37474F"/>
<path d="M268.081 224.361L267.746 224.247C266.616 224.289 265.516 224.626 264.557 225.225C263.597 225.823 262.811 226.663 262.276 227.659C261.941 228.363 262.946 228.913 263.617 228.363C265.024 225.681 267.92 225.105 269.08 224.977C268.795 224.703 268.454 224.493 268.081 224.361Z" fill="#FAFAFA"/>
<path d="M269.71 225.581C268.649 225.68 267.629 226.042 266.743 226.633C265.856 227.224 265.129 228.026 264.629 228.967C264.294 229.637 265.333 230.221 265.97 229.637C266.448 228.798 267.104 228.074 267.891 227.514C268.679 226.955 269.578 226.574 270.528 226.399C270.24 226.131 269.972 225.842 269.71 225.581Z" fill="#FAFAFA"/>
<path d="M275.046 227.505L274.704 232.031C274.704 232.031 271.829 234.13 267.706 232.205C267.585 231.957 267.237 227.907 267.237 227.907L275.046 227.505Z" fill="#FFA8A7"/>
<path d="M259.052 228.913C259.052 228.913 259.246 224.106 266.077 223.442L266.473 223.65C265.695 222.444 264.503 221.566 263.121 221.182C260.855 220.599 259.059 221.182 257.865 222.617C256.672 224.052 257.872 227.981 259.052 228.913Z" fill="#FAFAFA"/>
<path d="M277.037 197.36C276.058 189.442 275.696 185.03 275.696 185.03C275.696 185.03 275.502 173.88 276.179 163.574C276.474 159.055 276.628 154.054 276.722 149.494C276.847 144.473 276.447 139.453 275.529 134.516C275.529 134.516 240.476 127.543 240.04 140.402C239.511 155.824 239.578 182.18 238.981 192.244C238.653 197.897 239.223 202.583 239.578 213.566C239.866 222.671 239.779 245.079 239.779 245.079C243.64 250.382 252.757 246.339 252.757 246.339C252.757 246.339 255.572 214.873 255.988 208.37C256.431 201.376 255.693 197.836 255.693 197.836L259.306 165.257C259.306 165.257 259.581 175.71 259.89 181.349C260.198 186.988 261.022 190.454 262.491 200.974C263.764 210.106 266.472 233.412 266.472 233.412C271.165 236.188 275.696 233.412 275.696 233.412C275.696 233.412 278.016 205.279 277.037 197.36Z" fill="#455A64"/>
<path d="M272.251 152.364C272.251 152.364 267.86 157.969 262.195 160.376C262.195 160.376 259.742 180.082 259.762 179.693L259.125 159.86C259.125 159.86 267.558 156.132 272.251 152.364Z" fill="#37474F"/>
<path d="M272.13 89.0232C275.904 88.1784 280.175 90.8738 283.017 96.888C285.765 102.641 293.273 117.17 293.454 121.24C293.649 125.457 274.892 138.25 275.355 138.002C275.502 137.928 272.117 128.327 272.117 128.327L281.227 120.784L276.273 110.579L272.13 89.0232Z" fill="#FFA8A7"/>
<path d="M270.146 88.118C273.323 87.7291 279.082 88.9293 281.28 92.751C284.471 98.2825 287.381 104.679 291.088 112.946C291.088 112.946 288.339 118.9 280.429 119.463L275.69 111.149L270.146 88.118Z" fill="#37474F"/>
<path d="M254.151 83.1363L254.701 94.8698L266.325 94.2462L265.969 80.6153L254.151 83.1363Z" fill="#FFA8A7"/>
<path d="M277.741 94.0249C276.762 90.8267 273.384 88.1917 269.114 88.0643C268.162 88.0643 266.164 88.0643 266.164 88.0643C265.681 90.0423 259.628 90.7463 254.453 89.5595C252.891 89.9752 246.409 91.571 245.068 91.9733C241.348 93.2069 240.201 97.0019 239.625 109.138C239.625 109.138 239.739 133.061 239.625 144.479C246.167 147.932 256.276 147.503 263.469 146.772C274.771 145.632 276.454 141.536 276.454 141.536C275.978 134.878 276.266 132.37 276.454 125.799C276.595 120.858 278.016 115.635 278.465 110.036C279.129 101.715 278.405 96.2241 277.741 94.0249Z" fill="#F69A85"/>
<path d="M252.334 85.3623C249.653 85.1746 246.301 87.3134 245.437 91.8928L247.622 91.3095L252.334 85.3623Z" fill="#F69A85"/>
<path opacity="0.3" d="M252.334 85.3623C249.653 85.1746 246.301 87.3134 245.437 91.8928L247.622 91.3095L252.334 85.3623Z" fill="black"/>
<path d="M254.299 86.3412C256.31 87.0117 262.175 86.9179 264.14 86.3412C266.104 85.7646 266.084 84.893 266.084 84.893V83.9074C267.216 83.9042 268.323 84.2482 269.254 84.893C270.508 85.9121 272.667 89.5864 272.606 91.3498C272.546 93.1131 268.778 97.7663 261.512 97.6523C254.245 97.5383 250.163 94.8497 248.909 93.0796L247.649 91.3028C247.649 91.3028 249.372 87.7627 251.068 86.2742C251.937 85.4311 253.052 84.8864 254.252 84.7187L254.299 86.3412Z" fill="#F69A85"/>
<path opacity="0.2" d="M254.299 86.3412C256.31 87.0117 262.175 86.9179 264.14 86.3412C266.104 85.7646 266.084 84.893 266.084 84.893V83.9074C267.216 83.9042 268.323 84.2482 269.254 84.893C270.508 85.9121 272.667 89.5864 272.606 91.3498C272.546 93.1131 268.778 97.7663 261.512 97.6523C254.245 97.5383 250.163 94.8497 248.909 93.0796L247.649 91.3028C247.649 91.3028 249.372 87.7627 251.068 86.2742C251.937 85.4311 253.052 84.8864 254.252 84.7187L254.299 86.3412Z" fill="black"/>
<path d="M246.328 68.7477C246.328 68.7477 243.56 72.9517 243.875 73.3607C244.19 73.7697 246.228 74.1519 246.228 74.1519L246.328 68.7477Z" fill="#F28F8F"/>
<path d="M254.024 57.1081C248.42 58.2949 246.181 59.9376 245.832 69.5188C245.497 78.8386 246.67 81.9094 247.89 83.1632C248.715 84.008 253.307 84.1622 255.619 83.5185C258.515 82.7207 265.065 80.4008 268.128 75.7208C271.735 70.2094 272.68 62.7402 268.799 59.6761C263.389 55.3649 256.31 56.6254 254.024 57.1081Z" fill="#FFA8A7"/>
<path d="M247.89 83.1564C248.561 83.8269 251.772 84.0817 254.185 83.7867L254.151 82.3987C252.152 83.1365 250.008 83.396 247.89 83.1564Z" fill="#F28F8F"/>
<path d="M245.088 60.7086C246.484 61.7097 248.216 62.1259 249.915 61.8685C249.881 62.6197 250.083 63.3627 250.491 63.9939C251.06 64.8547 251.923 65.479 252.918 65.7506C252.304 66.9534 251.978 68.2824 251.966 69.6327C251.928 70.0565 252.019 70.4819 252.227 70.853C252.292 70.9878 252.393 71.1017 252.519 71.1814C252.646 71.2612 252.792 71.3035 252.941 71.3035C253.091 71.3035 253.237 71.2612 253.363 71.1814C253.49 71.1017 253.591 70.9878 253.655 70.853C253.97 70.1397 254.366 69.4648 254.835 68.8415C255.443 68.1142 256.297 67.6367 257.235 67.5006C260.754 67.1184 261.197 71.7246 259.789 73.6355C257.483 76.76 255.525 74.6412 255.525 74.6412C255.436 76.1059 255.658 77.5729 256.178 78.945C256.698 80.3171 257.504 81.5629 258.542 82.5999C261.044 83.3372 263.695 83.4042 266.231 82.7943C269.355 78.4965 271.319 76.4046 272.988 72.6968C276.514 64.8454 274.812 59.9174 272.083 57.8389C271.547 54.225 268.698 52.6024 265.447 51.8582C260.593 50.7384 256.062 53.6215 251.249 52.5286C250.459 52.3633 249.678 52.1574 248.909 51.9118C248.613 51.7729 248.275 51.7513 247.964 51.8514C247.791 51.9661 247.656 52.1288 247.575 52.3195C247.494 52.5102 247.471 52.7204 247.508 52.9242C247.568 53.8495 248.507 54.8753 248.983 55.3715C247.932 55.4677 246.872 55.4067 245.839 55.1905C245.48 55.1232 245.112 55.1232 244.753 55.1905C244.359 55.3509 244.026 55.632 243.802 55.9934C243.578 56.3548 243.475 56.7779 243.506 57.2019C243.51 57.8645 243.653 58.519 243.925 59.123C244.198 59.727 244.594 60.2671 245.088 60.7086Z" fill="#263238"/>
<path d="M272.171 59.0056L275.522 56.9942C275.256 56.5496 274.823 56.2292 274.32 56.1035C273.818 55.9777 273.285 56.0569 272.841 56.3237C272.396 56.5904 272.076 57.0228 271.95 57.5258C271.825 58.0288 271.904 58.5611 272.171 59.0056Z" fill="#263238"/>
<path d="M228.49 111.82C227.73 108.834 226.997 105.843 226.291 102.849C225.621 100.093 224.589 96.9014 225.534 94.0854C226.071 92.8555 226.746 91.6903 227.545 90.6122C228.236 89.4759 228.82 88.2772 229.288 87.0318C229.522 86.4284 229.737 85.8116 229.958 85.2014C230.179 84.5913 230.494 84.2426 230.347 83.6593C229.858 81.7484 227.391 84.256 226.888 85.0405C226.665 85.4523 226.405 85.8428 226.11 86.2072C225.788 86.5491 225.004 86.9782 224.629 86.4753C224.504 86.2736 224.434 86.0422 224.428 85.8049C224.173 82.8614 225.232 80.2264 226.11 77.4774C226.249 77.1165 226.333 76.7368 226.358 76.351C226.374 76.1584 226.348 75.9646 226.282 75.7829C226.216 75.6012 226.112 75.4359 225.976 75.2984C225.758 75.1307 225.499 75.0238 225.226 74.9884C224.953 74.9531 224.675 74.9906 224.421 75.0972C223.925 75.2648 223.496 75.58 223 75.7342C222.504 75.8884 222.135 75.8884 221.699 76.0024C220.666 76.2328 219.67 76.6099 218.743 77.1221C217.134 78.0675 216.424 79.4487 216.001 81.2053C215.494 83.3631 215.322 85.5861 215.492 87.7962C215.606 89.2646 215.867 90.7128 216.048 92.1611L216.652 97.0087C217.06 100.24 217.181 116.386 217.738 119.597C218.294 122.809 219.366 124.961 221.907 126.027C225.594 127.529 231.554 120.744 234.939 117.23L228.49 111.82Z" fill="#FFA8A7"/>
<path d="M227.143 109.989C224.77 111.766 221.813 114.723 221.217 117.686C221.217 117.686 220.627 112.356 227.143 107.629V109.989Z" fill="#F28F8F"/>
<path d="M244.88 92.0471C242.601 92.2616 238.847 92.3421 235.026 96.4521C230.595 101.253 223.764 110.72 223.764 110.72C223.764 110.72 224.656 118.256 231.909 120.958C231.909 120.958 242.454 110.901 244.719 106.57C246.985 102.238 247.495 95.0575 244.88 92.0471Z" fill="#37474F"/>
<path d="M241.844 76.1163L238.961 74.5675L240.617 73.1528L234.631 70.3502L237.245 68.8349L230.796 65.402L234.631 68.7879L231.514 70.3502L238.546 73.3942L236.809 75.1307L241.844 76.1163Z" fill="#2C7BE5"/>
<path d="M243.312 72.3146L241.435 70.5177L242.461 69.7601L240.812 67.8023L242.394 67.2659L241.844 64.7851L242.957 67.4603L241.844 67.9431L243.627 69.9009L242.42 70.7591L243.312 72.3146Z" fill="#2C7BE5"/>
<path d="M242.219 78.9525L238.68 81.7149L237.372 79.7906L234.275 81.4735L233.008 79.0933L228.215 80.3203L233.759 77.6652L235.348 79.8577L237.922 78.4765L238.995 80.3203L242.219 78.9525Z" fill="#2C7BE5"/>
<path d="M217.61 128.387C217.718 128.298 217.857 128.255 217.996 128.267C218.136 128.28 218.265 128.347 218.355 128.454C219.04 129.224 219.93 129.783 220.921 130.066C221.913 130.348 222.964 130.343 223.952 130.05C224.019 130.026 224.091 130.017 224.162 130.021C224.234 130.026 224.303 130.045 224.367 130.077C224.431 130.109 224.487 130.154 224.533 130.209C224.58 130.264 224.614 130.327 224.635 130.395C224.656 130.464 224.662 130.536 224.655 130.607C224.647 130.678 224.625 130.747 224.59 130.809C224.555 130.871 224.508 130.926 224.451 130.97C224.395 131.013 224.33 131.045 224.26 131.063C223.075 131.413 221.815 131.418 220.627 131.076C219.439 130.734 218.374 130.059 217.557 129.132C217.511 129.08 217.476 129.019 217.454 128.953C217.431 128.887 217.423 128.818 217.428 128.748C217.433 128.679 217.451 128.611 217.483 128.549C217.514 128.487 217.558 128.432 217.61 128.387Z" fill="#E0E0E0"/>
<path d="M218.147 131.934C218.241 131.856 218.359 131.813 218.482 131.813C218.604 131.813 218.723 131.856 218.817 131.934C219.363 132.329 219.988 132.599 220.649 132.727C221.31 132.854 221.992 132.835 222.645 132.672C222.783 132.646 222.926 132.676 223.043 132.755C223.16 132.834 223.241 132.956 223.268 133.094C223.282 133.162 223.282 133.232 223.268 133.3C223.255 133.368 223.228 133.432 223.189 133.489C223.15 133.547 223.101 133.596 223.043 133.634C222.985 133.672 222.92 133.698 222.853 133.711C222.045 133.899 221.206 133.906 220.395 133.734C219.584 133.561 218.821 133.212 218.16 132.712C218.107 132.667 218.064 132.612 218.032 132.55C218.001 132.488 217.982 132.42 217.977 132.351C217.972 132.282 217.981 132.212 218.003 132.146C218.025 132.081 218.061 132.02 218.106 131.968C218.118 131.955 218.132 131.944 218.147 131.934Z" fill="#E0E0E0"/>
<path d="M283.969 91.2961C283.907 91.3282 283.839 91.3476 283.769 91.3532C283.7 91.3587 283.63 91.3503 283.564 91.3285C283.498 91.3066 283.436 91.2717 283.384 91.2259C283.331 91.18 283.289 91.1241 283.258 91.0614C282.769 90.1541 282.032 89.4042 281.134 88.8986C280.236 88.3931 279.213 88.1526 278.183 88.2052C278.114 88.2091 278.044 88.1993 277.978 88.1764C277.913 88.1534 277.852 88.1177 277.8 88.0714C277.695 87.9777 277.632 87.8461 277.624 87.7057C277.616 87.5652 277.664 87.4273 277.757 87.3223C277.851 87.2173 277.983 87.1538 278.123 87.1458C279.359 87.0811 280.587 87.3704 281.664 87.9797C282.741 88.5889 283.622 89.4929 284.203 90.5854C284.264 90.7111 284.274 90.8557 284.23 90.9884C284.186 91.1212 284.093 91.2316 283.969 91.2961Z" fill="#E0E0E0"/>
<path d="M284.263 87.7425C284.151 87.8016 284.021 87.8178 283.898 87.7882C283.775 87.7586 283.666 87.6852 283.593 87.5816C283.16 87.0759 282.624 86.6693 282.02 86.3893C281.416 86.1094 280.759 85.9626 280.094 85.959C280.024 85.9564 279.956 85.9401 279.893 85.911C279.829 85.882 279.773 85.8407 279.725 85.7897C279.678 85.7386 279.641 85.6787 279.617 85.6135C279.593 85.5482 279.582 85.4788 279.584 85.4092C279.587 85.3397 279.603 85.2713 279.632 85.2081C279.661 85.1448 279.703 85.0879 279.754 85.0406C279.805 84.9933 279.865 84.9565 279.93 84.9323C279.995 84.9081 280.065 84.897 280.134 84.8997C280.961 84.908 281.776 85.0971 282.521 85.4539C283.267 85.8106 283.926 86.3263 284.451 86.9648C284.527 87.0782 284.555 87.2167 284.53 87.3507C284.505 87.4847 284.428 87.6037 284.317 87.6822L284.263 87.7425Z" fill="#E0E0E0"/>
<path d="M293.635 126.389C293.568 126.266 293.552 126.122 293.591 125.988C293.63 125.853 293.72 125.74 293.843 125.672C294.726 125.141 295.44 124.37 295.901 123.449C296.363 122.528 296.553 121.494 296.451 120.469C296.442 120.4 296.448 120.329 296.467 120.262C296.486 120.195 296.519 120.133 296.562 120.078C296.606 120.024 296.66 119.979 296.722 119.946C296.783 119.913 296.85 119.892 296.92 119.886C297.059 119.871 297.199 119.912 297.308 120C297.418 120.088 297.488 120.215 297.503 120.355C297.623 121.581 297.392 122.816 296.838 123.916C296.284 125.016 295.429 125.937 294.372 126.57C294.312 126.608 294.245 126.633 294.176 126.644C294.106 126.655 294.034 126.652 293.966 126.636C293.897 126.619 293.832 126.588 293.775 126.546C293.719 126.504 293.671 126.45 293.635 126.389Z" fill="#E0E0E0"/>
<path d="M297.195 126.517C297.135 126.408 297.115 126.281 297.138 126.159C297.161 126.036 297.226 125.926 297.322 125.846C297.809 125.391 298.19 124.836 298.442 124.219C298.693 123.602 298.807 122.938 298.777 122.273C298.777 122.132 298.833 121.997 298.932 121.898C299.031 121.799 299.166 121.743 299.306 121.743C299.447 121.743 299.582 121.799 299.681 121.898C299.78 121.997 299.836 122.132 299.836 122.273C299.865 123.098 299.714 123.92 299.395 124.681C299.075 125.443 298.595 126.126 297.986 126.684C297.931 126.727 297.869 126.759 297.802 126.778C297.735 126.797 297.665 126.803 297.596 126.795C297.527 126.787 297.46 126.765 297.399 126.731C297.338 126.697 297.285 126.652 297.242 126.597L297.195 126.517Z" fill="#E0E0E0"/>
<path d="M235.529 190.266C235.654 190.33 235.749 190.44 235.794 190.573C235.839 190.705 235.831 190.851 235.77 190.977C235.345 191.916 235.197 192.956 235.342 193.976C235.486 194.996 235.919 195.953 236.588 196.737C236.678 196.845 236.723 196.984 236.712 197.124C236.7 197.265 236.634 197.395 236.527 197.488C236.421 197.579 236.284 197.624 236.144 197.614C236.005 197.604 235.875 197.539 235.783 197.434C234.98 196.491 234.462 195.339 234.291 194.112C234.12 192.885 234.303 191.634 234.818 190.508C234.881 190.383 234.991 190.287 235.124 190.242C235.257 190.197 235.402 190.206 235.529 190.266Z" fill="#E0E0E0"/>
<path d="M232.526 192.177C232.64 192.231 232.732 192.325 232.783 192.44C232.835 192.556 232.843 192.686 232.807 192.808C232.667 193.459 232.669 194.133 232.813 194.784C232.958 195.434 233.242 196.045 233.645 196.576C233.724 196.691 233.755 196.833 233.731 196.97C233.708 197.108 233.631 197.231 233.518 197.313C233.403 197.394 233.261 197.426 233.123 197.402C232.985 197.378 232.861 197.3 232.78 197.186C232.284 196.523 231.937 195.759 231.766 194.949C231.595 194.138 231.602 193.3 231.788 192.492C231.809 192.425 231.843 192.363 231.888 192.309C231.933 192.255 231.988 192.21 232.05 192.178C232.113 192.145 232.181 192.125 232.251 192.12C232.321 192.114 232.392 192.122 232.459 192.144L232.526 192.177Z" fill="#E0E0E0"/>
<path d="M196.132 6.18478C196.099 5.55957 195.918 4.95107 195.605 4.40914C195.291 3.8672 194.854 3.40727 194.329 3.06702L192.867 2.21551C192.308 1.93583 191.692 1.79022 191.067 1.79022C190.442 1.79022 189.826 1.93583 189.267 2.21551L155.314 21.8406C154.789 22.1817 154.352 22.6418 154.039 23.1835C153.726 23.7253 153.545 24.3334 153.511 24.9584V42.5184C153.545 43.1432 153.727 43.7511 154.04 44.2928C154.353 44.8345 154.79 45.2947 155.314 45.6361L156.782 46.4809C157.339 46.7653 157.956 46.9135 158.582 46.9135C159.208 46.9135 159.824 46.7653 160.382 46.4809L194.329 26.8625C194.854 26.5223 195.291 26.0624 195.605 25.5204C195.918 24.9785 196.099 24.37 196.132 23.7448V6.18478Z" fill="#2C7BE5"/>
<path opacity="0.5" d="M196.132 6.18478C196.099 5.55957 195.918 4.95107 195.605 4.40914C195.291 3.8672 194.854 3.40727 194.329 3.06702L192.867 2.21551C192.308 1.93583 191.692 1.79022 191.067 1.79022C190.442 1.79022 189.826 1.93583 189.267 2.21551L155.314 21.8406C154.789 22.1817 154.352 22.6418 154.039 23.1835C153.726 23.7253 153.545 24.3334 153.511 24.9584V42.5184C153.545 43.1432 153.727 43.7511 154.04 44.2928C154.353 44.8345 154.79 45.2947 155.314 45.6361L156.782 46.4809C157.339 46.7653 157.956 46.9135 158.582 46.9135C159.208 46.9135 159.824 46.7653 160.382 46.4809L194.329 26.8625C194.854 26.5223 195.291 26.0624 195.605 25.5204C195.918 24.9785 196.099 24.37 196.132 23.7448V6.18478Z" fill="white"/>
<path opacity="0.2" d="M153.511 42.5183C153.545 43.1431 153.727 43.751 154.04 44.2927C154.353 44.8344 154.79 45.2946 155.314 45.6361L156.782 46.4809C157.289 46.7365 157.845 46.8818 158.412 46.9072C158.979 46.9326 159.546 46.8376 160.074 46.6284C159.222 46.9502 158.579 46.4742 158.579 45.4416V27.8816C158.6 27.2538 158.783 26.6421 159.108 26.1048L154.04 23.1815C153.714 23.7184 153.532 24.3304 153.511 24.9583V42.5183Z" fill="black"/>
<path opacity="0.3" d="M196.072 5.67522C195.864 4.91087 195.167 4.66279 194.335 5.14554L160.382 24.7639C159.848 25.0919 159.408 25.5542 159.108 26.1049L154.047 23.1816C154.347 22.6327 154.783 22.1707 155.314 21.8406L189.261 2.22222C189.818 1.9379 190.435 1.78967 191.061 1.78967C191.686 1.78967 192.303 1.9379 192.861 2.22222L194.335 3.06703C194.786 3.36177 195.172 3.74487 195.471 4.19317C195.769 4.64147 195.974 5.14565 196.072 5.67522Z" fill="white"/>
<path d="M158.586 33.5606L153.524 30.6373L147.424 36.5108C147.332 36.6032 147.263 36.7152 147.221 36.8384C147.179 36.9617 147.165 37.0929 147.181 37.2221C147.198 37.3513 147.243 37.4751 147.314 37.5842C147.385 37.6933 147.48 37.7848 147.592 37.8518L152.572 40.7482C152.779 40.8562 153.011 40.9049 153.243 40.889L158.606 39.8632V33.5606H158.586Z" fill="#2C7BE5"/>
<path opacity="0.5" d="M158.586 33.5606L153.524 30.6373L147.424 36.5108C147.332 36.6032 147.263 36.7152 147.221 36.8384C147.179 36.9617 147.165 37.0929 147.181 37.2221C147.198 37.3513 147.243 37.4751 147.314 37.5842C147.385 37.6933 147.48 37.7848 147.592 37.8518L152.572 40.7482C152.779 40.8562 153.011 40.9049 153.243 40.889L158.606 39.8632V33.5606H158.586Z" fill="white"/>
<path opacity="0.3" d="M152.572 40.7483L149.891 39.2129L149.576 39.005L148.141 38.1736L147.967 38.0664L147.585 37.8451C147.473 37.7781 147.378 37.6867 147.307 37.5776C147.236 37.4685 147.191 37.3446 147.175 37.2154C147.158 37.0862 147.172 36.955 147.214 36.8318C147.256 36.7086 147.326 36.5965 147.417 36.5041L153.518 30.6307L158.585 33.5607L152.485 39.4073C152.388 39.4934 152.312 39.6005 152.263 39.7204C152.214 39.8402 152.193 39.9698 152.201 40.0991C152.209 40.2284 152.247 40.3541 152.312 40.4667C152.376 40.5792 152.465 40.6755 152.572 40.7483Z" fill="white"/>
<path d="M168.5 28.1632C167.799 28.6189 167.216 29.2335 166.798 29.957C166.38 30.6805 166.139 31.4925 166.093 32.3269C166.093 33.8557 167.173 34.4792 168.5 33.7149C169.199 33.2588 169.781 32.644 170.198 31.9205C170.615 31.197 170.856 30.3851 170.9 29.5511C170.9 28.009 169.827 27.3989 168.5 28.1632Z" fill="white"/>
<path d="M177.355 23.0408C176.656 23.4968 176.074 24.1116 175.657 24.8351C175.24 25.5587 174.999 26.3705 174.955 27.2045C174.955 28.7332 176.028 29.3567 177.355 28.5857C178.054 28.1303 178.635 27.5166 179.052 26.7943C179.469 26.072 179.71 25.2615 179.755 24.4287C179.742 22.8933 178.682 22.2697 177.355 23.0408Z" fill="white"/>
<path d="M186.211 17.9115C185.512 18.3687 184.931 18.9838 184.514 19.707C184.098 20.4303 183.857 21.2416 183.811 22.0752C183.811 23.6106 184.884 24.2274 186.211 23.4631C186.912 23.0068 187.496 22.3911 187.914 21.6664C188.332 20.9416 188.573 20.1283 188.617 19.2927C188.617 17.7707 187.538 17.1471 186.211 17.9115Z" fill="white"/>
<path d="M261.485 40.6075L259.051 36.0549L261.009 30.4027V26.9229L255.016 30.3826V33.8423L257.59 38.3078C257.633 38.3745 257.693 38.4279 257.764 38.462L261.485 40.6075Z" fill="#215CAC"/>
<path opacity="0.2" d="M261.485 40.6075L259.051 36.0549L261.009 30.4027V26.9229L255.016 30.3826V33.8423L257.59 38.3078C257.633 38.3745 257.693 38.4279 257.764 38.462L261.485 40.6075Z" fill="black"/>
<path d="M279.685 4.39475C279.652 3.7713 279.472 3.16452 279.159 2.62388C278.847 2.08324 278.412 1.62404 277.888 1.2837L276.427 0.438892C275.871 0.154629 275.255 0.00640869 274.63 0.00640869C274.006 0.00640869 273.39 0.154629 272.834 0.438892L238.961 20.0104C238.44 20.3549 238.006 20.816 237.695 21.3571C237.383 21.8983 237.201 22.5046 237.164 23.1281V40.6479C237.198 41.2713 237.378 41.8781 237.69 42.4188C238.002 42.9594 238.438 43.4186 238.961 43.7589L240.422 44.6037C240.98 44.8823 241.595 45.0274 242.219 45.0274C242.842 45.0274 243.457 44.8823 244.015 44.6037L258.763 36.0215L261.337 40.4736C261.374 40.5331 261.427 40.5811 261.49 40.612C261.553 40.643 261.624 40.6557 261.693 40.6487C261.763 40.6418 261.83 40.6154 261.885 40.5725C261.941 40.5297 261.983 40.4722 262.008 40.4065L264.729 32.5685L277.855 25.0256C278.378 24.6852 278.814 24.226 279.126 23.6854C279.438 23.1448 279.618 22.538 279.651 21.9145L279.685 4.39475Z" fill="#215CAC"/>
<path d="M247.313 26.5206L274.396 10.8782C275.2 10.4156 275.85 10.7441 275.85 11.6157C275.814 12.103 275.663 12.5749 275.411 12.9931C275.158 13.4113 274.81 13.764 274.396 14.0228L247.313 29.6652C246.516 30.1278 245.865 29.7993 245.865 28.9277C245.902 28.4411 246.052 27.9699 246.303 27.5518C246.555 27.1337 246.901 26.7805 247.313 26.5206Z" fill="white"/>
<path d="M247.313 33.487L274.396 17.8513C275.2 17.3887 275.85 17.7172 275.85 18.5821C275.815 19.0706 275.665 19.5438 275.412 19.9632C275.159 20.3826 274.811 20.7365 274.396 20.9959L247.313 36.6316C246.516 37.1009 245.865 36.7657 245.865 35.9008C245.901 35.413 246.05 34.9404 246.302 34.5211C246.553 34.1018 246.9 33.7476 247.313 33.487Z" fill="white"/>
<path opacity="0.2" d="M237.164 40.6478C237.198 41.2712 237.378 41.878 237.69 42.4186C238.002 42.9593 238.438 43.4185 238.961 43.7588L240.422 44.6036C240.928 44.8582 241.483 45.003 242.049 45.0284C242.615 45.0538 243.18 44.9593 243.707 44.7511C242.862 45.0663 242.219 44.5902 242.219 43.5644V26.0446C242.24 25.4198 242.42 24.8107 242.742 24.2745L237.687 21.3512C237.366 21.8898 237.186 22.5011 237.164 23.128V40.6478Z" fill="black"/>
<path opacity="0.2" d="M279.625 3.87158C279.417 3.10723 278.72 2.86585 277.888 3.3419L244.016 22.9201C243.482 23.2474 243.045 23.7101 242.749 24.261L237.694 21.3444C237.995 20.7964 238.431 20.3347 238.961 20.0034L272.827 0.425286C273.386 0.145611 274.002 0 274.627 0C275.252 0 275.868 0.145611 276.427 0.425286L277.888 1.2701C278.34 1.56261 278.727 1.94424 279.025 2.39159C279.324 2.83893 279.528 3.34255 279.625 3.87158Z" fill="white"/>
</svg>
