<svg width="412" height="792" viewBox="0 0 412 792" fill="none" xmlns="http://www.w3.org/2000/svg">
<path d="M0 -1H412C412 -1 502 493 318 411C134 329 0 792 0 792V-1Z" fill="url(#paint0_linear_227_3766)"/>
<circle cx="308" cy="170" r="47" fill="url(#paint1_linear_227_3766)" fill-opacity="0.64"/>
<circle cx="2" cy="107" r="47" fill="url(#paint3_linear_227_3766)" fill-opacity="0.64"/>
<circle cx="194" cy="141" r="6" fill="url(#paint4_linear_227_3766)" fill-opacity="0.64"/>
<circle cx="123" cy="186" r="6" fill="url(#paint5_linear_227_3766)" fill-opacity="0.64"/>
<circle cx="373" cy="253" r="6" fill="url(#paint6_linear_227_3766)" fill-opacity="0.64"/>
<circle cx="25" cy="160" r="6" fill="url(#paint7_linear_227_3766)" fill-opacity="0.64"/>
<circle cx="92" cy="241" r="6" fill="url(#paint8_linear_227_3766)" fill-opacity="0.64"/>
<circle cx="75" cy="141" r="6" fill="url(#paint9_linear_227_3766)" fill-opacity="0.64"/>
<circle cx="360" cy="206" r="6" fill="url(#paint10_linear_227_3766)" fill-opacity="0.64"/>
<defs>
<linearGradient id="paint0_linear_227_3766" x1="397" y1="-56" x2="206" y2="623" gradientUnits="userSpaceOnUse">
<stop stop-color="#2C7BE5"/>
<stop offset="1" stop-color="white"/>
</linearGradient>
<linearGradient id="paint1_linear_227_3766" x1="308" y1="123" x2="308" y2="217" gradientUnits="userSpaceOnUse">
<stop stop-color="#2C7BE5"/>
<stop offset="1" stop-color="white"/>
</linearGradient>
<linearGradient id="paint2_linear_227_3766" x1="66.2178" y1="400.947" x2="66.2178" y2="449.714" gradientUnits="userSpaceOnUse">
<stop stop-color="#2C7BE5"/>
<stop offset="1" stop-color="white"/>
</linearGradient>
<linearGradient id="paint3_linear_227_3766" x1="2" y1="60" x2="2" y2="154" gradientUnits="userSpaceOnUse">
<stop stop-color="#2C7BE5"/>
<stop offset="1" stop-color="white"/>
</linearGradient>
<linearGradient id="paint4_linear_227_3766" x1="194" y1="135" x2="194" y2="147" gradientUnits="userSpaceOnUse">
<stop stop-color="#2C7BE5"/>
<stop offset="1" stop-color="white"/>
</linearGradient>
<linearGradient id="paint5_linear_227_3766" x1="123" y1="180" x2="123" y2="192" gradientUnits="userSpaceOnUse">
<stop stop-color="#2C7BE5"/>
<stop offset="1" stop-color="white"/>
</linearGradient>
<linearGradient id="paint6_linear_227_3766" x1="373" y1="247" x2="373" y2="259" gradientUnits="userSpaceOnUse">
<stop stop-color="#2C7BE5"/>
<stop offset="1" stop-color="white"/>
</linearGradient>
<linearGradient id="paint7_linear_227_3766" x1="25" y1="154" x2="25" y2="166" gradientUnits="userSpaceOnUse">
<stop stop-color="#2C7BE5"/>
<stop offset="1" stop-color="white"/>
</linearGradient>
<linearGradient id="paint8_linear_227_3766" x1="92" y1="235" x2="92" y2="247" gradientUnits="userSpaceOnUse">
<stop stop-color="#F69A85"/>
<stop offset="1" stop-color="white"/>
</linearGradient>
<linearGradient id="paint9_linear_227_3766" x1="75" y1="135" x2="75" y2="147" gradientUnits="userSpaceOnUse">
<stop stop-color="#F69A85"/>
<stop offset="1" stop-color="white"/>
</linearGradient>
<linearGradient id="paint10_linear_227_3766" x1="360" y1="200" x2="360" y2="212" gradientUnits="userSpaceOnUse">
<stop stop-color="#F69A85"/>
<stop offset="1" stop-color="white"/>
</linearGradient>
</defs>
</svg>
