<svg width="349" height="261" viewBox="0 0 349 261" fill="none" xmlns="http://www.w3.org/2000/svg">
<path d="M349.881 229.024H0.118896V229.199H349.881V229.024Z" fill="#EBEBEB"/>
<path d="M314.835 240.28H291.667V240.455H314.835V240.28Z" fill="#EBEBEB"/>
<path d="M231.815 242.182H225.737V242.357H231.815V242.182Z" fill="#EBEBEB"/>
<path d="M290.967 233.788H257.621V233.963H290.967V233.788Z" fill="#EBEBEB"/>
<path d="M53.3807 234.963H36.8159V235.138H53.3807V234.963Z" fill="#EBEBEB"/>
<path d="M77.6891 234.963H59.6064V235.138H77.6891V234.963Z" fill="#EBEBEB"/>
<path d="M137.303 237.915H92.0854V238.09H137.303V237.915Z" fill="#EBEBEB"/>
<path d="M308.896 18.1877H198.392V229.024H308.896V18.1877Z" fill="#EBEBEB"/>
<path d="M300.677 25.064H206.612V229.024H300.677V25.064Z" fill="#F5F5F5"/>
<path d="M266.876 41.9785H240.427V49.2885H266.876V41.9785Z" fill="white"/>
<path d="M278.789 114.596H293.136C293.729 114.596 294.299 114.832 294.719 115.252C295.138 115.671 295.374 116.241 295.374 116.835C295.374 117.428 295.138 117.998 294.719 118.417C294.299 118.837 293.729 119.073 293.136 119.073H278.789C278.195 119.073 277.625 118.837 277.206 118.417C276.786 117.998 276.55 117.428 276.55 116.835C276.55 116.241 276.786 115.671 277.206 115.252C277.625 114.832 278.195 114.596 278.789 114.596Z" fill="white"/>
<path d="M122.844 40.6214H49.3516V99.8501H122.844V40.6214Z" fill="#EBEBEB"/>
<path d="M118.891 95.9048V44.5667L53.2897 44.5667V95.9048H118.891Z" fill="#FAFAFA"/>
<path d="M111.245 70.9108V68.4554H60.9426V70.9108H111.245Z" fill="#E0E0E0"/>
<path d="M111.245 76.4999V74.0446H60.9426V76.4999H111.245Z" fill="#E0E0E0"/>
<path d="M111.245 82.0822V79.6268H60.9426V82.0822H111.245Z" fill="#E0E0E0"/>
<path d="M98.6331 87.6714V85.2161H73.5551V87.6714H98.6331Z" fill="#E0E0E0"/>
<path d="M60.9775 44.5667C60.9775 45.5749 60.7781 46.5732 60.3908 47.504C60.0035 48.4348 59.436 49.2799 58.7208 49.9905C58.0056 50.7011 57.157 51.2633 56.2237 51.6446C55.2904 52.026 54.2909 52.219 53.2827 52.2125C51.8917 52.2159 50.5266 51.8359 49.3374 51.1143V40.6214H59.8303C60.5655 41.8072 60.9622 43.1716 60.9775 44.5667Z" fill="#EBEBEB"/>
<path d="M122.843 40.6214V51.1143C121.381 51.9939 119.666 52.359 117.972 52.1515C116.279 51.9439 114.703 51.1756 113.496 49.9688C112.289 48.7621 111.521 47.1863 111.313 45.4924C111.106 43.7985 111.471 42.0838 112.351 40.6214H122.843Z" fill="#EBEBEB"/>
<path d="M60.9777 95.9118C60.9801 97.2996 60.6027 98.6615 59.8864 99.8501H49.3936V89.3573C50.5541 88.6623 51.8782 88.2875 53.2308 88.2708C54.5834 88.2542 55.9162 88.5964 57.0935 89.2625C58.2709 89.9287 59.2506 90.895 59.9329 92.063C60.6152 93.2311 60.9757 94.5591 60.9777 95.9118Z" fill="#EBEBEB"/>
<path d="M122.844 89.3502V99.8431H112.351C111.629 98.6565 111.249 97.2937 111.252 95.9048C111.254 94.5503 111.615 93.2203 112.298 92.0506C112.981 90.8809 113.962 89.9132 115.141 89.2462C116.319 88.5792 117.654 88.2368 119.009 88.2538C120.363 88.2709 121.689 88.6468 122.851 89.3433L122.844 89.3502Z" fill="#EBEBEB"/>
<path d="M92.5251 58.1188C93.1014 54.5685 90.6905 51.2232 87.1402 50.6469C83.5898 50.0706 80.2445 52.4815 79.6682 56.0318C79.0919 59.5822 81.5029 62.9274 85.0532 63.5037C88.6035 64.08 91.9488 61.6691 92.5251 58.1188Z" fill="#E0E0E0"/>
<path d="M182.233 144.906H36.8159V150.139H182.233V144.906Z" fill="#EBEBEB"/>
<path d="M180.974 150.139H133.728V229.024H180.974V150.139Z" fill="#F5F5F5"/>
<path d="M85.8596 150.139H38.6138V229.024H85.8596V150.139Z" fill="#F5F5F5"/>
<path d="M40.2297 150.139H38.6138V229.024H40.2297V150.139Z" fill="#EBEBEB"/>
<path d="M135.344 150.139H133.728V229.024H135.344V150.139Z" fill="#EBEBEB"/>
<path d="M63.4259 132.294H54.7378L55.4373 144.906H62.7264L63.4259 132.294Z" fill="#F0F0F0"/>
<path d="M138.856 139.436H93.4636V144.906H138.856V139.436Z" fill="#F0F0F0"/>
<path d="M138.863 140.08H117.933V144.27H138.863V140.08Z" fill="#FAFAFA"/>
<path d="M175 260.615C249.907 260.615 310.631 257.069 310.631 252.696C310.631 248.323 249.907 244.778 175 244.778C100.093 244.778 39.3694 248.323 39.3694 252.696C39.3694 257.069 100.093 260.615 175 260.615Z" fill="#F5F5F5"/>
<path d="M238.454 203.715C250.693 203.715 260.615 193.794 260.615 181.555C260.615 169.315 250.693 159.394 238.454 159.394C226.215 159.394 216.293 169.315 216.293 181.555C216.293 193.794 226.215 203.715 238.454 203.715Z" fill="white"/>
<path d="M238.454 203.988C234.017 203.99 229.679 202.675 225.989 200.211C222.298 197.747 219.422 194.243 217.723 190.144C216.024 186.045 215.579 181.534 216.443 177.182C217.308 172.83 219.444 168.832 222.581 165.694C225.719 162.556 229.716 160.418 234.068 159.552C238.42 158.686 242.931 159.13 247.03 160.828C251.13 162.525 254.634 165.401 257.099 169.09C259.565 172.78 260.881 177.117 260.881 181.554C260.875 187.501 258.511 193.203 254.306 197.409C250.102 201.615 244.401 203.981 238.454 203.988ZM238.454 159.673C234.125 159.673 229.892 160.957 226.293 163.363C222.693 165.768 219.888 169.187 218.231 173.187C216.575 177.187 216.142 181.588 216.987 185.834C217.832 190.08 219.917 193.98 222.979 197.041C226.041 200.102 229.942 202.186 234.188 203.03C238.434 203.874 242.836 203.439 246.835 201.781C250.834 200.124 254.252 197.317 256.657 193.717C259.061 190.116 260.343 185.884 260.342 181.554C260.336 175.752 258.028 170.188 253.925 166.086C249.821 161.983 244.257 159.677 238.454 159.673Z" fill="#407BFF"/>
<path d="M242.022 168.991H234.886V194.118H242.022V168.991Z" fill="#407BFF"/>
<path d="M251.018 185.129V177.994H225.891V185.129H251.018Z" fill="#407BFF"/>
<path d="M88.336 14.0395L87.8604 13.5288C91.0985 10.4677 95.2074 8.48782 99.6194 7.86267L99.7173 8.5622C95.4476 9.16435 91.4705 11.0784 88.336 14.0395Z" fill="#407BFF"/>
<path d="M83.1596 21.6853L82.509 21.4334C83.2152 19.6514 84.1562 17.9717 85.3071 16.4388L85.8668 16.8586C84.7569 18.342 83.8467 19.9648 83.1596 21.6853Z" fill="#407BFF"/>
<path d="M102.676 48.4841C113.277 48.4841 121.871 39.8902 121.871 29.2891C121.871 18.6881 113.277 10.0942 102.676 10.0942C92.0753 10.0942 83.4814 18.6881 83.4814 29.2891C83.4814 39.8902 92.0753 48.4841 102.676 48.4841Z" fill="#407BFF"/>
<path d="M114.141 20.643C113.402 19.8755 112.517 19.2632 111.539 18.8417C110.56 18.4202 109.507 18.1981 108.441 18.1883C107.376 18.1786 106.319 18.3813 105.333 18.7848C104.346 19.1882 103.45 19.7843 102.697 20.5381C101.945 19.7845 101.049 19.1886 100.064 18.7852C99.0778 18.3819 98.0216 18.1791 96.9566 18.1889C95.8916 18.1987 94.8392 18.4207 93.8611 18.8421C92.883 19.2635 91.9987 19.8757 91.26 20.643C89.8124 22.2089 89.0325 24.2775 89.0861 26.4093C89.1396 28.5411 90.0224 30.568 91.5468 32.0592L100.641 41.153C100.913 41.4259 101.237 41.6423 101.594 41.79C101.95 41.9377 102.332 42.0137 102.718 42.0137C103.104 42.0137 103.486 41.9377 103.843 41.79C104.199 41.6423 104.523 41.4259 104.796 41.153L113.89 32.0592C115.409 30.5634 116.286 28.534 116.333 26.4022C116.38 24.2705 115.594 22.2044 114.141 20.643Z" fill="white"/>
<path d="M102.676 37.6764C102.535 37.6716 102.399 37.6242 102.286 37.5406C102.172 37.4569 102.086 37.3409 102.04 37.2077L97.9896 25.3648L96.2968 30.3174C96.2487 30.455 96.1587 30.5742 96.0396 30.6582C95.9204 30.7422 95.778 30.7869 95.6322 30.7861H88.8538C88.6683 30.7861 88.4904 30.7124 88.3592 30.5812C88.228 30.45 88.1543 30.2721 88.1543 30.0865C88.1543 29.901 88.228 29.7231 88.3592 29.5919C88.4904 29.4607 88.6683 29.387 88.8538 29.387H95.1495L97.3461 22.9724C97.3936 22.8349 97.4829 22.7157 97.6013 22.6314C97.7198 22.547 97.8616 22.5016 98.0071 22.5016C98.1525 22.5016 98.2944 22.547 98.4129 22.6314C98.5313 22.7157 98.6206 22.8349 98.6682 22.9724L102.788 35.0252L106.79 25.6026C106.84 25.4825 106.923 25.3789 107.03 25.3035C107.136 25.2281 107.261 25.1839 107.391 25.1759C107.522 25.1684 107.653 25.1978 107.768 25.2609C107.883 25.324 107.978 25.4182 108.042 25.5326L110.154 29.38H116.527C116.713 29.38 116.89 29.4537 117.022 29.5849C117.153 29.7161 117.227 29.894 117.227 30.0795C117.227 30.2651 117.153 30.443 117.022 30.5742C116.89 30.7054 116.713 30.7791 116.527 30.7791H109.749C109.623 30.7801 109.5 30.7476 109.392 30.6848C109.284 30.6221 109.194 30.5314 109.133 30.4223L107.475 27.4563L103.32 37.2497C103.266 37.3761 103.177 37.484 103.062 37.5599C102.948 37.6358 102.814 37.6763 102.676 37.6764Z" fill="#407BFF"/>
<path d="M209.179 228.185H136.169C134.98 228.198 133.8 227.964 132.706 227.496C131.612 227.029 130.627 226.339 129.814 225.471C129.001 224.603 128.377 223.574 127.983 222.452C127.589 221.33 127.432 220.137 127.523 218.951L139.324 44.07C139.53 41.5725 140.658 39.2408 142.487 37.5279C144.316 35.8149 146.717 34.8432 149.223 34.8013H222.246C223.439 34.7877 224.621 35.0231 225.718 35.4924C226.815 35.9617 227.801 36.6547 228.615 37.527C229.429 38.3993 230.052 39.4317 230.444 40.5584C230.836 41.685 230.988 42.881 230.892 44.07L219.07 218.951C218.857 221.442 217.728 223.765 215.901 225.471C214.073 227.177 211.678 228.144 209.179 228.185Z" fill="#263238"/>
<path d="M225.366 106.02H223.526C223.193 106.024 222.863 105.958 222.556 105.827C222.25 105.696 221.975 105.503 221.747 105.259C221.52 105.016 221.346 104.727 221.237 104.412C221.128 104.098 221.085 103.764 221.113 103.432L223.372 70.0014C223.425 69.3023 223.738 68.6484 224.25 68.1691C224.761 67.6897 225.434 67.42 226.135 67.4132H227.975C228.308 67.4092 228.639 67.4747 228.945 67.6057C229.251 67.7367 229.527 67.9302 229.754 68.1739C229.981 68.4175 230.155 68.706 230.264 69.0207C230.373 69.3354 230.416 69.6694 230.388 70.0014L228.129 103.432C228.076 104.131 227.763 104.785 227.252 105.264C226.74 105.743 226.067 106.013 225.366 106.02Z" fill="#263238"/>
<path d="M138.261 83.7191H136.428C136.157 83.7227 135.888 83.6699 135.638 83.5642C135.389 83.4584 135.164 83.3019 134.978 83.1046C134.791 82.9073 134.648 82.6736 134.557 82.4181C134.466 82.1626 134.429 81.891 134.449 81.6205L135.267 69.5467C135.319 68.9799 135.578 68.4522 135.995 68.0648C136.412 67.6775 136.957 67.4579 137.527 67.4482H139.366C139.637 67.4466 139.904 67.5008 140.153 67.6073C140.401 67.7139 140.625 67.8705 140.81 68.0675C140.995 68.2644 141.138 68.4974 141.229 68.752C141.32 69.0065 141.357 69.277 141.339 69.5467L140.52 81.6205C140.47 82.1879 140.212 82.7165 139.794 83.1042C139.377 83.4918 138.831 83.7109 138.261 83.7191Z" fill="#407BFF"/>
<path d="M136.806 105.278H134.966C134.696 105.281 134.427 105.228 134.178 105.121C133.93 105.015 133.705 104.859 133.52 104.661C133.335 104.464 133.192 104.231 133.102 103.976C133.011 103.721 132.974 103.45 132.994 103.18L133.812 91.1061C133.864 90.5393 134.123 90.0116 134.54 89.6242C134.957 89.2369 135.502 89.0173 136.071 89.0075H137.925C138.195 89.006 138.463 89.0601 138.712 89.1667C138.96 89.2733 139.184 89.4299 139.369 89.6269C139.554 89.8238 139.697 90.0568 139.788 90.3113C139.879 90.5659 139.916 90.8364 139.898 91.1061L139.079 103.18C139.029 103.75 138.768 104.28 138.348 104.668C137.928 105.056 137.378 105.274 136.806 105.278Z" fill="#407BFF"/>
<path d="M207.633 228.185H134.624C133.434 228.198 132.255 227.964 131.16 227.496C130.066 227.029 129.081 226.339 128.268 225.471C127.455 224.603 126.831 223.574 126.437 222.452C126.043 221.33 125.886 220.137 125.977 218.951L137.785 44.07C137.999 41.5716 139.134 39.2418 140.97 37.5339C142.806 35.8259 145.211 34.8619 147.719 34.8293H220.7C221.89 34.816 223.07 35.0507 224.165 35.5183C225.26 35.9859 226.245 36.6763 227.058 37.5455C227.871 38.4147 228.495 39.4437 228.889 40.567C229.283 41.6903 229.438 42.8833 229.346 44.07L217.531 218.951C217.318 221.443 216.188 223.767 214.359 225.473C212.53 227.179 210.134 228.145 207.633 228.185Z" fill="#37817B"/>
<path opacity="0.3" d="M126.747 216.993L138.275 46.3365H228.556L217.027 216.993H126.747Z" fill="white"/>
<path opacity="0.1" d="M162.388 216.993L194.608 46.3365H214.831L182.611 216.993H162.388Z" fill="white"/>
<path opacity="0.1" d="M147.11 216.993L179.33 46.3365H189.578L157.358 216.993H147.11Z" fill="white"/>
<path d="M175.098 39.1174H192.705C192.852 39.1149 192.998 39.1433 193.133 39.2007C193.268 39.2582 193.39 39.3434 193.49 39.4509C193.591 39.5584 193.667 39.6858 193.715 39.8248C193.763 39.9637 193.781 40.1112 193.768 40.2576C193.744 40.5658 193.606 40.854 193.381 41.066C193.156 41.2781 192.86 41.3989 192.551 41.4049H174.944C174.797 41.4064 174.651 41.3771 174.516 41.3188C174.38 41.2606 174.259 41.1747 174.159 41.0666C174.058 40.9586 173.982 40.8308 173.934 40.6915C173.886 40.5522 173.868 40.4044 173.881 40.2576C173.905 39.9501 174.044 39.6627 174.269 39.4518C174.494 39.2409 174.79 39.1217 175.098 39.1174Z" fill="white"/>
<path d="M171.433 245.008L165.263 245.596L163.038 231.361L169.208 230.766L171.433 245.008Z" fill="#FFB573"/>
<path d="M164.556 242.581L171.02 240.573C171.131 240.535 171.253 240.541 171.361 240.59C171.468 240.64 171.551 240.729 171.594 240.839L173.692 245.967C173.744 246.104 173.767 246.251 173.76 246.398C173.753 246.545 173.715 246.688 173.649 246.82C173.583 246.951 173.491 247.068 173.378 247.162C173.265 247.256 173.134 247.325 172.993 247.366C170.656 248.065 168.432 248.226 165.613 249.464C162.318 250.863 160.94 252.738 157.393 252.738C154.854 252.738 154.28 250.409 155.358 250.087C160.254 248.604 159.611 247.387 163.164 243.56C163.534 243.117 164.014 242.779 164.556 242.581Z" fill="#263238"/>
<path opacity="0.2" d="M163.038 231.361L164.186 238.706L170.362 238.111L169.215 230.766L163.038 231.361Z" fill="black"/>
<path d="M167.501 51.485C159.408 50.5337 151.356 51.1702 143.277 52.7371C141.93 52.9985 140.702 53.6818 139.77 54.688C138.838 55.6941 138.251 56.9709 138.093 58.3333C137.219 66.0701 136.218 83.4113 140.122 109.28L173.195 106.482C173.258 101.788 169.921 80.4033 172.678 58.2144C172.79 57.4311 172.745 56.6332 172.545 55.8677C172.344 55.1022 171.992 54.3846 171.509 53.7574C171.027 53.1301 170.424 52.6059 169.735 52.2156C169.047 51.8253 168.287 51.5769 167.501 51.485Z" fill="white"/>
<path d="M148.243 58.1165L149.425 60.4809C149.481 60.6002 149.568 60.7015 149.678 60.7733C149.788 60.845 149.917 60.8843 150.048 60.8866L151.328 60.9566C151.556 60.9665 151.781 60.8973 151.965 60.7607L154.168 59.1168L151.447 57.1371L148.243 58.1165Z" fill="#263238"/>
<path d="M151.37 60.2781C150.904 60.0619 150.375 60.0197 149.88 60.1592C148.838 63.8317 147.698 74.3735 147.579 79.0463C150.741 88.259 151.776 89.1894 151.776 89.1894L153.378 78.1019C153.378 78.1019 151.58 66.7627 151.37 60.2781Z" fill="#263238"/>
<path d="M160.499 35.5359C159.743 40.0968 159.1 48.4281 162.374 51.3731C159.974 53.8914 156.833 56.8084 151.447 57.1372C146.061 57.466 146.893 53.7375 148.257 51.7439C153.287 50.4008 153.042 46.6513 152.056 43.1467L160.499 35.5359Z" fill="#FFB573"/>
<path d="M163.745 50.9744C163.364 50.8098 162.968 50.681 162.563 50.5896C162.464 50.5634 162.359 50.5704 162.264 50.6096C162.169 50.6487 162.09 50.7179 162.038 50.8065C161.52 51.6879 159.939 55.6262 151.447 57.1372C152.846 57.9626 154.7 60.5229 155.498 61.754C158.044 60.4319 164.668 56.4796 164.039 51.3661C164.026 51.2816 163.992 51.2016 163.941 51.1333C163.89 51.0649 163.822 51.0103 163.745 50.9744Z" fill="#F5F5F5"/>
<path d="M148.306 51.9537C148.324 51.8741 148.322 51.7912 148.3 51.7128C148.277 51.6343 148.236 51.5626 148.179 51.5042C148.122 51.4458 148.051 51.4026 147.973 51.3785C147.895 51.3543 147.813 51.3501 147.733 51.366C147.438 51.4231 147.149 51.5003 146.865 51.5969C146.8 51.6225 146.738 51.6579 146.683 51.7018C146.033 52.3034 142.486 57.4239 145.809 61.5651C146.508 60.4389 148.922 57.8856 151.447 57.1371C149.055 56.0599 147.879 54.0522 148.306 51.9537Z" fill="#F5F5F5"/>
<path opacity="0.2" d="M157.057 38.6417L152.063 43.1467C152.304 43.9603 152.472 44.7937 152.566 45.637C154.497 45.3082 157.092 43.1187 157.232 41.0901C157.327 40.2702 157.267 39.4398 157.057 38.6417Z" fill="black"/>
<path d="M150.384 21.7483C146.075 23.4341 145.795 26.9737 146.187 30.8421C146.578 34.7105 150.789 32.1502 151.727 29.7299C152.664 27.3095 156.351 19.4119 150.384 21.7483Z" fill="#263238"/>
<path d="M164.129 29.464C162.933 35.5569 162.535 39.1734 159.051 41.9785C153.797 46.1756 146.683 42.5521 146.054 36.2704C145.487 30.6112 147.537 21.5804 153.811 19.8176C155.18 19.4147 156.63 19.3758 158.018 19.7048C159.406 20.0338 160.684 20.7192 161.726 21.6934C162.768 22.6676 163.538 23.8968 163.959 25.2596C164.381 26.6224 164.439 28.0716 164.129 29.464Z" fill="#FFB573"/>
<path d="M163.878 34.5076C158.75 34.7804 159.834 31.8703 160.765 30.1985C161.695 28.5266 159.799 25.7635 161.038 24.3295C158.827 25.2109 156.498 24.4834 153.539 22.4268C151.244 20.8249 148.369 27.2255 145.571 24.0147C142.927 20.9857 145.382 16.4179 151.734 15.6833C158.086 14.9488 159.24 19.4398 163.409 19.0411C167.578 18.6423 166.13 22.077 165.312 22.7765C168.809 23.0074 170.719 26.3511 163.878 34.5076Z" fill="#263238"/>
<path d="M164.507 23.2032C165.31 22.7632 165.98 22.1168 166.448 21.3309C166.917 20.545 167.167 19.6482 167.173 18.7332C168.558 21.1606 168.411 23.9167 164.507 23.2032Z" fill="#263238"/>
<path d="M151.216 35.9695C151.774 36.066 152.345 36.0488 152.895 35.9189C153.446 35.7891 153.965 35.5493 154.42 35.214C154.434 35.2009 154.445 35.1852 154.452 35.1678C154.46 35.1503 154.464 35.1316 154.464 35.1126C154.464 35.0936 154.46 35.0748 154.452 35.0574C154.445 35.04 154.434 35.0242 154.42 35.0112C154.393 34.9851 154.357 34.9705 154.319 34.9705C154.281 34.9705 154.245 34.9851 154.217 35.0112C153.707 35.3728 153.12 35.6109 152.502 35.7068C151.884 35.8027 151.252 35.7538 150.657 35.5638C150.619 35.5543 150.579 35.559 150.544 35.5771C150.509 35.5951 150.482 35.6252 150.468 35.6617C150.457 35.6988 150.461 35.7387 150.479 35.7728C150.498 35.8068 150.529 35.8323 150.566 35.8436C150.778 35.9049 150.996 35.9471 151.216 35.9695Z" fill="#263238"/>
<path d="M165.368 36.3753C164.41 37.6096 163.006 38.4185 161.457 38.6278C159.422 38.8936 158.743 36.9979 159.597 35.2281C160.373 33.6332 162.395 31.5765 164.269 32.1292C166.144 32.6818 166.543 34.8363 165.368 36.3753Z" fill="#FFB573"/>
<path d="M163.346 168.844C163.591 150.58 165.927 107.076 165.927 107.076L140.143 109.252C140.143 109.252 145.27 154.084 148.362 172.72C151.58 192.089 161.45 237.468 161.45 237.468L171.943 236.572C171.943 236.572 168.11 182.968 163.346 168.844Z" fill="#263238"/>
<path d="M160.821 237.754L173.265 236.698L172.776 232.683L159.806 233.55L160.821 237.754Z" fill="#407BFF"/>
<path d="M154.938 29.8277C154.875 30.3244 154.553 30.7021 154.238 30.6671C153.923 30.6322 153.707 30.1985 153.777 29.6948C153.847 29.1911 154.161 28.8204 154.476 28.8554C154.791 28.8903 155.008 29.331 154.938 29.8277Z" fill="#263238"/>
<path d="M149.23 29.3801C149.167 29.8837 148.845 30.2545 148.53 30.2195C148.215 30.1845 147.998 29.7508 148.068 29.2541C148.138 28.7575 148.453 28.3797 148.768 28.4147C149.083 28.4497 149.3 28.8554 149.23 29.3801Z" fill="#263238"/>
<path d="M150.839 29.9676C149.996 31.2621 148.984 32.4383 147.831 33.4652C148.572 34.2417 150.104 34.0318 150.104 34.0318L150.839 29.9676Z" fill="#ED893E"/>
<path opacity="0.4" d="M145.62 29.506C145.515 30.3034 146.32 30.968 147.432 31.1079C148.544 31.2478 149.572 30.6392 149.67 29.8418" fill="#407BFF"/>
<path opacity="0.4" d="M152.231 30.2474C152.077 31.0379 152.853 31.7514 153.944 31.9613C155.036 32.1711 156.106 31.6115 156.253 30.828" fill="#407BFF"/>
<path d="M154.378 32.1781C154.252 32.1851 154.126 32.1851 154 32.1781C153.463 32.1138 152.957 31.8868 152.552 31.5276C152.376 31.3765 152.238 31.1852 152.15 30.9697C152.062 30.7543 152.028 30.521 152.049 30.2894C151.694 30.1348 151.315 30.0403 150.929 30.0096C150.541 29.9127 150.135 29.9127 149.747 30.0096C149.649 30.863 148.586 31.4506 147.397 31.3037C146.859 31.2449 146.353 31.02 145.949 30.6602C145.773 30.5083 145.636 30.3169 145.548 30.1017C145.46 29.8864 145.425 29.6535 145.445 29.422L145.781 29.464C145.767 29.6428 145.796 29.8225 145.865 29.988C145.934 30.1535 146.042 30.3 146.18 30.4153C146.532 30.7255 146.972 30.9186 147.439 30.9679C148.446 31.1009 149.341 30.6322 149.432 29.9327C149.481 29.5409 150.293 29.5689 150.964 29.6528C151.636 29.7368 152.433 29.9257 152.363 30.3104C152.349 30.4893 152.377 30.6692 152.447 30.8347C152.516 31.0003 152.624 31.1468 152.762 31.2617C153.119 31.5678 153.557 31.7626 154.024 31.8223C154.49 31.882 154.963 31.8038 155.385 31.5975C155.548 31.5217 155.691 31.4077 155.8 31.2652C155.91 31.1228 155.983 30.956 156.015 30.7791V30.6112L164.647 31.7234L164.605 32.0592L156.295 30.9889C156.234 31.1836 156.135 31.364 156.003 31.5192C155.87 31.6743 155.708 31.8009 155.525 31.8913C155.172 32.0784 154.778 32.1769 154.378 32.1781Z" fill="#263238"/>
<path d="M157.134 27.6312C157.184 27.6314 157.233 27.6168 157.274 27.5893C157.342 27.5497 157.392 27.4851 157.413 27.4092C157.434 27.3334 157.424 27.2524 157.386 27.1835C157.169 26.7767 156.855 26.4297 156.472 26.1734C156.089 25.9171 155.648 25.7595 155.19 25.7145C155.111 25.7107 155.034 25.7378 154.975 25.7902C154.916 25.8425 154.88 25.9158 154.875 25.9943C154.871 26.0711 154.897 26.1464 154.948 26.2039C154.999 26.2615 155.071 26.2967 155.148 26.3021C155.511 26.3447 155.858 26.4753 156.159 26.6826C156.46 26.8898 156.706 27.1674 156.876 27.4913C156.902 27.5358 156.94 27.5724 156.986 27.597C157.031 27.6216 157.083 27.6335 157.134 27.6312Z" fill="#263238"/>
<path d="M147.383 26.8408C147.431 26.8455 147.48 26.8384 147.525 26.8202C147.57 26.8019 147.61 26.7729 147.642 26.7358C147.868 26.4396 148.16 26.2005 148.496 26.0377C148.831 25.875 149.2 25.793 149.572 25.7985C149.611 25.8023 149.65 25.7985 149.687 25.7872C149.724 25.7759 149.759 25.7573 149.789 25.7326C149.819 25.7079 149.843 25.6775 149.861 25.6432C149.879 25.6089 149.891 25.5713 149.894 25.5326C149.899 25.4949 149.896 25.4566 149.886 25.42C149.876 25.3833 149.859 25.349 149.836 25.3191C149.812 25.2891 149.783 25.2641 149.75 25.2456C149.717 25.227 149.68 25.2152 149.642 25.2109C149.172 25.1986 148.706 25.2966 148.281 25.497C147.856 25.6975 147.483 25.9948 147.194 26.3651C147.144 26.4246 147.12 26.5013 147.126 26.5787C147.133 26.656 147.17 26.7276 147.229 26.7778C147.275 26.8106 147.327 26.8322 147.383 26.8408Z" fill="#263238"/>
<path d="M184.828 165.899C179.477 138.394 178.274 116.884 173.195 106.44L148.215 109.238C148.215 109.238 163.094 150.223 170.362 167.718C177.91 185.906 192.81 216.978 192.81 216.978H205.29C205.29 216.978 193.642 178.428 184.828 165.899Z" fill="#263238"/>
<path d="M105.649 61.775L102.949 60.0681C102.511 59.7858 101.988 59.6642 101.47 59.7242C100.952 59.7841 100.471 60.0219 100.109 60.3969L98.2762 62.3276C98.0788 62.536 97.9263 62.7826 97.828 63.0523C97.7297 63.322 97.6878 63.609 97.7049 63.8955C97.7219 64.182 97.7976 64.462 97.9271 64.7181C98.0567 64.9742 98.2374 65.201 98.4581 65.3845L99.7662 66.5038C100.904 67.468 102.231 68.1829 103.663 68.6023L107.615 69.7706L110.21 66.9725C111.001 64.0554 105.649 61.775 105.649 61.775Z" fill="#FFB573"/>
<path d="M145.62 60.4669C144.641 62.8593 143.683 65.0838 142.64 67.3572C141.598 69.6307 140.542 71.8762 139.373 74.1077C138.205 76.3391 136.96 78.5566 135.547 80.7811C134.848 81.8864 134.071 82.9916 133.19 84.1039C132.242 85.3303 131.163 86.4492 129.972 87.4406C129.185 88.0834 128.317 88.6197 127.391 89.0355C127.097 89.1474 126.824 89.2594 126.502 89.3573L126.013 89.4902C125.766 89.5507 125.516 89.5951 125.264 89.6231C124.411 89.7192 123.548 89.6575 122.718 89.4412C121.68 89.1506 120.693 88.6998 119.794 88.1051C119.12 87.6849 118.477 87.2173 117.87 86.7061C115.851 84.9435 113.99 83.0078 112.309 80.921C110.679 78.9624 109.14 76.9967 107.664 74.9891C106.188 72.9814 104.768 71.0088 103.313 68.9032L111.05 63.9086C113.491 67.8498 116.193 71.624 119.136 75.2059C120.489 76.8651 121.98 78.4072 123.592 79.8158C123.905 80.0713 124.234 80.3051 124.579 80.5153C124.837 80.6902 125.096 80.7601 124.914 80.6972C124.668 80.6295 124.411 80.6152 124.159 80.6552C124.057 80.6646 123.956 80.6833 123.858 80.7112H123.802C123.767 80.7112 123.767 80.7112 123.76 80.7112C123.919 80.6073 124.071 80.4927 124.215 80.3684C124.853 79.7888 125.432 79.1467 125.943 78.4517C126.537 77.6542 127.132 76.7589 127.698 75.8285C128.857 73.8941 129.912 71.9 130.86 69.8546C131.84 67.756 132.784 65.6574 133.658 63.4749C134.533 61.2924 135.365 59.0749 136.072 56.9553L145.62 60.4669Z" fill="#407BFF"/>
<g opacity="0.6">
<path d="M145.62 60.4669C144.641 62.8593 143.683 65.0838 142.64 67.3572C141.598 69.6307 140.542 71.8762 139.373 74.1077C138.205 76.3391 136.96 78.5566 135.547 80.7811C134.848 81.8864 134.071 82.9916 133.19 84.1039C132.242 85.3303 131.163 86.4492 129.972 87.4406C129.185 88.0834 128.317 88.6197 127.391 89.0355C127.097 89.1474 126.824 89.2594 126.502 89.3573L126.013 89.4902C125.766 89.5507 125.516 89.5951 125.264 89.6231C124.411 89.7192 123.548 89.6575 122.718 89.4412C121.68 89.1506 120.693 88.6998 119.794 88.1051C119.12 87.6849 118.477 87.2173 117.87 86.7061C115.851 84.9435 113.99 83.0078 112.309 80.921C110.679 78.9624 109.14 76.9967 107.664 74.9891C106.188 72.9814 104.768 71.0088 103.313 68.9032L111.05 63.9086C113.491 67.8498 116.193 71.624 119.136 75.2059C120.489 76.8651 121.98 78.4072 123.592 79.8158C123.905 80.0713 124.234 80.3051 124.579 80.5153C124.837 80.6902 125.096 80.7601 124.914 80.6972C124.668 80.6295 124.411 80.6152 124.159 80.6552C124.057 80.6646 123.956 80.6833 123.858 80.7112H123.802C123.767 80.7112 123.767 80.7112 123.76 80.7112C123.919 80.6073 124.071 80.4927 124.215 80.3684C124.853 79.7888 125.432 79.1467 125.943 78.4517C126.537 77.6542 127.132 76.7589 127.698 75.8285C128.857 73.8941 129.912 71.9 130.86 69.8546C131.84 67.756 132.784 65.6574 133.658 63.4749C134.533 61.2924 135.365 59.0749 136.072 56.9553L145.62 60.4669Z" fill="white"/>
</g>
<path d="M163.934 49.7292C161.31 54.6258 151.972 73.2822 150.838 84.7963C146.704 74.3035 147.607 51.0932 147.607 51.0932C144.66 51.3804 141.77 52.0871 139.023 53.1918C138.138 53.5555 137.371 54.1571 136.807 54.93C136.243 55.7029 135.903 56.617 135.827 57.5708C135.021 69.5804 135.401 81.6402 136.96 93.5754C139.863 116.17 142.556 151.307 142.556 151.307C142.556 151.307 165.675 150.342 183.513 146.578C181.338 129.307 173.895 100.361 173.825 92.61C173.741 82.6348 173.972 63.1321 174.286 54.9896C174.339 53.84 173.979 52.7095 173.271 51.8024C172.563 50.8953 171.553 50.2716 170.425 50.044C168.285 49.6474 166.102 49.5415 163.934 49.7292Z" fill="#407BFF"/>
<path opacity="0.7" d="M163.934 49.7292C161.31 54.6259 151.972 73.2822 150.838 84.7963C146.704 74.3035 147.607 51.0933 147.607 51.0933C144.66 51.3804 141.77 52.0871 139.023 53.1918C138.138 53.5555 137.371 54.1571 136.807 54.93C136.243 55.703 135.903 56.617 135.827 57.5709C135.021 69.5805 135.401 81.6402 136.96 93.5754C139.863 116.17 142.556 151.307 142.556 151.307C142.556 151.307 165.675 150.342 183.513 146.578C181.338 129.307 173.895 100.361 173.825 92.61C173.741 82.6348 173.972 63.1251 174.286 54.9826C174.353 53.868 174.023 52.7658 173.357 51.87C172.69 50.9743 171.729 50.3425 170.642 50.0859C168.434 49.6531 166.175 49.533 163.934 49.7292Z" fill="white"/>
<path d="M158.484 147.558C154.469 125.404 151.286 92.8969 151.027 88.9865H151.384C151.643 92.8969 154.833 125.362 158.841 147.516L158.484 147.558Z" fill="white"/>
<path d="M156.484 108.146H135.162C134.732 108.127 134.319 107.969 133.986 107.695C133.653 107.421 133.418 107.047 133.315 106.628L126.187 73.492C126.135 73.3111 126.127 73.1204 126.162 72.9356C126.198 72.7508 126.278 72.5772 126.394 72.429C126.51 72.2808 126.659 72.1622 126.83 72.0832C127.001 72.0041 127.188 71.9667 127.376 71.9741H148.691C149.123 71.992 149.537 72.1497 149.871 72.4235C150.206 72.6973 150.442 73.0723 150.545 73.492L157.673 106.628C157.725 106.809 157.734 107 157.698 107.185C157.662 107.37 157.582 107.543 157.466 107.692C157.35 107.84 157.201 107.958 157.03 108.037C156.859 108.116 156.672 108.154 156.484 108.146Z" fill="white"/>
<path d="M155.819 108.426H134.134C133.696 108.406 133.275 108.244 132.936 107.966C132.597 107.687 132.357 107.306 132.252 106.88L124.998 73.1842C124.946 72.9996 124.939 72.8053 124.976 72.6171C125.013 72.429 125.095 72.2524 125.213 72.1017C125.332 71.951 125.485 71.8304 125.659 71.7499C125.833 71.6694 126.024 71.6311 126.215 71.6383H147.901C148.339 71.6587 148.759 71.8202 149.098 72.0988C149.437 72.3774 149.677 72.7581 149.782 73.1842L157.029 106.88C157.083 107.064 157.092 107.259 157.055 107.447C157.019 107.635 156.938 107.812 156.82 107.963C156.702 108.114 156.549 108.235 156.375 108.315C156.201 108.396 156.011 108.434 155.819 108.426Z" fill="#407BFF"/>
<path d="M158.303 89.4132L152.909 89.2104C152.261 89.1881 151.615 89.3025 151.013 89.5461L148.215 90.6654C147.953 90.7694 147.714 90.9253 147.513 91.1237C147.312 91.3222 147.154 91.5591 147.047 91.8204C146.939 92.0816 146.886 92.3618 146.89 92.6441C146.894 92.9265 146.954 93.2052 147.068 93.4635L148.187 95.8838C148.413 96.3533 148.794 96.7306 149.265 96.9523C149.737 97.1739 150.27 97.2265 150.776 97.101L153.861 96.3315C153.861 96.3315 159.653 95.8699 159.862 92.8339L158.303 89.4132Z" fill="#FFB573"/>
<path d="M173.195 52.7302C174.531 54.8287 175.755 56.7454 176.959 58.802C178.162 60.8586 179.344 62.8942 180.456 65.0208C181.568 67.1474 182.625 69.3439 183.583 71.6943C184.081 72.9251 184.506 74.1841 184.856 75.4647C185.307 77.0254 185.515 78.6464 185.472 80.2704V80.5432C185.474 80.5899 185.474 80.6365 185.472 80.6832C185.472 80.935 185.402 81.1868 185.353 81.4386C185.304 81.6905 185.241 81.8863 185.171 82.1382C185.101 82.39 185.024 82.5229 184.947 82.7188C184.68 83.324 184.337 83.8929 183.926 84.4116C183.354 85.1257 182.704 85.7734 181.988 86.3423C180.888 87.209 179.718 87.9834 178.491 88.6577C176.331 89.8385 174.108 90.8987 171.831 91.8336C169.628 92.7709 167.431 93.6244 165.221 94.4288C163.01 95.2333 160.835 96.0097 158.533 96.7792L155.868 87.9652C157.966 87.3916 160.107 86.6851 162.199 85.9716C164.29 85.258 166.396 84.4606 168.382 83.6282C170.332 82.8227 172.233 81.9048 174.077 80.879C174.854 80.4478 175.596 79.9542 176.294 79.403C176.477 79.2639 176.642 79.1017 176.784 78.9204C176.723 78.9882 176.676 79.0664 176.644 79.1512C176.644 79.2141 176.609 79.2561 176.574 79.3331C176.546 79.4152 176.525 79.4994 176.511 79.5849C176.482 79.6924 176.463 79.8025 176.455 79.9137C176.455 79.9557 176.455 79.9626 176.455 79.9487V79.8997C176.406 79.236 176.277 78.5806 176.07 77.948C175.79 77.0322 175.459 76.133 175.077 75.2548C174.222 73.3186 173.255 71.4337 172.181 69.6097C171.09 67.735 169.928 65.8602 168.683 64.0135C167.438 62.1667 166.165 60.327 164.885 58.6481L173.195 52.7302Z" fill="#407BFF"/>
<g opacity="0.7">
<path d="M173.195 52.7302C174.531 54.8287 175.755 56.7454 176.959 58.802C178.162 60.8586 179.344 62.8942 180.456 65.0208C181.568 67.1474 182.625 69.3439 183.583 71.6943C184.081 72.9251 184.506 74.1841 184.856 75.4647C185.307 77.0254 185.515 78.6464 185.472 80.2704V80.5432C185.474 80.5899 185.474 80.6365 185.472 80.6832C185.472 80.935 185.402 81.1868 185.353 81.4386C185.304 81.6905 185.241 81.8863 185.171 82.1382C185.101 82.39 185.024 82.5229 184.947 82.7188C184.68 83.324 184.337 83.8929 183.926 84.4116C183.354 85.1257 182.704 85.7734 181.988 86.3423C180.888 87.209 179.718 87.9834 178.491 88.6577C176.331 89.8385 174.108 90.8987 171.831 91.8336C169.628 92.7709 167.431 93.6244 165.221 94.4288C163.01 95.2333 160.835 96.0097 158.533 96.7792L155.868 87.9652C157.966 87.3916 160.107 86.6851 162.199 85.9716C164.29 85.258 166.396 84.4606 168.382 83.6282C170.332 82.8227 172.233 81.9048 174.077 80.879C174.854 80.4478 175.596 79.9542 176.294 79.403C176.477 79.2639 176.642 79.1017 176.784 78.9204C176.723 78.9882 176.676 79.0664 176.644 79.1512C176.644 79.2141 176.609 79.2561 176.574 79.3331C176.546 79.4152 176.525 79.4994 176.511 79.5849C176.482 79.6924 176.463 79.8025 176.455 79.9137C176.455 79.9557 176.455 79.9626 176.455 79.9487V79.8997C176.406 79.236 176.277 78.5806 176.07 77.948C175.79 77.0322 175.459 76.133 175.077 75.2548C174.222 73.3186 173.255 71.4337 172.181 69.6097C171.09 67.735 169.928 65.8602 168.683 64.0135C167.438 62.1667 166.165 60.327 164.885 58.6481L173.195 52.7302Z" fill="white"/>
</g>
<path d="M166.116 77.0037C166.069 77.0031 166.024 76.9906 165.983 76.9673C165.943 76.944 165.909 76.9108 165.885 76.8707C165.865 76.8402 165.851 76.8058 165.844 76.7697C165.837 76.7336 165.837 76.6964 165.845 76.6605C165.853 76.6245 165.868 76.5906 165.889 76.5606C165.911 76.5306 165.938 76.5052 165.969 76.486L167.06 75.7865C168.079 75.1441 168.878 74.2076 169.353 73.1009C169.828 71.9942 169.955 70.7694 169.719 69.5887L167.522 58.4663C167.361 57.6346 166.925 56.8815 166.283 56.3288C165.641 55.7761 164.831 55.456 163.985 55.4204C163.139 55.3848 162.305 55.6358 161.619 56.1326C160.933 56.6295 160.435 57.3433 160.205 58.1585L157.092 69.0641C156.752 70.2168 156.771 71.4458 157.146 72.5877C157.52 73.7297 158.234 74.7306 159.191 75.4577L160.226 76.2412C160.284 76.2867 160.322 76.3535 160.331 76.4269C160.341 76.5003 160.32 76.5744 160.275 76.6329C160.253 76.6615 160.226 76.6855 160.194 76.7035C160.163 76.7215 160.129 76.7331 160.093 76.7377C160.057 76.7422 160.021 76.7396 159.986 76.7301C159.951 76.7205 159.919 76.7041 159.89 76.6819L158.911 75.9054C157.859 75.1133 157.073 74.02 156.657 72.7706C156.241 71.5212 156.214 70.1748 156.581 68.9102L159.701 58.0046C159.969 57.0733 160.542 56.2591 161.328 55.6925C162.114 55.1259 163.068 54.8398 164.036 54.8802C165.004 54.9205 165.931 55.2849 166.667 55.9149C167.403 56.545 167.906 57.4041 168.096 58.3543L170.292 69.4838C170.552 70.7737 170.413 72.1119 169.894 73.3212C169.376 74.5305 168.502 75.5536 167.389 76.2552L166.291 76.9547C166.267 76.9742 166.239 76.9887 166.208 76.9971C166.178 77.0055 166.147 77.0077 166.116 77.0037Z" fill="#263238"/>
<path d="M167.795 58.6971L159.939 58.3683C159.903 58.3665 159.866 58.3575 159.833 58.3418C159.8 58.326 159.77 58.3039 159.745 58.2766C159.721 58.2493 159.702 58.2174 159.689 58.1827C159.677 58.1481 159.672 58.1113 159.673 58.0745C159.68 58.0016 159.714 57.9338 159.769 57.8847C159.823 57.8355 159.894 57.8084 159.967 57.8087L167.816 58.1375C167.853 58.1393 167.889 58.1483 167.922 58.1641C167.955 58.1798 167.985 58.202 168.01 58.2292C168.034 58.2565 168.054 58.2884 168.066 58.3231C168.078 58.3578 168.084 58.3945 168.082 58.4313C168.081 58.4677 168.073 58.5036 168.058 58.5369C168.043 58.5701 168.021 58.6 167.994 58.6248C167.968 58.6495 167.936 58.6687 167.902 58.6811C167.868 58.6936 167.831 58.699 167.795 58.6971Z" fill="#263238"/>
<path d="M163.976 55.4373C163.903 55.4357 163.834 55.4066 163.782 55.356C163.73 55.3053 163.699 55.2369 163.696 55.1645C163.696 53.7655 163.262 51.3381 161.954 50.8065C161.918 50.7943 161.884 50.7749 161.856 50.7494C161.828 50.7239 161.805 50.6928 161.789 50.6581C161.773 50.6234 161.764 50.5858 161.763 50.5476C161.762 50.5094 161.769 50.4715 161.784 50.4361C161.798 50.4007 161.819 50.3686 161.847 50.3418C161.874 50.315 161.906 50.2941 161.942 50.2803C161.978 50.2665 162.016 50.2602 162.054 50.2616C162.092 50.2631 162.129 50.2724 162.164 50.2888C164.101 51.0863 164.262 54.7378 164.262 55.1855C164.262 55.2592 164.234 55.3301 164.183 55.3835C164.133 55.4369 164.063 55.4687 163.99 55.4723L163.976 55.4373Z" fill="#263238"/>
<path d="M139.947 64.9439H139.891C139.819 64.9287 139.756 64.8857 139.715 64.8241C139.674 64.7625 139.66 64.6874 139.674 64.6151C140.598 60.0192 144.417 52.7652 147.782 50.6246C147.812 50.6055 147.847 50.5927 147.882 50.587C147.918 50.5812 147.954 50.5826 147.99 50.5911C148.025 50.5995 148.058 50.6149 148.087 50.6363C148.116 50.6576 148.141 50.6846 148.159 50.7156C148.18 50.7455 148.194 50.7794 148.201 50.815C148.207 50.8506 148.207 50.8872 148.199 50.9226C148.191 50.9579 148.176 50.9913 148.155 51.0207C148.134 51.0501 148.107 51.0748 148.075 51.0933C144.823 53.1499 141.115 60.1871 140.22 64.713C140.208 64.7773 140.175 64.8355 140.125 64.8777C140.075 64.9198 140.012 64.9433 139.947 64.9439Z" fill="#263238"/>
<path d="M142.241 65.6644C141.808 66.7766 140.842 67.4481 140.143 67.1613C139.443 66.8745 139.17 65.7623 139.604 64.6221C140.038 63.4818 141.003 62.8383 141.703 63.1321C142.402 63.4259 142.682 64.5521 142.241 65.6644Z" fill="white"/>
<path d="M160.709 76.5C160.709 77.0176 160.387 77.4303 160.044 77.4163C159.701 77.4023 159.435 76.9686 159.456 76.444C159.477 75.9194 159.778 75.5066 160.121 75.5276C160.464 75.5486 160.73 75.9753 160.709 76.5Z" fill="white"/>
<path d="M166.739 76.7519C166.739 77.2695 166.424 77.6822 166.074 77.6682C165.724 77.6542 165.473 77.2205 165.494 76.6959C165.515 76.1713 165.808 75.7655 166.193 75.7795C166.578 75.7935 166.76 76.2482 166.739 76.7519Z" fill="white"/>
<path d="M285.364 67.0495L284.664 67.0075C284.781 65.5182 284.586 64.021 284.094 62.6108C283.601 61.2006 282.82 59.9083 281.801 58.8158C280.782 57.7233 279.547 56.8545 278.175 56.2645C276.803 55.6744 275.323 55.3761 273.829 55.3884V54.6889C275.418 54.6754 276.994 54.9924 278.454 55.6198C279.915 56.2472 281.229 57.1713 282.314 58.3335C283.398 59.4957 284.229 60.8706 284.754 62.371C285.28 63.8714 285.487 65.4646 285.364 67.0495Z" fill="#407BFF"/>
<path d="M285.733 69.9824L285.328 75.7745L286.027 75.8234L286.433 70.0314L285.733 69.9824Z" fill="#407BFF"/>
<path d="M273.829 57.1373H225.562C222.926 57.1806 220.4 58.2028 218.476 60.0052C216.553 61.8076 215.368 64.2611 215.153 66.8886L214.712 73.3872C214.612 74.6376 214.773 75.8952 215.186 77.0798C215.599 78.2644 216.254 79.35 217.11 80.2674C217.965 81.1848 219.002 81.9139 220.155 82.4083C221.308 82.9026 222.552 83.1513 223.806 83.1386H272.073L281.433 88.9097L282.916 66.8886C283.017 65.6385 282.856 64.3811 282.445 63.1965C282.033 62.012 281.378 60.9263 280.523 60.0087C279.668 59.0912 278.631 58.362 277.479 57.8675C276.326 57.3731 275.083 57.1244 273.829 57.1373Z" fill="#407BFF"/>
<path d="M271.381 66.4479H226.674V68.0708H271.381V66.4479Z" fill="white"/>
<path d="M270.989 72.205H237.796V73.8279H270.989V72.205Z" fill="white"/>
<path d="M201.218 91.9036H250.549C251.831 91.8897 253.103 92.1433 254.282 92.6484C255.461 93.1534 256.521 93.8987 257.396 94.8367C258.271 95.7747 258.941 96.8848 259.362 98.0961C259.784 99.3074 259.948 100.593 259.845 101.872L259.398 108.517C259.176 111.202 257.964 113.709 255.998 115.551C254.032 117.393 251.452 118.439 248.758 118.485H199.42L189.053 124.396L190.578 101.872C190.799 99.1861 192.01 96.6783 193.976 94.8359C195.943 92.9936 198.524 91.9484 201.218 91.9036Z" fill="white"/>
<path opacity="0.15" d="M201.218 91.9036H250.549C251.831 91.8897 253.103 92.1433 254.282 92.6484C255.461 93.1534 256.521 93.8987 257.396 94.8367C258.271 95.7747 258.941 96.8848 259.362 98.0961C259.784 99.3074 259.948 100.593 259.845 101.872L259.398 108.517C259.176 111.202 257.964 113.709 255.998 115.551C254.032 117.393 251.452 118.439 248.758 118.485H199.42L189.053 124.396L190.578 101.872C190.799 99.1861 192.01 96.6783 193.976 94.8359C195.943 92.9936 198.524 91.9484 201.218 91.9036Z" fill="#407BFF"/>
<path opacity="0.5" d="M248.044 101.424H202.323V103.089H248.044V101.424Z" fill="#407BFF"/>
<path opacity="0.5" d="M219.994 107.307H201.925V108.972H219.994V107.307Z" fill="#407BFF"/>
<path opacity="0.5" d="M235.964 107.307H224.421V108.972H235.964V107.307Z" fill="#407BFF"/>
</svg>
