<svg width="32" height="33" viewBox="0 0 32 33" fill="none" xmlns="http://www.w3.org/2000/svg">
<path d="M26.6663 11.5V24.5C26.6663 28.5 24.2797 29.8334 21.333 29.8334H10.6663C7.71967 29.8334 5.33301 28.5 5.33301 24.5V11.5C5.33301 7.16669 7.71967 6.16669 10.6663 6.16669C10.6663 6.99335 10.9996 7.74002 11.5463 8.28668C12.093 8.83335 12.8397 9.16669 13.6663 9.16669H18.333C19.9863 9.16669 21.333 7.82002 21.333 6.16669C24.2797 6.16669 26.6663 7.16669 26.6663 11.5Z" stroke="#2C7BE5" stroke-width="1.5" stroke-linecap="round" stroke-linejoin="round"/>
<path d="M21.3337 6.16669C21.3337 7.82002 19.987 9.16669 18.3337 9.16669H13.667C12.8403 9.16669 12.0936 8.83335 11.547 8.28668C11.0003 7.74002 10.667 6.99335 10.667 6.16669C10.667 4.51335 12.0137 3.16669 13.667 3.16669H18.3337C19.1603 3.16669 19.907 3.50003 20.4537 4.04669C21.0004 4.59336 21.3337 5.34002 21.3337 6.16669Z" stroke="#2C7BE5" stroke-width="1.5" stroke-linecap="round" stroke-linejoin="round"/>
<path d="M10.667 17.8333H16.0003" stroke="#2C7BE5" stroke-width="1.5" stroke-linecap="round" stroke-linejoin="round"/>
<path d="M10.667 23.1667H21.3337" stroke="#2C7BE5" stroke-width="1.5" stroke-linecap="round" stroke-linejoin="round"/>
</svg>
