<svg width="32" height="37" viewBox="0 0 32 37" fill="none" xmlns="http://www.w3.org/2000/svg">
<path d="M3.232 37C2.31067 37 1.542 36.692 0.926 36.076C0.31 35.46 0.00133333 34.6914 0 33.77V8.23004C0 7.31004 0.308666 6.54204 0.926 5.92604C1.54333 5.31004 2.312 5.00137 3.232 5.00004H6.77V0.540039H8.924V5.00004H23.232V0.540039H25.232V5.00004H28.77C29.69 5.00004 30.4587 5.30871 31.076 5.92604C31.6933 6.54337 32.0013 7.31204 32 8.23204V33.77C32 34.69 31.692 35.4587 31.076 36.076C30.46 36.6934 29.6907 37.0014 28.768 37H3.232ZM2 33.77C2 34.0767 2.128 34.3587 2.384 34.616C2.64 34.8734 2.922 35.0014 3.23 35H28.77C29.0767 35 29.3587 34.872 29.616 34.616C29.8733 34.36 30.0013 34.078 30 33.77V8.23004C30 7.92337 29.872 7.64137 29.616 7.38404C29.36 7.12671 29.0773 6.99871 28.768 7.00004H3.232C2.924 7.00004 2.64133 7.12804 2.384 7.38404C2.12667 7.64004 1.99867 7.92271 2 8.23204V33.77ZM11.232 35V30.592L7.324 25.97C7.03333 25.654 6.77867 25.2567 6.56 24.778C6.34133 24.298 6.232 23.744 6.232 23.116C6.232 22.7334 6.27333 22.366 6.356 22.014C6.43867 21.662 6.56733 21.324 6.742 21C6.57533 20.684 6.44867 20.35 6.362 19.998C6.27533 19.646 6.232 19.2747 6.232 18.884C6.232 18.2574 6.34133 17.704 6.56 17.224C6.77867 16.744 7.03333 16.3467 7.324 16.032L11.232 11.408V7.00004H13V11.534C13 11.7007 12.8833 12.0174 12.65 12.484L8.65 17.184C8.41667 17.4507 8.25 17.726 8.15 18.01C8.05 18.294 8 18.5854 8 18.884C8 19.5507 8.21667 20.126 8.65 20.61C9.08333 21.094 9.63333 21.3354 10.3 21.334C10.6 21.334 10.8767 21.284 11.13 21.184C11.3833 21.084 11.6233 20.9174 11.85 20.684C12.4167 20.1174 13.058 19.684 13.774 19.384C14.49 19.084 15.232 18.934 16 18.934C16.768 18.934 17.51 19.084 18.226 19.384C18.942 19.684 19.5833 20.1174 20.15 20.684C20.3833 20.9174 20.6333 21.084 20.9 21.184C21.1667 21.284 21.4333 21.334 21.7 21.334C22.3667 21.334 22.9167 21.0927 23.35 20.61C23.7833 20.1274 24 19.5687 24 18.934C24 18.634 23.9413 18.3427 23.824 18.06C23.7067 17.7774 23.5487 17.502 23.35 17.234L19.35 12.484C19.2167 12.3507 19.1247 12.2007 19.074 12.034C19.0233 11.8674 18.9987 11.7007 19 11.534V7.00004H20.77V11.446L24.69 16.092C25.0527 16.4974 25.3233 16.944 25.502 17.432C25.6793 17.9214 25.768 18.422 25.768 18.934C25.768 19.3167 25.7227 19.684 25.632 20.036C25.5413 20.388 25.4127 20.7094 25.246 21C25.4193 21.3227 25.55 21.6607 25.638 22.014C25.726 22.366 25.77 22.7327 25.77 23.114C25.77 23.7434 25.66 24.298 25.44 24.778C25.2213 25.2567 24.9673 25.654 24.678 25.97L20.77 30.592V35H19V30.466C19 30.266 19.1167 29.9494 19.35 29.516L23.35 24.816C23.6353 24.472 23.828 24.092 23.928 23.676C24.028 23.26 24.0133 22.8514 23.884 22.45C23.5693 22.6674 23.2347 22.8307 22.88 22.94C22.5267 23.0494 22.15 23.104 21.75 23.104C21.2367 23.104 20.73 23.0027 20.23 22.8C19.73 22.5974 19.2813 22.2934 18.884 21.888C18.524 21.4934 18.0913 21.1974 17.586 21C17.0833 20.8027 16.5547 20.704 16 20.704C15.48 20.704 14.9613 20.8027 14.444 21C13.9267 21.1974 13.484 21.4934 13.116 21.888C12.7427 22.2934 12.302 22.5974 11.794 22.8C11.2847 23.0027 10.774 23.104 10.262 23.104C9.862 23.104 9.48267 23.0494 9.124 22.94C8.76533 22.8307 8.42933 22.6674 8.116 22.45C7.988 22.8527 7.974 23.262 8.074 23.678C8.174 24.094 8.366 24.4734 8.65 24.816L12.65 29.516C12.75 29.6827 12.8333 29.8407 12.9 29.99C12.9667 30.1394 13 30.298 13 30.466V35H11.232ZM2 33.77V35V7.00004V33.77Z" fill="#2C7BE5"/>
</svg>
