<svg width="412" height="635" viewBox="0 0 412 635" fill="none" xmlns="http://www.w3.org/2000/svg">
<g clip-path="url(#clip0_227_3263)">
<rect width="412" height="635" transform="matrix(-1 0 0 1 412 0)" fill="url(#paint0_linear_227_3263)" fill-opacity="0.8"/>
<path fill-rule="evenodd" clip-rule="evenodd" d="M341 20H342C342.552 20 343 20.4477 343 21V27C343 27.5523 342.552 28 342 28H341C340.448 28 340 27.5523 340 27V21C340 20.4477 340.448 20 341 20Z" fill="#F9F9F9"/>
<path fill-rule="evenodd" clip-rule="evenodd" d="M336.5 22H337.5C338.052 22 338.5 22.4477 338.5 23V27C338.5 27.5523 338.052 28 337.5 28H336.5C335.948 28 335.5 27.5523 335.5 27V23C335.5 22.4477 335.948 22 336.5 22Z" fill="#F9F9F9"/>
<path fill-rule="evenodd" clip-rule="evenodd" d="M332 23.5H333C333.552 23.5 334 23.9477 334 24.5V27C334 27.5523 333.552 28 333 28H332C331.448 28 331 27.5523 331 27V24.5C331 23.9477 331.448 23.5 332 23.5Z" fill="#F9F9F9"/>
<path fill-rule="evenodd" clip-rule="evenodd" d="M345.5 18H346.5C347.052 18 347.5 18.4477 347.5 19V27C347.5 27.5523 347.052 28 346.5 28H345.5C344.948 28 344.5 27.5523 344.5 27V19C344.5 18.4477 344.948 18 345.5 18Z" fill="#3C3C43" fill-opacity="0.18"/>
<path fill-rule="evenodd" clip-rule="evenodd" d="M341 20H342C342.552 20 343 20.4477 343 21V27C343 27.5523 342.552 28 342 28H341C340.448 28 340 27.5523 340 27V21C340 20.4477 340.448 20 341 20Z" fill="black"/>
<path fill-rule="evenodd" clip-rule="evenodd" d="M336.5 22H337.5C338.052 22 338.5 22.4477 338.5 23V27C338.5 27.5523 338.052 28 337.5 28H336.5C335.948 28 335.5 27.5523 335.5 27V23C335.5 22.4477 335.948 22 336.5 22Z" fill="black"/>
<path fill-rule="evenodd" clip-rule="evenodd" d="M332 23.5H333C333.552 23.5 334 23.9477 334 24.5V27C334 27.5523 333.552 28 333 28H332C331.448 28 331 27.5523 331 27V24.5C331 23.9477 331.448 23.5 332 23.5Z" fill="black"/>
<path d="M361.133 24.9395C361.772 24.9395 362.394 25.1075 362.941 25.4279L363.163 25.5577C363.331 25.6562 363.361 25.8865 363.223 26.024L361.329 27.9129C361.212 28.0289 361.024 28.0289 360.907 27.9129L359.026 26.0362C358.888 25.8993 358.917 25.6701 359.084 25.5709L359.303 25.4405C359.855 25.112 360.485 24.9395 361.133 24.9395Z" fill="black"/>
<path d="M361.133 21.4697C362.724 21.4697 364.251 21.9975 365.495 22.9748L365.671 23.1129C365.811 23.223 365.824 23.4305 365.697 23.5564L364.567 24.684C364.462 24.7883 364.297 24.8003 364.178 24.7121L364.04 24.6097C363.2 23.9851 362.186 23.6501 361.133 23.6501C360.073 23.6501 359.053 23.9893 358.21 24.621L358.072 24.7244C357.953 24.8133 357.787 24.8016 357.682 24.697L356.552 23.5697C356.426 23.4442 356.438 23.2372 356.578 23.1269L356.753 22.9886C358 22.0026 359.534 21.4697 361.133 21.4697Z" fill="black"/>
<path d="M361.133 18C363.657 18 366.072 18.8906 367.983 20.5229L368.146 20.6623C368.278 20.7749 368.285 20.9756 368.163 21.098L367.036 22.2219C366.926 22.3308 366.752 22.3385 366.634 22.2395L366.494 22.1228C364.989 20.8647 363.104 20.1804 361.133 20.1804C359.155 20.1804 357.263 20.8694 355.756 22.1354L355.617 22.2527C355.498 22.3521 355.324 22.3447 355.214 22.2356L354.087 21.1118C353.965 20.9895 353.972 20.7892 354.104 20.6765L354.266 20.5371C356.18 18.8959 358.601 18 361.133 18Z" fill="black"/>
<path d="M397 21C397.552 21 398 21.4477 398 22V24C398 24.5523 397.552 25 397 25V21Z" fill="#3C3C43" fill-opacity="0.6"/>
<path fill-rule="evenodd" clip-rule="evenodd" d="M376 17H393C394.657 17 396 18.3431 396 20V26C396 27.6569 394.657 29 393 29H376C374.343 29 373 27.6569 373 26V20C373 18.3431 374.343 17 376 17ZM376 18C374.895 18 374 18.8954 374 20V26C374 27.1046 374.895 28 376 28H393C394.105 28 395 27.1046 395 26V20C395 18.8954 394.105 18 393 18H376Z" fill="#3C3C43" fill-opacity="0.6"/>
<rect x="375" y="19" width="19" height="8" rx="1" fill="black"/>
<path d="M37.8672 28.0889C40.5552 28.0889 42.1519 25.9868 42.1519 22.4272C42.1519 21.0869 41.8955 19.959 41.4048 19.0874C40.6943 17.7324 39.4712 17 37.9258 17C35.626 17 34 18.5454 34 20.7134C34 22.7495 35.4648 24.229 37.479 24.229C38.7168 24.229 39.7202 23.6504 40.2183 22.647H40.2402C40.2402 22.647 40.2695 22.647 40.2769 22.647C40.2915 22.647 40.3428 22.647 40.3428 22.647C40.3428 25.064 39.4272 26.5068 37.8818 26.5068C36.9736 26.5068 36.2705 26.0088 36.0288 25.2104H34.1465C34.4614 26.9463 35.9336 28.0889 37.8672 28.0889ZM37.9331 22.7275C36.7173 22.7275 35.853 21.8633 35.853 20.6548C35.853 19.4756 36.7612 18.5747 37.9404 18.5747C39.1196 18.5747 40.0278 19.4902 40.0278 20.6841C40.0278 21.8633 39.1416 22.7275 37.9331 22.7275Z" fill="black"/>
<path d="M45.243 27.9863C45.9388 27.9863 46.4148 27.4883 46.4148 26.8291C46.4148 26.1626 45.9388 25.6719 45.243 25.6719C44.5545 25.6719 44.0711 26.1626 44.0711 26.8291C44.0711 27.4883 44.5545 27.9863 45.243 27.9863ZM45.243 22.4932C45.9388 22.4932 46.4148 22.0024 46.4148 21.3433C46.4148 20.6768 45.9388 20.186 45.243 20.186C44.5545 20.186 44.0711 20.6768 44.0711 21.3433C44.0711 22.0024 44.5545 22.4932 45.243 22.4932Z" fill="black"/>
<path d="M53.2706 27.8325H55.0797V25.8623H56.5079V24.2656H55.0797V17.2637H52.4137C50.546 20.0762 49.0592 22.4272 48.107 24.1777V25.8623H53.2706V27.8325ZM49.8575 24.1997C51.088 22.0317 52.1866 20.2959 53.1974 18.8018H53.2999V24.3096H49.8575V24.1997Z" fill="black"/>
<path d="M60.5365 27.8325H62.4262V17.2637H60.5438L57.7826 19.1973V21.0137L60.412 19.168H60.5365V27.8325Z" fill="black"/>
<g filter="url(#filter1_f_227_3263)">
<circle cx="16" cy="167.698" r="74.5947" fill="#73FDAA" fill-opacity="0.25"/>
</g>
<g filter="url(#filter2_f_227_3263)">
<circle cx="201.936" cy="122.292" r="74.5947" fill="#E2E0F7"/>
</g>
</g>
<defs>
<filter id="filter1_f_227_3263" x="-197.595" y="-45.897" width="427.189" height="427.189" filterUnits="userSpaceOnUse" color-interpolation-filters="sRGB">
<feFlood flood-opacity="0" result="BackgroundImageFix"/>
<feBlend mode="normal" in="SourceGraphic" in2="BackgroundImageFix" result="shape"/>
<feGaussianBlur stdDeviation="69.5" result="effect1_foregroundBlur_227_3263"/>
</filter>
<filter id="filter2_f_227_3263" x="-11.6592" y="-91.3022" width="427.189" height="427.189" filterUnits="userSpaceOnUse" color-interpolation-filters="sRGB">
<feFlood flood-opacity="0" result="BackgroundImageFix"/>
<feBlend mode="normal" in="SourceGraphic" in2="BackgroundImageFix" result="shape"/>
<feGaussianBlur stdDeviation="69.5" result="effect1_foregroundBlur_227_3263"/>
</filter>
<linearGradient id="paint0_linear_227_3263" x1="412" y1="723" x2="-160.389" y2="212.092" gradientUnits="userSpaceOnUse">
<stop offset="0.474235" stop-color="#F4F6F8"/>
<stop offset="0.873431" stop-color="#ADC5F5"/>
</linearGradient>
<clipPath id="clip0_227_3263">
<rect width="412" height="635" fill="white" transform="matrix(-1 0 0 1 412 0)"/>
</clipPath>
</defs>
</svg>
