<svg width="10" height="11" viewBox="0 0 10 11" fill="none" xmlns="http://www.w3.org/2000/svg">
<path d="M5.72104 1.96248L6.45437 3.42914C6.55437 3.63331 6.82104 3.82914 7.04604 3.86664L8.37521 4.08748C9.22521 4.22914 9.42521 4.84581 8.81271 5.45414L7.77937 6.48748C7.60437 6.66248 7.50854 6.99998 7.56271 7.24164L7.85854 8.52081C8.09187 9.53331 7.55437 9.92498 6.65854 9.39581L5.41271 8.65831C5.18771 8.52498 4.81687 8.52498 4.58771 8.65831L3.34187 9.39581C2.45021 9.92498 1.90854 9.52914 2.14187 8.52081L2.43771 7.24164C2.49187 6.99998 2.39604 6.66248 2.22104 6.48748L1.18771 5.45414C0.579373 4.84581 0.775206 4.22914 1.62521 4.08748L2.95437 3.86664C3.17521 3.82914 3.44187 3.63331 3.54187 3.42914L4.27521 1.96248C4.67521 1.16664 5.32521 1.16664 5.72104 1.96248Z" fill="#FF9500" stroke="#FF9500" stroke-width="1.5" stroke-linecap="round" stroke-linejoin="round"/>
</svg>
