<svg width="24" height="24" viewBox="0 0 24 24" fill="none" xmlns="http://www.w3.org/2000/svg">
<path d="M10.1098 11.15H7.45981C6.82981 11.15 6.31982 11.66 6.31982 12.29V17.41H10.1098V11.15V11.15Z" stroke="#6D6B6B" stroke-width="1.5" stroke-miterlimit="10" stroke-linecap="round" stroke-linejoin="round"/>
<path d="M12.7611 6.59998H11.2411C10.6111 6.59998 10.1011 7.10999 10.1011 7.73999V17.4H13.8911V7.73999C13.8911 7.10999 13.3911 6.59998 12.7611 6.59998Z" stroke="#6D6B6B" stroke-width="1.5" stroke-miterlimit="10" stroke-linecap="round" stroke-linejoin="round"/>
<path d="M16.5479 12.85H13.8979V17.4H17.688V13.99C17.678 13.36 17.1679 12.85 16.5479 12.85Z" stroke="#6D6B6B" stroke-width="1.5" stroke-miterlimit="10" stroke-linecap="round" stroke-linejoin="round"/>
<path d="M9 22H15C20 22 22 20 22 15V9C22 4 20 2 15 2H9C4 2 2 4 2 9V15C2 20 4 22 9 22Z" stroke="#6D6B6B" stroke-width="1.5" stroke-linecap="round" stroke-linejoin="round"/>
</svg>
