<svg width="21" height="21" viewBox="0 0 21 21" fill="none" xmlns="http://www.w3.org/2000/svg">
<path d="M10.4349 2.16699C5.84323 2.16699 2.10156 5.90866 2.10156 10.5003C2.10156 15.092 5.84323 18.8337 10.4349 18.8337C15.0266 18.8337 18.7682 15.092 18.7682 10.5003C18.7682 5.90866 15.0266 2.16699 10.4349 2.16699ZM14.4182 8.58366L9.69323 13.3087C9.57656 13.4253 9.41823 13.492 9.25156 13.492C9.0849 13.492 8.92656 13.4253 8.8099 13.3087L6.45156 10.9503C6.2099 10.7087 6.2099 10.3087 6.45156 10.067C6.69323 9.82533 7.09323 9.82533 7.3349 10.067L9.25156 11.9837L13.5349 7.70033C13.7766 7.45866 14.1766 7.45866 14.4182 7.70033C14.6599 7.94199 14.6599 8.33366 14.4182 8.58366Z" fill="#50C878"/>
</svg>
