<svg width="21" height="21" viewBox="0 0 21 21" fill="none" xmlns="http://www.w3.org/2000/svg">
<path d="M17.9349 6.10864C17.9182 6.10864 17.8932 6.10864 17.8682 6.10864C13.4599 5.66697 9.05987 5.50031 4.70153 5.94197L3.00153 6.10864C2.65153 6.14197 2.3432 5.89197 2.30987 5.54197C2.27653 5.19197 2.52653 4.89197 2.8682 4.85864L4.5682 4.69197C9.00153 4.24197 13.4932 4.41697 17.9932 4.85864C18.3349 4.89197 18.5849 5.20031 18.5515 5.54197C18.5265 5.86697 18.2515 6.10864 17.9349 6.10864Z" fill="#1C1F23"/>
<path d="M7.5182 5.26699C7.48486 5.26699 7.45153 5.26699 7.40986 5.25866C7.07653 5.20033 6.8432 4.87533 6.90153 4.54199L7.08486 3.45033C7.2182 2.65033 7.40153 1.54199 9.3432 1.54199H11.5265C13.4765 1.54199 13.6599 2.69199 13.7849 3.45866L13.9682 4.54199C14.0265 4.88366 13.7932 5.20866 13.4599 5.25866C13.1182 5.31699 12.7932 5.08366 12.7432 4.75033L12.5599 3.66699C12.4432 2.94199 12.4182 2.80033 11.5349 2.80033H9.35153C8.4682 2.80033 8.45153 2.91699 8.32653 3.65866L8.13486 4.74199C8.08486 5.05033 7.8182 5.26699 7.5182 5.26699Z" fill="#1C1F23"/>
<path d="M13.1098 19.4586H7.75981C4.85148 19.4586 4.73481 17.8503 4.64314 16.5503L4.10148 8.15864C4.07648 7.81697 4.34314 7.51697 4.68481 7.49197C5.03481 7.47531 5.32648 7.73364 5.35148 8.07531L5.89314 16.467C5.98481 17.7336 6.01814 18.2086 7.75981 18.2086H13.1098C14.8598 18.2086 14.8931 17.7336 14.9765 16.467L15.5181 8.07531C15.5431 7.73364 15.8431 7.47531 16.1848 7.49197C16.5265 7.51697 16.7931 7.80864 16.7681 8.15864L16.2265 16.5503C16.1348 17.8503 16.0181 19.4586 13.1098 19.4586Z" fill="#1C1F23"/>
<path d="M11.8182 14.8752H9.04321C8.70155 14.8752 8.41821 14.5919 8.41821 14.2502C8.41821 13.9086 8.70155 13.6252 9.04321 13.6252H11.8182C12.1599 13.6252 12.4432 13.9086 12.4432 14.2502C12.4432 14.5919 12.1599 14.8752 11.8182 14.8752Z" fill="#1C1F23"/>
<path d="M12.5182 11.542H8.35156C8.0099 11.542 7.72656 11.2587 7.72656 10.917C7.72656 10.5753 8.0099 10.292 8.35156 10.292H12.5182C12.8599 10.292 13.1432 10.5753 13.1432 10.917C13.1432 11.2587 12.8599 11.542 12.5182 11.542Z" fill="#1C1F23"/>
</svg>
