<svg width="24" height="24" viewBox="0 0 24 24" fill="none" xmlns="http://www.w3.org/2000/svg">
<path d="M12 12.7502C8.83 12.7502 6.25 10.1702 6.25 7.00024C6.25 3.83024 8.83 1.25024 12 1.25024C15.17 1.25024 17.75 3.83024 17.75 7.00024C17.75 10.1702 15.17 12.7502 12 12.7502ZM12 2.75024C9.66 2.75024 7.75 4.66024 7.75 7.00024C7.75 9.34024 9.66 11.2502 12 11.2502C14.34 11.2502 16.25 9.34024 16.25 7.00024C16.25 4.66024 14.34 2.75024 12 2.75024Z" fill="#6D6B6B"/>
<path d="M20.5901 22.7502C20.1801 22.7502 19.8401 22.4102 19.8401 22.0002C19.8401 18.5502 16.3202 15.7502 12.0002 15.7502C7.68015 15.7502 4.16016 18.5502 4.16016 22.0002C4.16016 22.4102 3.82016 22.7502 3.41016 22.7502C3.00016 22.7502 2.66016 22.4102 2.66016 22.0002C2.66016 17.7302 6.85015 14.2502 12.0002 14.2502C17.1502 14.2502 21.3401 17.7302 21.3401 22.0002C21.3401 22.4102 21.0001 22.7502 20.5901 22.7502Z" fill="#6D6B6B"/>
</svg>
