<svg width="22" height="22" viewBox="0 0 22 22" fill="none" xmlns="http://www.w3.org/2000/svg">
<path d="M9.85463 2.244C10.4871 1.70317 11.523 1.70317 12.1646 2.244L13.613 3.49067C13.888 3.729 14.4013 3.9215 14.768 3.9215H16.3263C17.298 3.9215 18.0955 4.719 18.0955 5.69067V7.249C18.0955 7.6065 18.288 8.129 18.5263 8.404L19.773 9.85234C20.3138 10.4848 20.3138 11.5207 19.773 12.1623L18.5263 13.6107C18.288 13.8857 18.0955 14.399 18.0955 14.7657V16.324C18.0955 17.2957 17.298 18.0932 16.3263 18.0932H14.768C14.4105 18.0932 13.888 18.2857 13.613 18.524L12.1646 19.7707C11.5321 20.3115 10.4963 20.3115 9.85463 19.7707L8.40629 18.524C8.13129 18.2857 7.61796 18.0932 7.25129 18.0932H5.66546C4.69379 18.0932 3.8963 17.2957 3.8963 16.324V14.7565C3.8963 14.399 3.7038 13.8857 3.47463 13.6107L2.23713 12.1532C1.70546 11.5207 1.70546 10.494 2.23713 9.8615L3.47463 8.404C3.7038 8.129 3.8963 7.61567 3.8963 7.25817V5.6815C3.8963 4.70984 4.69379 3.91234 5.66546 3.91234H7.25129C7.60879 3.91234 8.13129 3.71984 8.40629 3.4815L9.85463 2.244Z" fill="#2C7BE5" stroke="#2C7BE5" stroke-width="1.5" stroke-linecap="round" stroke-linejoin="round"/>
<path d="M7.68213 10.9981L9.8913 13.2165L14.3188 8.77979" fill="#2C7BE5"/>
<path d="M7.68213 10.9981L9.8913 13.2165L14.3188 8.77979" stroke="#F4F6F8" stroke-width="1.5" stroke-linecap="round" stroke-linejoin="round"/>
</svg>
