<svg width="22" height="23" viewBox="0 0 22 23" fill="none" xmlns="http://www.w3.org/2000/svg">
<path d="M9.85463 2.74382C10.4871 2.20299 11.523 2.20299 12.1646 2.74382L13.613 3.99049C13.888 4.22882 14.4013 4.42132 14.768 4.42132H16.3263C17.298 4.42132 18.0955 5.21882 18.0955 6.19049V7.74882C18.0955 8.10632 18.288 8.62882 18.5263 8.90382L19.773 10.3522C20.3138 10.9847 20.3138 12.0205 19.773 12.6622L18.5263 14.1105C18.288 14.3855 18.0955 14.8988 18.0955 15.2655V16.8238C18.0955 17.7955 17.298 18.593 16.3263 18.593H14.768C14.4105 18.593 13.888 18.7855 13.613 19.0238L12.1646 20.2705C11.5321 20.8113 10.4963 20.8113 9.85463 20.2705L8.40629 19.0238C8.13129 18.7855 7.61796 18.593 7.25129 18.593H5.66546C4.69379 18.593 3.8963 17.7955 3.8963 16.8238V15.2563C3.8963 14.8988 3.7038 14.3855 3.47463 14.1105L2.23713 12.653C1.70546 12.0205 1.70546 10.9938 2.23713 10.3613L3.47463 8.90382C3.7038 8.62882 3.8963 8.11549 3.8963 7.75799V6.18132C3.8963 5.20965 4.69379 4.41215 5.66546 4.41215H7.25129C7.60879 4.41215 8.13129 4.21965 8.40629 3.98132L9.85463 2.74382Z" fill="#2C7BE5" stroke="#2C7BE5" stroke-width="1.5" stroke-linecap="round" stroke-linejoin="round"/>
<path d="M7.68213 11.4984L9.8913 13.7167L14.3188 9.28003" fill="#2C7BE5"/>
<path d="M7.68213 11.4984L9.8913 13.7167L14.3188 9.28003" stroke="#F4F6F8" stroke-width="1.5" stroke-linecap="round" stroke-linejoin="round"/>
</svg>
